<svg id="Layer_1" data-name="Layer 1" xmlns="http://www.w3.org/2000/svg" xmlns:xlink="http://www.w3.org/1999/xlink" viewBox="0 0 244.22 135.93"><defs><clipPath id="clip-path" transform="translate(-58.21 -112.48)"><path d="M164.4,205.69c-.2-1.34-.41-2.68-.64-4-.66-6.14-1.63-12.25-2.89-18.29a17.06,17.06,0,0,0-2.11-6,14.92,14.92,0,0,0-5.09-4.33c-6.21-3.6-13.19-5.61-20.1-7.58-4.61-1.31-9.61-2.62-14.1-.92l-4.91,2.22A58.32,58.32,0,0,0,95.7,171.5a33.58,33.58,0,0,0-9.21,5.68,46.91,46.91,0,0,0-6,7.17c-4.83,6.61-20.21,25.53-20.81,27.09-2,5.2-2.38,13.71,1.75,17.46,11.4,10.35,19.92-2.84,22.36-3.45,3.07-.77,14.53-1.63,22.84-2.23l2.22,10c14.35-.21,28.81-.43,42.83-3.46a20.32,20.32,0,0,0,7.49-2.8c3.15-2.21,5-6,5.6-9.76A37.28,37.28,0,0,0,164.4,205.69Z" style="fill:none"/></clipPath></defs><path d="M119,118.23c.75-.68,1.9-.23,2.75,0a2.56,2.56,0,0,0,2.57-.47c.18-.22-.13-.54-.32-.32-.62.74-1.75.46-2.55.25a2.92,2.92,0,0,0-2.77.25c-.21.19.11.51.32.32Z" transform="translate(-58.21 -112.48)" style="fill:#392011"/><path d="M296.74,217.81l1.39,1.37a.22.22,0,0,0,.31,0,.22.22,0,0,0,0-.32l-1.38-1.37a.22.22,0,0,0-.32,0,.23.23,0,0,0,0,.32Z" transform="translate(-58.21 -112.48)" style="fill:#b7782f"/><path d="M297.62,216.67l.15,0,.18.05.09,0,.14.06.09,0,.15.09.08.06.05,0a1.72,1.72,0,0,1,.27.27.23.23,0,1,0,.32-.32,2.25,2.25,0,0,0-1.52-.79.22.22,0,0,0-.23.22.25.25,0,0,0,.23.23Z" transform="translate(-58.21 -112.48)" style="fill:#b7782f"/><path d="M298.88,213.21l1.15.69a.23.23,0,1,0,.23-.39l-1.15-.69a.24.24,0,0,0-.31.08.24.24,0,0,0,.08.31Z" transform="translate(-58.21 -112.48)" style="fill:#b7782f"/><path d="M299.34,207.23l2.07-.92a.24.24,0,0,0,.08-.31.24.24,0,0,0-.31-.08l-2.07.92a.23.23,0,0,0-.08.31.23.23,0,0,0,.31.08Z" transform="translate(-58.21 -112.48)" style="fill:#b7782f"/><path d="M300,208.11l2.31-1.13a.23.23,0,0,0,.08-.31.24.24,0,0,0-.31-.08l-2.31,1.13a.23.23,0,0,0-.08.31.24.24,0,0,0,.31.08Z" transform="translate(-58.21 -112.48)" style="fill:#b7782f"/><path d="M237.67,119a10.89,10.89,0,0,0,.62-3.29c0-.29-.44-.29-.45,0a10.72,10.72,0,0,1-.6,3.17c-.1.27.34.39.43.12Z" transform="translate(-58.21 -112.48)" style="fill:#392011"/><path d="M239.08,119.47c.3-1.07.59-2.15.89-3.22a.23.23,0,0,0-.44-.12l-.88,3.22a.22.22,0,0,0,.43.12Z" transform="translate(-58.21 -112.48)" style="fill:#392011"/><path d="M135.59,120A19.87,19.87,0,0,1,146,122.41a12.55,12.55,0,0,1,6.15,7.91c.51,2.34.19,4.82,1,7.08.64,1.81,2,3.35,2.78,5.1,2.23,4.78.39,10.24.08,15.45a10.07,10.07,0,0,0,.67,4.86c1.5,3.24,6,4.25,8.14,7.27,8.12,11.71-1.06,17.75-3.43,22.66-2.48-2.39.31-11.43-3.26-11.05a53.49,53.49,0,0,0-6.8,1.66A23.33,23.33,0,0,1,136,181.7c-3.49-1.69-6.55-4.3-10.4-5.08-6.8-1.38-13.79,3.34-20.57,1.89-2.87-.62-5.4-2.3-8.31-2.69a9.49,9.49,0,0,0-9.35,4.45c-2.12-3.32-.66-7.85,2.4-10.48,2.07-1.78,5-3.21,5.47-5.78.33-1.71-.56-3.41-.62-5.15-.11-3.09,2.33-5.71,4.74-7.87s5.07-4.44,5.62-7.49c.4-2.21-.4-4.51.16-6.68.63-2.5,2.89-4.34,5.2-5.76s4.83-2.65,6.56-4.65c.85-1,1.48-2.14,2.37-3.11C122.18,120.21,134.51,120,135.59,120Z" transform="translate(-58.21 -112.48)" style="fill:#70411a"/><path d="M203.44,202.13c-3.49-6.91-10.13-21.4-9.63-22.57,1.32-3.05,1.62-11.36,2.94-14.42a9.38,9.38,0,0,0,1-3.88.71.71,0,0,0-1.17-.51,15.13,15.13,0,0,0-4.32,5.87c0-.09-.47-14.26-2.37-15.8-.48-.38-.88-.81-1.26-.33a4.13,4.13,0,0,0-.7,2.15c-.25,3.38-.36,4.09-.61,7.46,0-.88-.13-2-1-2.23s-1.59.75-1.71,1.64a8.07,8.07,0,0,1-.34,2.66c-.1-.8-1.33-1-1.9-.39a2.93,2.93,0,0,0-.57,2.27,3.07,3.07,0,0,0-3,2.52,9.11,9.11,0,0,0,.34,4.26c2.64,11.09,9.22,41.5,10.26,42.46s2.54,3.32,3.72,4.4a4.51,4.51,0,0,0,2.86,1.54c1.36,0,2.39-1.2,3.15-2.33a37.71,37.71,0,0,0,4.49-9.17Z" transform="translate(-58.21 -112.48)" style="fill:#f6a472"/><path d="M221.9,122.06a15,15,0,0,0-10.12,15.63l0,.31c2.26,19.1,5.68,38.26,4.27,57.44a48.88,48.88,0,0,0,29.25,6.83A67.41,67.41,0,0,0,274.14,193q-9.56-29.8-20.85-59a40.15,40.15,0,0,0-4.95-9.94c-2.24-3-5.47-5.38-9.16-5.81a18.92,18.92,0,0,0-5.94.52A115.75,115.75,0,0,0,221.9,122.06Z" transform="translate(-58.21 -112.48)" style="fill:#392011"/><path d="M111.77,231.25l-10.09.92a3.83,3.83,0,0,0-1.46.32,5.38,5.38,0,0,0-1.47,1.39A7.21,7.21,0,0,1,95.13,236c-1.94.46-3.95.09-5.94,0-5-.12-10,1.83-15,2a.79.79,0,0,1-.33-1.53l6.9-2.74c-2.1.79-11.68,1.12-11.84,1-.7-.47,3.18-1.68,5.37-2.56-2.66,1.29-4.06,1.36-7,1.65a.65.65,0,0,1-.71-.44c-.11-.35.16-.57.4-.76a60.34,60.34,0,0,1,22.82-10.87,135.56,135.56,0,0,1,15-2.62l12.36-1.69a.61.61,0,0,1,.3,0c.37.17-.13.45-.12.24Z" transform="translate(-58.21 -112.48)" style="fill:#fdd5b7"/><path d="M164.4,205.69c-.2-1.34-.41-2.68-.64-4-.66-6.14-1.63-12.25-2.89-18.29a17.06,17.06,0,0,0-2.11-6,14.92,14.92,0,0,0-5.09-4.33c-6.21-3.6-13.19-5.61-20.1-7.58-4.61-1.31-9.61-2.62-14.1-.92l-4.91,2.22A58.32,58.32,0,0,0,95.7,171.5a33.58,33.58,0,0,0-9.21,5.68,46.91,46.91,0,0,0-6,7.17c-4.83,6.61-20.21,25.53-20.81,27.09-2,5.2-2.38,13.71,1.75,17.46,11.4,10.35,19.92-2.84,22.36-3.45,3.07-.77,14.53-1.63,22.84-2.23l2.22,10c14.35-.21,28.81-.43,42.83-3.46a20.32,20.32,0,0,0,7.49-2.8c3.15-2.21,5-6,5.6-9.76A37.28,37.28,0,0,0,164.4,205.69Z" transform="translate(-58.21 -112.48)" style="fill:#4b6578"/><path d="M213.39,150.56c1.38-.22,2.77-.44,4.15-.71.27,0,.64-.08.8-.33a.45.45,0,0,0-.78-.46s.17-.2.24-.19l-.14,0-.37.07c-.37.08-.75.14-1.12.21l-2.46.41-.56.09a.46.46,0,0,0-.32.56.47.47,0,0,0,.56.31Z" transform="translate(-58.21 -112.48)" style="fill:#dc4445"/><path d="M230.78,154.85c.15,4.44-1.66,8.69-1.51,13.13h3.82Z" transform="translate(-58.21 -112.48)" style="fill:#dc4445"/><path d="M107.21,222.44a70.88,70.88,0,0,0,2.13,13.1,27.81,27.81,0,0,1,6.36-1.39,93,93,0,0,1-2-16.45Z" transform="translate(-58.21 -112.48)" style="fill:#26353f"/><g style="clip-path:url(#clip-path)"><rect x="82.98" y="185.37" width="2.66" height="11.4" transform="translate(70.12 -125.57) rotate(35.98)" style="fill:#fff"/><rect x="108.04" y="190.32" width="2.66" height="11.4" transform="translate(77.81 -139.34) rotate(35.98)" style="fill:#fff"/><rect x="116.29" y="214.18" width="2.66" height="11.4" transform="translate(93.39 -139.64) rotate(35.97)" style="fill:#fff"/><rect x="128.9" y="177.72" width="2.66" height="11.4" transform="translate(74.38 -154) rotate(35.98)" style="fill:#fff"/><rect x="123.04" y="159.26" width="2.66" height="11.4" transform="translate(62.43 -154.08) rotate(35.98)" style="fill:#fff"/><rect x="101.89" y="175.62" width="2.66" height="11.4" transform="translate(241.73 138.34) rotate(139.11)" style="fill:#fff"/><rect x="92.73" y="200.37" width="2.66" height="11.4" transform="translate(241.86 187.81) rotate(139.11)" style="fill:#fff"/><rect x="124.24" y="199.77" width="2.66" height="11.4" transform="translate(296.8 166.13) rotate(139.11)" style="fill:#fff"/><rect x="144.8" y="186.57" width="2.66" height="11.4" transform="translate(324.25 129.49) rotate(139.11)" style="fill:#fff"/><rect x="161.6" y="188.97" width="2.66" height="11.4" transform="translate(355.33 122.71) rotate(139.11)" style="fill:#fff"/><rect x="154.55" y="171.86" width="2.66" height="11.4" transform="translate(173.51 -158.7) rotate(60)" style="fill:#fff"/><rect x="144.5" y="208.32" width="2.66" height="11.4" transform="translate(200.06 -131.76) rotate(60)" style="fill:#fff"/><rect x="163.86" y="207.12" width="2.66" height="11.4" transform="translate(208.7 -149.13) rotate(60)" style="fill:#fff"/><rect x="136.55" y="225.73" width="2.66" height="11.4" transform="translate(211.16 -116.17) rotate(60)" style="fill:#fff"/><rect x="74.28" y="210.43" width="2.66" height="11.4" transform="translate(166.76 -69.9) rotate(60)" style="fill:#fff"/><rect x="64.23" y="200.07" width="2.66" height="11.4" transform="translate(221.42 64.73) rotate(100.07)" style="fill:#fff"/></g><path d="M79.36,234.44a47.56,47.56,0,0,1,5.41-1.36c.29-.05.17-.48-.12-.43A43.68,43.68,0,0,0,79.24,234c-.28.08-.16.52.12.43Z" transform="translate(-58.21 -112.48)" style="fill:#b17245"/><path d="M69.06,234c3.45-1.1,7-2,10.44-3,1-.29,2-.6,3.06-.92.28-.09.16-.52-.12-.43-3.45,1.1-7,2-10.44,3q-1.55.45-3.06.93c-.28.09-.16.52.12.43Z" transform="translate(-58.21 -112.48)" style="fill:#b17245"/><path d="M99.66,229.6l.34,2.72a.22.22,0,0,0,.22.22.23.23,0,0,0,.23-.22l-.34-2.72a.25.25,0,0,0-.23-.23.22.22,0,0,0-.22.23Z" transform="translate(-58.21 -112.48)" style="fill:#b17245"/><path d="M235.33,168.09c-5.87,1-12,2.33-16.59,6.08a28.85,28.85,0,0,0-6.66,8.55c-1.86,3.37-3.42,6.9-5,10.42l-5.42,12.26a29.45,29.45,0,0,0-2.78,8.6c-.32,3,.42,6.3,2.65,8.35s5.63,2.54,8.73,2.84c21.6,2.1,43.37,3,65,1.34,12.39-.93,24.2-9.07,24.78-12.15A31.2,31.2,0,0,0,300,205c-1.15-9.5-22.42-31.67-24.94-34.28-4.66-4.83-11.62-6.88-18.33-6.95S235.33,168.09,235.33,168.09Z" transform="translate(-58.21 -112.48)" style="fill:#b7782f"/><path d="M254.68,164.31a1.73,1.73,0,1,1-1.73-1.73A1.72,1.72,0,0,1,254.68,164.31Z" transform="translate(-58.21 -112.48)" style="fill:#fff"/><path d="M239.07,167a1.73,1.73,0,1,1-1.72-1.73A1.72,1.72,0,0,1,239.07,167Z" transform="translate(-58.21 -112.48)" style="fill:#fff"/><path d="M114.33,171a14.76,14.76,0,0,0,6.91,8.73c3.39,1.73,7.88,1.5,10.67-1.09,3.07-2.86,3.4-7.67,2.47-11.76a3.79,3.79,0,0,0-.79-1.78,4,4,0,0,0-3-.82l-18.47-.06Z" transform="translate(-58.21 -112.48)" style="fill:#26353f"/><path d="M85,210.81a6.62,6.62,0,0,0-6.61-2.53,7.39,7.39,0,0,0-5.33,5.1c-.95,3.26.33,6.71,1.88,9.63a11.53,11.53,0,0,0,2.8,3.75,4.3,4.3,0,0,0,4.33.77c1.47-.66,2.35-2.25,3-3.78,1.67-3.7,2.85-7.82,2.28-11.81Z" transform="translate(-58.21 -112.48)" style="fill:#26353f"/><path d="M237.41,126.4l7.53,17A4.77,4.77,0,0,1,251,144a5.79,5.79,0,0,1,1.09,6.16,7.38,7.38,0,0,1-4.9,4.12c2.27,4.06,7.08,13.46,7,14.08s-10.14,18-14.93,26.21c-.28-3.69,1.84-16.48,1.75-17.25s-3.34-10.14-5.26-14.85c-1.55.88-5.57,4.29-7.3,4.7a6.25,6.25,0,0,1-5.12-.82c-1.61-1.2-2.26-3.27-2.78-5.22a153.05,153.05,0,0,1-4.7-27.89l7.9-6.48Z" transform="translate(-58.21 -112.48)" style="fill:#f6a472"/><path d="M95,200.54q2.45-3.28,5.18-6.35a.78.78,0,0,1,.5-.33c.4,0,.54.5.56.9a55,55,0,0,1-.11,7.15l-3.51.81Z" transform="translate(-58.21 -112.48)" style="fill:#b17245"/><path d="M243.63,236.23q-18.69,6.53-37.79,11.73l-12-17c-1.11-1.58-2.23-3.17-3.25-4.81-1.56-2.49-2.92-5.1-4.27-7.71l-5.63-10.89q18.56-7.38,36.35-16.5C222.54,201.11,243.63,236.23,243.63,236.23Z" transform="translate(-58.21 -112.48)" style="fill:#f2e7d1"/><path d="M243.88,236.68q-17.87,6.52-36.14,11.73l-11.45-17c-1.07-1.58-2.13-3.17-3.11-4.81-1.5-2.49-2.79-5.1-4.08-7.71q-2.7-5.44-5.39-10.89,17.74-7.38,34.76-16.5C223.71,201.56,243.88,236.68,243.88,236.68Z" transform="translate(-58.21 -112.48)" style="fill:#f2e7d1"/><path d="M266.3,213.23c3.66,3.13,4.81,8.79,4.28,13.57a137.18,137.18,0,0,1-18.76,3.86,19.47,19.47,0,0,0-3.12.67c-.88.3-1.71.73-2.56,1.1-4.14,1.81-12.29,1.28-17.66-.22a.67.67,0,0,1,.17-1.32c2.31,0,5.27.18,6.26.07-2.92.4-9.06.24-11.48-1.25a.4.4,0,0,1,.17-.75l8.4.06a39.75,39.75,0,0,1-10.67-.4,1.1,1.1,0,0,1-.88-.74c-.19-.58.23-.93.63-1.19,2.78-1.85,7.93-1.1,11.22-1.65-2.3.68-7.13.72-9.78.6a.75.75,0,0,1-.38-1.38c3.31-2.13,8.62-2.32,12.05-3.68-.07-.08-1.52-3.42-1.57-3.38s6.49-2.76,10.26-.66a9,9,0,0,0,2.43,1.1,7.52,7.52,0,0,0,2.46,0C250.57,217.23,266.3,213.23,266.3,213.23Z" transform="translate(-58.21 -112.48)" style="fill:#f6a472"/><path d="M150.48,136.18a196.46,196.46,0,0,1-3.36,24.88,5.88,5.88,0,0,1-1.66,3.58c-1.14.9-2.74.84-4.19.73s-8.9-.6-9.33-.17a39.89,39.89,0,0,0-.4,5.08,6.86,6.86,0,0,1-5.66,6.44,6.51,6.51,0,0,1-2,.1,8.2,8.2,0,0,1-6.79-9.59c.64-3.47,1.16-6.71,2.31-11.11a5.17,5.17,0,0,1-5.53-1.78,7.32,7.32,0,0,1-1.27-5.87,6.35,6.35,0,0,1,1.25-2.87,5,5,0,0,1,6.13-1.11c.27-4.09,2.57-11.41,3.34-15.44a162.27,162.27,0,0,0,27.35,5.85Z" transform="translate(-58.21 -112.48)" style="fill:#fdd5b7"/><path d="M119.17,144.18c1.33,1,3.31.27,4.59-.85a10.61,10.61,0,0,0,2.81-4c.45-1.15.7-2.39,1.24-3.51a3.89,3.89,0,0,1,2.69-2.33c2.08-.32,3.72,1.91,5.79,2.28,2.35.41,4.49-1.63,6.88-1.76a5.12,5.12,0,0,0,3.73,4.5c.87.21,2,.39,2.16,1.28a2.5,2.5,0,0,1-.31,1.23,5.5,5.5,0,0,0,1.37,6l2-12.06a5.27,5.27,0,0,0,0-2.76c-.61-1.55-2.46-2.07-4.06-2.37a211.17,211.17,0,0,0-24.41-3.2,4.55,4.55,0,0,0-2.29.23c-1.28.62-1.73,2.24-2,3.66a105.68,105.68,0,0,0-1.63,13.27l2,.5Z" transform="translate(-58.21 -112.48)" style="fill:#70411a"/><path d="M129,122.67c1.14-1.7.54-4.16-.93-5.59a9,9,0,0,0-5.61-2.19,10.93,10.93,0,0,0-5,.59A6,6,0,0,0,114,119a7,7,0,0,0,.62,5.1,8.93,8.93,0,0,0,6.36,5.11c2.79.43,5.93-1.26,6.61-4Z" transform="translate(-58.21 -112.48)" style="fill:#70411a"/><polygon points="73.73 52.72 64.59 50.79 73.43 56.25 73.73 52.72" style="fill:#daa480"/><path d="M115.83,146.92a7.93,7.93,0,0,1,3.46,5.15c0,.28.48.16.43-.12a8.34,8.34,0,0,0-3.66-5.42c-.24-.15-.47.24-.23.39Z" transform="translate(-58.21 -112.48)" style="fill:#b17245"/><path d="M117.84,148.48a3.24,3.24,0,0,0,.36,4.7c.23.17.46-.22.23-.39a2.8,2.8,0,0,1-.27-4c.2-.2-.12-.52-.32-.31Z" transform="translate(-58.21 -112.48)" style="fill:#b17245"/><path d="M139.69,147.35a4.14,4.14,0,0,0,.27,2.2,4.73,4.73,0,0,0,1.27,1.67,4.85,4.85,0,0,1,1.25,1.42,1.68,1.68,0,0,1-.22,1.71,5.57,5.57,0,0,1-1.75,1.48c-.24.15,0,.54.23.39,1.06-.66,2.46-1.66,2.33-3.09s-1.66-2.06-2.38-3.17a3.59,3.59,0,0,1-.56-2.49.23.23,0,0,0-.16-.27.23.23,0,0,0-.28.15Z" transform="translate(-58.21 -112.48)" style="fill:#b17245"/><path d="M134.34,149.3c-.11.87-.7,1.52-1.32,1.44s-1-.85-.91-1.73.7-1.51,1.32-1.43S134.46,148.43,134.34,149.3Z" transform="translate(-58.21 -112.48)" style="fill:#010101"/><path d="M146.5,150.65c-.11.87-.71,1.52-1.32,1.44s-1-.85-.92-1.72.7-1.52,1.32-1.44S146.61,149.78,146.5,150.65Z" transform="translate(-58.21 -112.48)" style="fill:#010101"/><path d="M219.94,150.34c.05-.87.6-1.56,1.22-1.52s1.09.78,1,1.65S221.6,152,221,152,219.89,151.22,219.94,150.34Z" transform="translate(-58.21 -112.48)" style="fill:#010101"/><path d="M230.91,148.89c.05-.87.6-1.56,1.22-1.52s1.08.78,1,1.66-.6,1.55-1.22,1.52S230.86,149.77,230.91,148.89Z" transform="translate(-58.21 -112.48)" style="fill:#010101"/><path d="M135.48,141.05a.76.76,0,0,1,.56,1.2,2.75,2.75,0,0,1-1,.72,25.74,25.74,0,0,1-4.43,1.6,5.86,5.86,0,0,1,4.09-3.6Z" transform="translate(-58.21 -112.48)" style="fill:#70411a"/><path d="M144.19,143.7a.76.76,0,0,0-.56,1.21,2.69,2.69,0,0,0,1,.71,25.21,25.21,0,0,0,4.43,1.6,5.81,5.81,0,0,0-4.08-3.59Z" transform="translate(-58.21 -112.48)" style="fill:#70411a"/><path d="M118.91,156.42a5.21,5.21,0,0,1,3,4.26c0,1.8-1.2,3.34-2.23,4.82s-1.91,3.36-1.19,5a14.58,14.58,0,0,1,.85,1.67c.34,1.21-.45,2.42-1.2,3.43a1.66,1.66,0,0,1-.61.57,1.74,1.74,0,0,1-.79.06l-6.12-.54a6.82,6.82,0,0,1-2.72-.63c-1.43-.78-2.1-2.46-2.55-4a36.47,36.47,0,0,1-1.41-9.51Z" transform="translate(-58.21 -112.48)" style="fill:#70411a"/><path d="M98.35,177.88c2.34,16,5.43,33.32,7.78,49.31l34-.17L132,177.88Z" transform="translate(-58.21 -112.48)" style="fill:#f2e7d1"/><path d="M97,179.22l7,48,34-.17-7.35-47.8Z" transform="translate(-58.21 -112.48)" style="fill:#dc4445"/><path d="M80.36,210l10.27-.75a2.83,2.83,0,0,1,.76-4.22c-1-1.05-.6-2.91.49-3.87a6.6,6.6,0,0,1,4.07-1.3,22.14,22.14,0,0,1,12.56,3.1.69.69,0,0,1,.34.6c0,.46-.46.56-.83.61l-2.21.27a8.89,8.89,0,0,1,5.82,1.1,1.53,1.53,0,0,1,.71.89c.31,1.16-1.07,1.84-2.16,2.12.79-.46,1.87.43,1.74,1.33s-4.57,1.65-5.48,1.54c.81-.22,3.46.38,3.15,1.16s-4.44,2.86-6.61,3c-.15,0,1.35,4.8-4.48,5.76-6.2,1-12.27,3-18.55,2.82a4.11,4.11,0,0,1-4-3.78,24.46,24.46,0,0,1,.55-7.34,2.59,2.59,0,0,1,.2-.57A4.36,4.36,0,0,1,80.36,210Z" transform="translate(-58.21 -112.48)" style="fill:#fdd5b7"/><path d="M99.67,180.35a5.91,5.91,0,0,1-.15-2,5.55,5.55,0,0,1,.21-1,2.83,2.83,0,0,1,.41-.94c.22-.25.56,0,.76.17a7.14,7.14,0,0,1,.65.69,6.6,6.6,0,0,1,1.08,1.63,2.33,2.33,0,0,1,.07,2l.26-.1c-.57-.21-.65-.89-.62-1.41a4.41,4.41,0,0,1,.52-1.87c.27-.49.74-1.06,1.37-.86a2.31,2.31,0,0,1,.94.73,5.65,5.65,0,0,1,.73,1,6.36,6.36,0,0,1,.91,2.55l.34-.19c-1.11-.65-.65-2.35-.24-3.28a1.77,1.77,0,0,1,.56-.81c.34-.22.71,0,1,.2a8.11,8.11,0,0,1,1.69,1.67,2.41,2.41,0,0,1,.48,2.28h.44c-.45-1.06-1.13-2.95.12-3.76a1.93,1.93,0,0,1,1.78,0,2.83,2.83,0,0,1,1.42,1.49A9.05,9.05,0,0,1,115,181l.38-.16a3.19,3.19,0,0,1-.91-1.85,1.89,1.89,0,0,1,.67-1.66,1.4,1.4,0,0,1,1.66-.11,3.33,3.33,0,0,1,1.2,1.54,4.86,4.86,0,0,1,.37,2.41l.39-.15a3.48,3.48,0,0,1-.75-2,2.62,2.62,0,0,1,.67-2c.62-.56,1.42-.15,1.94.31a5.79,5.79,0,0,1,1.36,1.79,2,2,0,0,1,0,2.13h.39a3.5,3.5,0,0,1-.14-3.7,2.88,2.88,0,0,1,.62-.77.67.67,0,0,1,.49-.23.91.91,0,0,1,.48.33,4.45,4.45,0,0,1,.95,1.95,4.56,4.56,0,0,1-.18,2.48H125a5.21,5.21,0,0,1-.31-2.21,3.77,3.77,0,0,1,.68-2,1.22,1.22,0,0,1,1.47-.3,1.87,1.87,0,0,1,1.08,1.23,4.56,4.56,0,0,1-.14,2.48l.33-.14c-.9-.69-.39-2.15,0-3,.08-.17.24-.62.5-.56s.25.2.33.3a2.64,2.64,0,0,1,.23.35,2.78,2.78,0,0,1,.28,1.58,2.58,2.58,0,0,1-.79,1.63l.37.1a2.63,2.63,0,0,1,.47-2.25c.18-.23-.21-.46-.39-.23a3.05,3.05,0,0,0-.51,2.6.23.23,0,0,0,.38.1,3.2,3.2,0,0,0,.56-3.78,1.72,1.72,0,0,0-.73-.8.74.74,0,0,0-.9.37,4,4,0,0,0-.42.95,5.09,5.09,0,0,0-.26,1,2,2,0,0,0,.67,2,.23.23,0,0,0,.33-.13,5.31,5.31,0,0,0,.2-2.53,2.39,2.39,0,0,0-1.22-1.63,1.76,1.76,0,0,0-1.79,0,3.12,3.12,0,0,0-1.09,2.12,5.54,5.54,0,0,0,.26,2.88.23.23,0,0,0,.43,0,5,5,0,0,0-.84-4.82,1.1,1.1,0,0,0-1.12-.47,2,2,0,0,0-1,.78,4,4,0,0,0-.13,4.56.23.23,0,0,0,.39,0c1.06-1.43-.21-3.38-1.28-4.38a2.08,2.08,0,0,0-2.36-.63,2.61,2.61,0,0,0-1.11,2.14,3.92,3.92,0,0,0,.87,2.74c.13.17.37,0,.38-.16a5.22,5.22,0,0,0-.38-2.5,3.75,3.75,0,0,0-1.42-1.84,1.82,1.82,0,0,0-2,0,2.32,2.32,0,0,0-1,1.84,3.46,3.46,0,0,0,1,2.46c.13.14.41,0,.39-.15-.19-1.63-.48-3.61-2.1-4.44a2.54,2.54,0,0,0-2.12-.15,2.07,2.07,0,0,0-1.16,1.76,5.78,5.78,0,0,0,.58,2.64.23.23,0,0,0,.44,0c.66-1.76-1-3.41-2.29-4.38a1.47,1.47,0,0,0-1.27-.4,1.43,1.43,0,0,0-.83.75A5.31,5.31,0,0,0,106,179a2.07,2.07,0,0,0,.89,2.05.23.23,0,0,0,.34-.2,7,7,0,0,0-.9-2.67,7.55,7.55,0,0,0-.83-1.12,3.06,3.06,0,0,0-1.07-.85,1.56,1.56,0,0,0-1.86.82,4.77,4.77,0,0,0-.71,2.21,1.76,1.76,0,0,0,1,1.94.23.23,0,0,0,.25-.1c.67-1.44-.2-2.91-1.12-4a6.13,6.13,0,0,0-.78-.83,1.16,1.16,0,0,0-1-.37c-.38.08-.55.43-.69.75a6,6,0,0,0-.36,1.18,6.1,6.1,0,0,0,.08,2.72.22.22,0,0,0,.43-.12Z" transform="translate(-58.21 -112.48)" style="fill:#c2b48c"/><path d="M129.09,184.33c.89,4.23,1.7,8.47,2.4,12.74s1.31,8.55,1.82,12.85c.28,2.42.54,4.83.76,7.25,0,.29.47.29.45,0q-.6-6.48-1.49-12.94t-2.09-12.87q-.66-3.59-1.42-7.15c-.06-.28-.49-.17-.43.12Z" transform="translate(-58.21 -112.48)" style="fill:#922327"/><path d="M123.75,201.41l-3.5,4.8c-.17.23.22.46.39.23l3.49-4.8c.18-.23-.21-.46-.38-.23Z" transform="translate(-58.21 -112.48)" style="fill:#922327"/><path d="M123.77,205a41.11,41.11,0,0,0-3,3.42c-.17.22.14.54.32.31a40.78,40.78,0,0,1,3-3.41.23.23,0,0,0-.32-.32Z" transform="translate(-58.21 -112.48)" style="fill:#922327"/><path d="M120.74,214.28a66,66,0,0,0-3.7,5.5c-.15.25.24.47.39.22,1.14-1.89,2.38-3.73,3.7-5.5.18-.23-.21-.45-.39-.22Z" transform="translate(-58.21 -112.48)" style="fill:#922327"/><path d="M119.28,187.21a51.79,51.79,0,0,0-4.84,5.09c-.42.51-.83,1-1.24,1.55a.24.24,0,0,0,.08.31.23.23,0,0,0,.31-.08,52.67,52.67,0,0,1,4.59-5.2c.47-.46.94-.91,1.42-1.35.22-.2-.1-.52-.32-.32Z" transform="translate(-58.21 -112.48)" style="fill:#922327"/><path d="M115.52,194.94l-2.56,3c-.19.22.13.54.32.32l2.55-3c.19-.22-.12-.54-.31-.32Z" transform="translate(-58.21 -112.48)" style="fill:#922327"/><path d="M96.81,202.92q4.57.3,9.11,1c.85.13,1.7.26,2.55.41.28,0,.41-.39.12-.44q-4.56-.78-9.17-1.19c-.87-.08-1.74-.15-2.61-.2-.29,0-.29.43,0,.45Z" transform="translate(-58.21 -112.48)" style="fill:#b17245"/><path d="M110.84,207.67l-10.38-1.28L97.52,206c-.29,0-.29.42,0,.45l10.38,1.29,2.94.36c.29,0,.29-.41,0-.45Z" transform="translate(-58.21 -112.48)" style="fill:#b17245"/><path d="M98.66,210.86q4,.54,8,.91c.29,0,.29-.43,0-.45q-4-.37-8-.91a.23.23,0,0,0-.22.23.22.22,0,0,0,.22.22Z" transform="translate(-58.21 -112.48)" style="fill:#b17245"/><path d="M97.66,215.7a23.17,23.17,0,0,1,5.35.15c.29,0,.28-.41,0-.45a23.17,23.17,0,0,0-5.35-.15c-.29,0-.29.47,0,.45Z" transform="translate(-58.21 -112.48)" style="fill:#b17245"/><path d="M96.13,202.06A17.18,17.18,0,0,1,97.42,208a43.54,43.54,0,0,1-.09,6.56c-.09,1.12-.2,2.23-.35,3.33,0,.29.42.29.45,0a59.76,59.76,0,0,0,.51-6.27A31.49,31.49,0,0,0,97.5,205a14.11,14.11,0,0,0-1-3.18c-.12-.27-.5,0-.39.22Z" transform="translate(-58.21 -112.48)" style="fill:#b17245"/><path d="M90.82,209.91a2.15,2.15,0,0,0-1.34,1.89,2.71,2.71,0,0,0,1.09,2.25,8.18,8.18,0,0,0,1.08.62A.86.86,0,0,1,92,215c.12.22,0,.51,0,.76a3.63,3.63,0,0,0,1,2.56,9.42,9.42,0,0,0,2.73,2c.26.14.48-.25.23-.39-1.49-.83-3.42-1.94-3.48-3.88,0-.43.16-.87-.06-1.26a1.71,1.71,0,0,0-.88-.66,2.73,2.73,0,0,1-1.57-1.7,1.77,1.77,0,0,1,1-2.08c.26-.1.15-.54-.12-.43Z" transform="translate(-58.21 -112.48)" style="fill:#b17245"/><path d="M117.91,125.66c-3.77,1.94-7.64,3.92-10.69,6.94a17.79,17.79,0,0,0-3.41,4.62,14,14,0,0,0-1,2.66,19.84,19.84,0,0,0-.48,3,24.35,24.35,0,0,1-1,5.89,9.72,9.72,0,0,1-3.62,4.4c-1.55,1.13-3.21,2.09-4.72,3.26a21.07,21.07,0,0,0-4.14,4.19c-2.31,3.15-3.48,7.37-2.17,11.17a9.9,9.9,0,0,0,.58,1.33c.14.26.53,0,.39-.22-1.89-3.58-1.08-8,1-11.24a19.35,19.35,0,0,1,3.88-4.3c1.48-1.24,3.11-2.24,4.7-3.33a12.12,12.12,0,0,0,3.91-3.83,14,14,0,0,0,1.42-5.62,23.53,23.53,0,0,1,1-5.77,15.54,15.54,0,0,1,3-4.85c2.77-3.15,6.46-5.24,10.14-7.15l1.4-.72c.26-.14,0-.52-.23-.39Z" transform="translate(-58.21 -112.48)" style="fill:#70411a"/><path d="M145.7,125.6a21.18,21.18,0,0,1,7.08,7.46A21.4,21.4,0,0,1,155.6,143a48.79,48.79,0,0,1-.35,5.4,10.38,10.38,0,0,0,.61,5.24c.76,1.62,2.24,2.58,3.66,3.57a9.62,9.62,0,0,1,1.93,1.67,6.42,6.42,0,0,1,1.21,2.49c.45,1.76.4,3.59.72,5.37a7.37,7.37,0,0,0,2,4.24,4.42,4.42,0,0,0,.94.66c.26.13.49-.26.23-.39a5.59,5.59,0,0,1-2.58-3.83c-.43-1.73-.4-3.54-.71-5.3a8.57,8.57,0,0,0-.85-2.59,6.66,6.66,0,0,0-1.69-2c-1.34-1.08-3-1.86-4-3.3a8.07,8.07,0,0,1-1.09-5.12c.09-1.82.41-3.62.41-5.45A22.08,22.08,0,0,0,147,125.92c-.35-.25-.7-.49-1.06-.71s-.48.23-.23.39Z" transform="translate(-58.21 -112.48)" style="fill:#70411a"/><path d="M132.87,132.41c-.48-.53-1.26-.16-1.74.17a6.5,6.5,0,0,0-1.55,1.41,7,7,0,0,0-1.54,3.84c-.12,1.55.33,3.18-.21,4.69a3.9,3.9,0,0,1-2.71,2.29,18.23,18.23,0,0,1-4.61.54c-.28,0-.29.46,0,.45a22.09,22.09,0,0,0,4.14-.4,5.12,5.12,0,0,0,3.07-1.75c.93-1.22.84-2.77.77-4.21a9.66,9.66,0,0,1,.09-2.28,6.72,6.72,0,0,1,.69-1.91,7,7,0,0,1,1.45-1.81,5.45,5.45,0,0,1,.92-.65c.25-.15.67-.33.91-.06s.51-.11.32-.32Z" transform="translate(-58.21 -112.48)" style="fill:#70411a"/><path d="M117.73,126c-1,0-1.41-1.37-1.67-2.13a16.74,16.74,0,0,1-.87-3.75,8.21,8.21,0,0,1,.4-3.55,6.22,6.22,0,0,1,1.65-2.46,4.6,4.6,0,0,1,2.54-1.2,7.8,7.8,0,0,1,3.52.72,7.91,7.91,0,0,1,4.5,3.57c1,2.15,0,4.49-1.37,6.23-.18.23-.37.46-.57.68s.13.54.32.32c1.58-1.79,3-4.23,2.3-6.7-.6-2.08-2.52-3.43-4.4-4.26a10.72,10.72,0,0,0-3.58-1,4.79,4.79,0,0,0-3,.91,6.5,6.5,0,0,0-2,2.44,7.77,7.77,0,0,0-.73,3.56,14.4,14.4,0,0,0,.74,4.06,12,12,0,0,0,.64,1.73,2.42,2.42,0,0,0,1,1.12,1.4,1.4,0,0,0,.7.18.23.23,0,0,0,0-.45Z" transform="translate(-58.21 -112.48)" style="fill:#70411a"/><path d="M115.29,120a5.88,5.88,0,0,1,3.07-4,9,9,0,0,1,6-.68,8.94,8.94,0,0,1,4.79,2.3,4.54,4.54,0,0,1,1.24,2.32,5.54,5.54,0,0,1-.27,2.88c-.77,2.23-2.61,3.84-4.33,5.35-.21.19.1.51.32.32a15.11,15.11,0,0,0,4.21-4.93,6.78,6.78,0,0,0,.6-3,5,5,0,0,0-1-2.69,8.4,8.4,0,0,0-4.69-2.78,10.31,10.31,0,0,0-6.54.27,6.64,6.64,0,0,0-3.71,3.87,5.28,5.28,0,0,0-.16.66c-.06.29.38.41.43.12Z" transform="translate(-58.21 -112.48)" style="fill:#70411a"/><path d="M134.46,120.23a17,17,0,0,1,4.95,4.26,17.73,17.73,0,0,1,3,5.8,16.26,16.26,0,0,1,.65,3.65c0,.29.47.29.45,0a17.12,17.12,0,0,0-1.74-6.5,17.43,17.43,0,0,0-7.09-7.6c-.25-.14-.48.25-.23.39Z" transform="translate(-58.21 -112.48)" style="fill:#392011"/><path d="M140.56,132.2c-1.14,1.14-2.95,1.06-4.38.6-1.75-.55-3.31-1.62-5.15-1.9a5,5,0,0,0-2.49.19,4.81,4.81,0,0,0-2,1.61c-1.12,1.39-1.85,3-2.9,4.47s-2.68,2.73-4.55,2.57c-.29,0-.29.43,0,.45a5.4,5.4,0,0,0,4.3-2,36.89,36.89,0,0,0,2.95-4.45,6.43,6.43,0,0,1,1.82-2,4,4,0,0,1,2.44-.46c1.86.17,3.46,1.25,5.19,1.85s3.74.7,5.08-.63c.21-.21-.11-.52-.32-.32Z" transform="translate(-58.21 -112.48)" style="fill:#392011"/><path d="M144.36,132.41a2,2,0,0,0,.6,2.29,8.29,8.29,0,0,0,2.56,1.27,5.21,5.21,0,0,1,3,3.82,4.69,4.69,0,0,1,0,1.24c0,.52-.17,1-.24,1.54a3.71,3.71,0,0,0,0,1.52,2.85,2.85,0,0,0,.61,1.12,10,10,0,0,1,1.67,1.9,4.53,4.53,0,0,1,.16,2.75,25.12,25.12,0,0,0-.53,3.35,9.73,9.73,0,0,0,.54,3.51c.1.27.53.16.44-.12a9.17,9.17,0,0,1-.53-3.12,14.66,14.66,0,0,1,.41-2.94,7.66,7.66,0,0,0,.18-2.82,4,4,0,0,0-1.35-2.15,5.84,5.84,0,0,1-.83-.89,2.25,2.25,0,0,1-.4-1.31c0-1,.36-1.92.33-2.91a5.67,5.67,0,0,0-2.22-4.26,5.29,5.29,0,0,0-1.27-.71c-.5-.21-1-.37-1.5-.62a2.5,2.5,0,0,1-1.11-1,1.35,1.35,0,0,1-.16-1.29c.12-.26-.27-.49-.39-.22Z" transform="translate(-58.21 -112.48)" style="fill:#392011"/><path d="M150.9,153.65c-.24,1.07-.47,2.14-.7,3.21a14.06,14.06,0,0,0-.41,2.74,4.44,4.44,0,0,0,.62,2.52,5.45,5.45,0,0,0,1.52,1.47c1.15.79,2.59,1.38,3.33,2.63.92,1.54.42,3.48,1,5.14a4.73,4.73,0,0,0,4,3.09c.28,0,.28-.42,0-.45a4.27,4.27,0,0,1-3.46-2.56c-.66-1.6-.21-3.43-.89-5-.58-1.34-1.89-2.07-3.08-2.8a7.6,7.6,0,0,1-1.63-1.25,3.6,3.6,0,0,1-.91-2.14,10.44,10.44,0,0,1,.33-3l.75-3.46c.06-.29-.37-.41-.43-.12Z" transform="translate(-58.21 -112.48)" style="fill:#392011"/><path d="M158.12,167.27a7.9,7.9,0,0,0,1.1,3.24,9.47,9.47,0,0,0,2.35,2.5,7.38,7.38,0,0,1,2.27,2.35,4.09,4.09,0,0,1,.26,2.67,4,4,0,0,1-1.71,2.48c-.25.15,0,.54.22.39a4.62,4.62,0,0,0,1.9-5,5.16,5.16,0,0,0-1.85-2.56,15.42,15.42,0,0,1-2.6-2.37,7.47,7.47,0,0,1-1.49-3.67c0-.29-.48-.29-.45,0Z" transform="translate(-58.21 -112.48)" style="fill:#392011"/><path d="M149,163.61a2.69,2.69,0,0,0,2.07,4.38.23.23,0,0,0,0-.45,2.23,2.23,0,0,1-1.75-3.61c.17-.23-.14-.55-.32-.32Z" transform="translate(-58.21 -112.48)" style="fill:#392011"/><path d="M152.28,140.42a4.49,4.49,0,0,0,.31,3.26,15.8,15.8,0,0,0,1,1.43,3.65,3.65,0,0,1,.61,1.58,3.55,3.55,0,0,1-.26,1.85.22.22,0,0,0,.16.28.23.23,0,0,0,.28-.16,4,4,0,0,0-.09-3.24,10,10,0,0,0-1-1.45,4,4,0,0,1-.67-1.55,3.87,3.87,0,0,1,.09-1.88.23.23,0,0,0-.44-.12Z" transform="translate(-58.21 -112.48)" style="fill:#392011"/><path d="M144.46,125.83a2,2,0,0,0-.14,1.88,3.27,3.27,0,0,0,1.39,1.55c1.22.75,2.92,1,3.75,2.28A4.52,4.52,0,0,1,150,134c0,.29.46.29.45,0a5.74,5.74,0,0,0-.38-2.17,3.47,3.47,0,0,0-1.4-1.56,15.16,15.16,0,0,0-2-.93,4.23,4.23,0,0,1-1.74-1.23,1.79,1.79,0,0,1-.17-2c.17-.24-.22-.47-.39-.23Z" transform="translate(-58.21 -112.48)" style="fill:#392011"/><path d="M146.27,125.87a13.86,13.86,0,0,1,2.82,3.33c.14.25.53,0,.38-.23a14.31,14.31,0,0,0-2.88-3.42c-.22-.19-.54.13-.32.32Z" transform="translate(-58.21 -112.48)" style="fill:#392011"/><path d="M137.51,129.14a3.17,3.17,0,0,1-2.48,1,14,14,0,0,1-3.32-.68,11,11,0,0,0-6.26.36,7.84,7.84,0,0,0-4.14,3.12,5,5,0,0,0-.54,1.17,13.73,13.73,0,0,0-.33,1.41,4.43,4.43,0,0,1-.46,1.37,2.35,2.35,0,0,1-1,.91,8.46,8.46,0,0,1-1.36.48,13.35,13.35,0,0,0-1.5.53,12.13,12.13,0,0,0-2.71,1.65l-.6.53c-.21.2.11.51.32.32a11.53,11.53,0,0,1,4.09-2.44c.48-.15,1-.27,1.43-.45a3.88,3.88,0,0,0,1.23-.67,2.83,2.83,0,0,0,.79-1.17c.33-.9.34-1.88.72-2.76a6.85,6.85,0,0,1,3.79-3.4,10.51,10.51,0,0,1,6.14-.6,24.62,24.62,0,0,0,3.38.76,4.13,4.13,0,0,0,2.66-.61,3.64,3.64,0,0,0,.5-.46c.19-.22-.12-.54-.31-.32Z" transform="translate(-58.21 -112.48)" style="fill:#392011"/><path d="M132.32,125a15.74,15.74,0,0,1-4.82,1.56c-1.64.3-3.3.41-5,.63a6.49,6.49,0,0,0-3.76,1.48,4,4,0,0,0-1,1.95,8.08,8.08,0,0,1-.71,2.25,4.5,4.5,0,0,1-3.93,2.21.23.23,0,0,0,0,.45,4.92,4.92,0,0,0,3.8-1.71,5,5,0,0,0,1-1.92,8.3,8.3,0,0,1,.74-2.39,4.86,4.86,0,0,1,3.51-1.81c.76-.13,1.54-.19,2.3-.28s1.73-.19,2.58-.33a16.74,16.74,0,0,0,5.48-1.71c.25-.14,0-.52-.23-.38Z" transform="translate(-58.21 -112.48)" style="fill:#392011"/><path d="M117.6,116.58a4.68,4.68,0,0,0-1.37,3.24,4.64,4.64,0,0,0,.29,1.77,2.53,2.53,0,0,0,1.1,1.49,1.25,1.25,0,0,0,1.5-.79c.28-.61.29-1.36.85-1.8a2,2,0,0,1,1.58-.33c.67.13,1.19.64,1.86.75,1.46.25,2.49-1.19,3.11-2.3a.23.23,0,0,0-.39-.23,6.41,6.41,0,0,1-1,1.44,2,2,0,0,1-1.4.67c-.65,0-1.15-.5-1.74-.69a2.71,2.71,0,0,0-1.57,0,2,2,0,0,0-1.21,1c-.28.57-.28,1.33-.8,1.76a.56.56,0,0,1-.74,0,2.26,2.26,0,0,1-.51-.71,4.15,4.15,0,0,1-.44-1.58,4.27,4.27,0,0,1,1.23-3.39c.21-.21-.11-.52-.32-.32Z" transform="translate(-58.21 -112.48)" style="fill:#392011"/><path d="M132.72,122.07a2.51,2.51,0,0,1-2.24,1.77,20.57,20.57,0,0,1-3.84-.15,4.25,4.25,0,0,0-2.24.51c-.25.15,0,.54.22.39,1.29-.76,2.87-.39,4.27-.26a5,5,0,0,0,3.29-.68,2.27,2.27,0,0,0,1-1.46c0-.28-.38-.4-.43-.12Z" transform="translate(-58.21 -112.48)" style="fill:#392011"/><path d="M116.1,128.66a4.88,4.88,0,0,1-1.53,3.23,8.3,8.3,0,0,1-3.77,1.6,6.18,6.18,0,0,0-3.26,1.71,3.41,3.41,0,0,0-.59,3.16c.3,1.11.88,2.13,1.22,3.23a4.39,4.39,0,0,1,.22,1.61,3.66,3.66,0,0,1-.74,1.77c-.42.59-.93,1.13-1.4,1.67l-1.64,1.86-1.6,1.83c-.5.57-1,1.13-1.48,1.72a5.64,5.64,0,0,0-1,1.75,3.59,3.59,0,0,0-.1,1.66,3.94,3.94,0,0,0,1.86,2.67,3.49,3.49,0,0,0,.75.31.22.22,0,0,0,.12-.43,3.35,3.35,0,0,1-2.18-2.2,3.1,3.1,0,0,1-.09-1.6,4.56,4.56,0,0,1,.87-1.73c.45-.59,1-1.13,1.44-1.69l1.58-1.8,1.61-1.83c.48-.55,1-1.09,1.43-1.67a4.66,4.66,0,0,0,.93-1.74,3.89,3.89,0,0,0,0-1.63,22.63,22.63,0,0,0-1.16-3.2,3.45,3.45,0,0,1,0-3.1,5,5,0,0,1,3-1.83,10.73,10.73,0,0,0,3.84-1.46,5.28,5.28,0,0,0,2-3.87c0-.29-.44-.29-.45,0Z" transform="translate(-58.21 -112.48)" style="fill:#392011"/><path d="M109.78,145.77a23.39,23.39,0,0,0-5.4,7.65,4.88,4.88,0,0,0-.53,2.48,5.73,5.73,0,0,0,.8,2,3.28,3.28,0,0,1,.5,2.19,20,20,0,0,1-.84,2.47,3,3,0,0,0,.12,2.54,1.74,1.74,0,0,0,1.89.85.22.22,0,0,0-.12-.43,1.36,1.36,0,0,1-1.47-.79,2.93,2.93,0,0,1,.08-2.25,13.12,13.12,0,0,0,.78-2.34,3.4,3.4,0,0,0-.36-2.1,10,10,0,0,1-.87-1.84,3.69,3.69,0,0,1,.32-2.31,21.52,21.52,0,0,1,2.15-3.94,23,23,0,0,1,3.27-3.84c.21-.19-.11-.51-.32-.31Z" transform="translate(-58.21 -112.48)" style="fill:#392011"/><path d="M109.47,156.44c-.48,1.47-1,2.94-1.43,4.42-.36,1.14-.65,2.54.12,3.59a7,7,0,0,0,2.42,1.61,2.61,2.61,0,0,1,1,.89,2.3,2.3,0,0,1,.23,1.46c-.12,1.12-.68,2.42.06,3.45.16.23.55,0,.38-.23-.61-.86-.16-2,0-2.95a3.37,3.37,0,0,0-.07-1.55,2.47,2.47,0,0,0-.85-1.12c-.76-.57-1.72-.81-2.44-1.43a2.15,2.15,0,0,1-.76-1.37,4.89,4.89,0,0,1,.21-1.82c.21-.79.49-1.56.75-2.34l.81-2.49c.09-.28-.35-.4-.44-.12Z" transform="translate(-58.21 -112.48)" style="fill:#392011"/><path d="M113.7,158.51a4,4,0,0,1,1.85,2.45,4.23,4.23,0,0,1-.56,3.23,10.63,10.63,0,0,1-1.24,1.67c-.19.21.13.53.32.31a7.75,7.75,0,0,0,2-3.34,4.37,4.37,0,0,0-.65-3.37,4.17,4.17,0,0,0-1.44-1.33c-.25-.15-.48.24-.23.38Z" transform="translate(-58.21 -112.48)" style="fill:#392011"/><path d="M118.53,159.12a2.72,2.72,0,0,1,0,3.39c-.19.22.13.54.32.32a3.18,3.18,0,0,0,0-4c-.18-.23-.5.09-.32.31Z" transform="translate(-58.21 -112.48)" style="fill:#392011"/><path d="M99.26,160.6a9.34,9.34,0,0,1-2.85,5.73A9,9,0,0,1,95,167.46a.23.23,0,0,0,.23.39,9.86,9.86,0,0,0,4.14-5.35,10.17,10.17,0,0,0,.39-1.9c0-.29-.42-.28-.45,0Z" transform="translate(-58.21 -112.48)" style="fill:#392011"/><path d="M99.9,165.87a6.83,6.83,0,0,1-3,3.43c-.25.14,0,.52.23.38a7.22,7.22,0,0,0,3.22-3.69c.11-.27-.33-.39-.43-.12Z" transform="translate(-58.21 -112.48)" style="fill:#392011"/><path d="M119.09,156.75a6.18,6.18,0,0,1,2.81,8,8.13,8.13,0,0,1-1.06,1.67,4.76,4.76,0,0,0-.92,1.62,3.09,3.09,0,0,0,0,1.54,3.19,3.19,0,0,0,2.36,2.33c.28.06.4-.37.12-.43a2.76,2.76,0,0,1-2-2,2.51,2.51,0,0,1,0-1.46,5.77,5.77,0,0,1,1-1.64,6.86,6.86,0,0,0,1.42-3.57,6.51,6.51,0,0,0-.72-3.65,6.67,6.67,0,0,0-2.82-2.82c-.25-.14-.48.25-.23.39Z" transform="translate(-58.21 -112.48)" style="fill:#70411a"/><path d="M246,150.29a9.59,9.59,0,0,1,3-4.2c.23-.18-.09-.5-.32-.32a10.08,10.08,0,0,0-3.16,4.4c-.1.28.34.4.44.12Z" transform="translate(-58.21 -112.48)" style="fill:#7f4a24"/><path d="M247.35,148.13a3.83,3.83,0,0,1,1.1,2.2.23.23,0,0,0,.28.15.23.23,0,0,0,.16-.27,4.19,4.19,0,0,0-1.23-2.4c-.2-.2-.52.12-.31.32Z" transform="translate(-58.21 -112.48)" style="fill:#7f4a24"/><path d="M222.68,226.13c3,0,6,.07,9.06-.07.87,0,1.74-.09,2.61-.16.28,0,.29-.47,0-.45-3,.25-6,.26-9,.24h-2.62a.23.23,0,0,0,0,.45Z" transform="translate(-58.21 -112.48)" style="fill:#7f4a24"/><path d="M223.54,229.2c3,0,6.06,0,9.08-.16.75,0,1.5-.09,2.25-.16.28,0,.29-.48,0-.45-1.43.14-2.87.2-4.3.25-1.59,0-3.18.07-4.77.08h-2.26a.23.23,0,0,0,0,.45Z" transform="translate(-58.21 -112.48)" style="fill:#7f4a24"/><path d="M234.15,220.74l7.57-2.8c.26-.1.15-.54-.12-.44L234,220.31c-.27.1-.15.53.12.43Z" transform="translate(-58.21 -112.48)" style="fill:#7f4a24"/><polygon points="177.56 49.95 186.04 44.17 179.06 53.7 177.56 49.95" style="fill:#ad6a3a;opacity:0.42"/><path d="M224.91,143.1c-.44,3.86-.87,7.83-.07,11.68a16,16,0,0,0,1,3.09.23.23,0,0,0,.39,0,14.48,14.48,0,0,1,1.95-2.65c.2-.21-.12-.53-.31-.31a14.34,14.34,0,0,0-2,2.73h.39c-1.51-3.55-1.5-7.51-1.17-11.29.09-1.09.21-2.17.34-3.25,0-.29-.42-.29-.45,0Z" transform="translate(-58.21 -112.48)" style="fill:#7f4a24"/><path d="M230.38,158.62a1.38,1.38,0,0,0,0-.38,21.69,21.69,0,0,1-3.94,1.56l0,.08A2.2,2.2,0,0,0,230.38,158.62Z" transform="translate(-58.21 -112.48)" style="fill:#fff"/><path d="M230.6,158.62a2.12,2.12,0,0,0,0-.44.23.23,0,0,0-.33-.14,9.55,9.55,0,0,1-1.9.86c-.66.25-1.33.47-2,.69a.22.22,0,0,0-.1.37,2.44,2.44,0,0,0,3.94,0,2.34,2.34,0,0,0,.42-1.3c0-.29-.44-.29-.45,0a1.92,1.92,0,0,1-1.43,1.8,2,2,0,0,1-2.17-.77l-.09.37c.68-.22,1.36-.45,2-.7a9.82,9.82,0,0,0,1.95-.89l-.33-.13a1.12,1.12,0,0,1,0,.32A.23.23,0,0,0,230.6,158.62Z" transform="translate(-58.21 -112.48)" style="fill:#764320"/><path d="M229.85,143.63a4.4,4.4,0,0,1,7,.43c-.86-.88-2.29-.81-3.49-.53a6.58,6.58,0,0,1-3.63.28Z" transform="translate(-58.21 -112.48)" style="fill:#392011"/><path d="M223.11,141.4a4.4,4.4,0,0,0-5.23,4.65c.13-1.22,1.3-2.05,2.42-2.57a6.67,6.67,0,0,0,3-2Z" transform="translate(-58.21 -112.48)" style="fill:#392011"/><path d="M237.87,171.36a1.73,1.73,0,1,1-1.72-1.73A1.72,1.72,0,0,1,237.87,171.36Z" transform="translate(-58.21 -112.48)" style="fill:#fff"/><path d="M239.67,175.71A1.73,1.73,0,1,1,238,174,1.72,1.72,0,0,1,239.67,175.71Z" transform="translate(-58.21 -112.48)" style="fill:#fff"/><path d="M244.48,178.71a1.73,1.73,0,1,1-1.73-1.73A1.74,1.74,0,0,1,244.48,178.71Z" transform="translate(-58.21 -112.48)" style="fill:#fff"/><path d="M250.18,177.66a1.73,1.73,0,1,1-1.73-1.73A1.73,1.73,0,0,1,250.18,177.66Z" transform="translate(-58.21 -112.48)" style="fill:#fff"/><path d="M254.53,174.21a1.73,1.73,0,1,1-1.73-1.73A1.72,1.72,0,0,1,254.53,174.21Z" transform="translate(-58.21 -112.48)" style="fill:#fff"/><circle cx="197.14" cy="56.48" r="1.73" style="fill:#fff"/><path d="M236.45,167c-1,2.38-1.55,5.17-.16,7.52a8.48,8.48,0,0,0,2.45,2.54,9.81,9.81,0,0,0,3.49,1.56,7.69,7.69,0,0,0,3.87-.12,13.19,13.19,0,0,0,3.51-1.78,12.76,12.76,0,0,0,4.79-5.3,7.38,7.38,0,0,0-.21-6.62,5.41,5.41,0,0,0-.49-.69c-.18-.23-.5.09-.32.32a6.54,6.54,0,0,1,.86,6.14,11.18,11.18,0,0,1-4.16,5.27c-2,1.45-4.25,2.72-6.77,2.5a8.8,8.8,0,0,1-3.49-1.13,9.17,9.17,0,0,1-2.63-2.17,5.87,5.87,0,0,1-1.29-3.2,9,9,0,0,1,.59-3.73c.11-.3.22-.59.35-.88s-.27-.49-.39-.23Z" transform="translate(-58.21 -112.48)" style="fill:#fff"/><path d="M238.65,179.24c-.26,2.51-.47,5-.65,7.54s-.3,5-.39,7.52c-.05,1.42-.08,2.85-.11,4.28a.23.23,0,0,0,.39.16c1.26-1.48,2.47-3,3.66-4.54s2.56-3.36,3.81-5.07,2.55-3.53,3.81-5.31,2.45-3.49,3.66-5.25,2.25-3.25,3.37-4.87l.4-.58c.16-.24-.23-.46-.39-.23l-3.3,4.78c-1.21,1.74-2.41,3.48-3.63,5.22s-2.51,3.54-3.78,5.29-2.51,3.42-3.8,5.1-2.43,3.11-3.69,4.62l-.44.52.38.16c0-2.52.13-5,.25-7.56s.29-5,.5-7.51c.12-1.43.26-2.85.4-4.27,0-.29-.42-.28-.45,0Z" transform="translate(-58.21 -112.48)" style="fill:#684018"/><path d="M243.41,188.77l.46.69a.27.27,0,0,0,.13.1.24.24,0,0,0,.17,0,.23.23,0,0,0,.09-.31c-.16-.23-.31-.46-.46-.69a.23.23,0,0,0-.14-.1.21.21,0,0,0-.17,0,.23.23,0,0,0-.08.31Z" transform="translate(-58.21 -112.48)" style="fill:#684018"/><path d="M244.33,186.93l.69.92a.22.22,0,0,0,.13.1.2.2,0,0,0,.17,0,.22.22,0,0,0,.08-.31l-.68-.92a.23.23,0,0,0-.14-.1.21.21,0,0,0-.17,0,.22.22,0,0,0-.08.31Z" transform="translate(-58.21 -112.48)" style="fill:#684018"/><path d="M245.28,185.13l.92.92a.22.22,0,0,0,.32,0,.22.22,0,0,0,0-.31l-.92-.92a.22.22,0,0,0-.32,0,.22.22,0,0,0,0,.31Z" transform="translate(-58.21 -112.48)" style="fill:#684018"/><path d="M246.67,183.29l.69.69a.23.23,0,0,0,.32-.32L247,183a.22.22,0,0,0-.32,0,.23.23,0,0,0,0,.32Z" transform="translate(-58.21 -112.48)" style="fill:#684018"/><path d="M247.81,181l1.15,1.38a.23.23,0,0,0,.32-.32l-1.15-1.38a.22.22,0,0,0-.32,0,.23.23,0,0,0,0,.32Z" transform="translate(-58.21 -112.48)" style="fill:#684018"/><path d="M249.43,179.78l.68,1.15a.24.24,0,0,0,.31.08.23.23,0,0,0,.08-.31l-.68-1.15a.23.23,0,0,0-.31-.08.23.23,0,0,0-.08.31Z" transform="translate(-58.21 -112.48)" style="fill:#684018"/><path d="M251.29,178.44l.68.69a.22.22,0,0,0,.32,0,.23.23,0,0,0,0-.32l-.69-.69a.22.22,0,0,0-.31,0,.22.22,0,0,0,0,.32Z" transform="translate(-58.21 -112.48)" style="fill:#684018"/><path d="M252.2,177.75l.47.45a.2.2,0,0,0,.16.07.21.21,0,0,0,.16-.07.17.17,0,0,0,.06-.15.23.23,0,0,0-.06-.16l-.47-.46a.23.23,0,0,0-.16-.06.25.25,0,0,0-.16.06.2.2,0,0,0-.06.16.23.23,0,0,0,.06.16Z" transform="translate(-58.21 -112.48)" style="fill:#684018"/><path d="M242.23,191.18v.69a.23.23,0,0,0,.22.23.24.24,0,0,0,.23-.23v-.69a.23.23,0,0,0-.45,0Z" transform="translate(-58.21 -112.48)" style="fill:#684018"/><path d="M241.08,192.56v.92a.22.22,0,0,0,.22.22.22.22,0,0,0,.23-.22v-.92a.22.22,0,0,0-.23-.22.22.22,0,0,0-.22.22Z" transform="translate(-58.21 -112.48)" style="fill:#684018"/><path d="M239.47,194.4v1.15a.22.22,0,0,0,.22.22.22.22,0,0,0,.23-.22V194.4a.23.23,0,1,0-.45,0Z" transform="translate(-58.21 -112.48)" style="fill:#684018"/><path d="M238.54,195.25l-.24.92a.22.22,0,1,0,.43.12l.25-.92a.22.22,0,0,0-.16-.27.23.23,0,0,0-.28.15Z" transform="translate(-58.21 -112.48)" style="fill:#684018"/><path d="M238.43,191.61l.69-.46a.23.23,0,0,0,.1-.14.21.21,0,0,0,0-.17.23.23,0,0,0-.31-.08l-.69.46a.19.19,0,0,0-.1.13.2.2,0,0,0,0,.17.23.23,0,0,0,.31.09Z" transform="translate(-58.21 -112.48)" style="fill:#684018"/><path d="M238.7,189.73c.16-.15.31-.31.46-.46a.24.24,0,0,0,.07-.16.26.26,0,0,0-.07-.16.19.19,0,0,0-.16-.06.2.2,0,0,0-.15.06l-.46.46a.22.22,0,0,0,0,.32.21.21,0,0,0,.15.07.29.29,0,0,0,.16-.07Z" transform="translate(-58.21 -112.48)" style="fill:#684018"/><path d="M238.43,186.78l.69-.46a.24.24,0,0,0,.08-.31.23.23,0,0,0-.31-.08l-.69.46a.21.21,0,0,0-.1.13.22.22,0,0,0,.33.26Z" transform="translate(-58.21 -112.48)" style="fill:#684018"/><path d="M239,184.63a1.56,1.56,0,0,1,.16-.28.43.43,0,0,1,0-.07l.13-.15.12-.11.06-.05a1.79,1.79,0,0,1,.32-.18.24.24,0,0,0,.08-.31.23.23,0,0,0-.31-.08,2,2,0,0,0-1,1,.25.25,0,0,0,0,.17.19.19,0,0,0,.1.13.22.22,0,0,0,.31-.08Z" transform="translate(-58.21 -112.48)" style="fill:#684018"/><path d="M238.9,181.66l.47-.45a.21.21,0,0,0,.07-.16.2.2,0,0,0-.07-.16.23.23,0,0,0-.15-.07.26.26,0,0,0-.16.07l-.47.45a.24.24,0,0,0-.07.16.21.21,0,0,0,.07.16.23.23,0,0,0,.16.06.2.2,0,0,0,.15-.06Z" transform="translate(-58.21 -112.48)" style="fill:#684018"/><path d="M239.11,179.86l.46-.23a.22.22,0,0,0,.1-.13.28.28,0,0,0,0-.18.24.24,0,0,0-.31-.08l-.46.23a.23.23,0,0,0-.1.14.21.21,0,0,0,0,.17.21.21,0,0,0,.13.1.23.23,0,0,0,.18,0Z" transform="translate(-58.21 -112.48)" style="fill:#684018"/><path d="M238.47,193.87l.23-.23a.15.15,0,0,0,.05-.07.21.21,0,0,0,0-.18.15.15,0,0,0-.05-.07.24.24,0,0,0-.16-.07h-.06a.18.18,0,0,0-.09.06l-.23.23a.12.12,0,0,0,0,.07.21.21,0,0,0,0,.18.15.15,0,0,0,0,.07.17.17,0,0,0,.15.06h.06a.17.17,0,0,0,.1-.06Z" transform="translate(-58.21 -112.48)" style="fill:#684018"/><path d="M256.28,165.09a9.15,9.15,0,0,1,1.35,4.94.23.23,0,0,0,.45,0,9.63,9.63,0,0,0-1.41-5.17.23.23,0,0,0-.39.23Z" transform="translate(-58.21 -112.48)" style="fill:#684018"/><path d="M265.72,212.88l2-1.24,1-.59a.31.31,0,0,1,.43,0c.12.12.23.25.34.38a18.92,18.92,0,0,1,2.14,3.19,19.29,19.29,0,0,1,2.21,7.3,18.93,18.93,0,0,1-.09,4.32.24.24,0,0,0,.16.28.22.22,0,0,0,.27-.16,19.65,19.65,0,0,0-4.3-15.15c-.22-.27-.47-.67-.84-.73s-.81.3-1.13.49l-2.4,1.47c-.24.15,0,.54.23.39Z" transform="translate(-58.21 -112.48)" style="fill:#684018"/><path d="M271.75,225.83a1.75,1.75,0,0,1,.28-.13l.32-.08h.3a1.67,1.67,0,0,1,.31,0,.22.22,0,1,0,.12-.43,2,2,0,0,0-1.56.22.21.21,0,0,0-.08.3.22.22,0,0,0,.31.08Z" transform="translate(-58.21 -112.48)" style="fill:#684018"/><path d="M271.68,224.2l1.4-.41a.23.23,0,0,0-.12-.44l-1.4.41a.23.23,0,0,0,.12.44Z" transform="translate(-58.21 -112.48)" style="fill:#684018"/><path d="M271.7,222l1.16-.42a.23.23,0,0,0-.12-.44l-1.16.42a.24.24,0,0,0-.16.28.23.23,0,0,0,.28.16Z" transform="translate(-58.21 -112.48)" style="fill:#684018"/><path d="M270.8,220.26l1.87-.85a.23.23,0,0,0,.08-.31.23.23,0,0,0-.31-.08l-1.86.86a.22.22,0,0,0-.08.3.21.21,0,0,0,.3.08Z" transform="translate(-58.21 -112.48)" style="fill:#684018"/><path d="M270.36,217.78c.54-.3,1.08-.6,1.63-.89a.24.24,0,0,0,.08-.31.23.23,0,0,0-.31-.08l-1.63.89a.24.24,0,0,0-.08.31.25.25,0,0,0,.31.08Z" transform="translate(-58.21 -112.48)" style="fill:#684018"/><path d="M269.27,216.39a4.41,4.41,0,0,1,2-1.09c.29-.06.17-.5-.12-.43a4.7,4.7,0,0,0-2.16,1.21.22.22,0,0,0,.31.31Z" transform="translate(-58.21 -112.48)" style="fill:#684018"/><path d="M268.14,213.88a5.36,5.36,0,0,1,2.17-1.39.23.23,0,0,0,.15-.28.22.22,0,0,0-.27-.15,6,6,0,0,0-2.37,1.5c-.2.21.11.53.32.32Z" transform="translate(-58.21 -112.48)" style="fill:#684018"/><path d="M267.41,212.7l.12-.14.07-.06.2-.12.14,0,.18,0h.23c.11,0,0,0,0,0l.19.05a.22.22,0,0,0,.27-.16.23.23,0,0,0-.15-.28,1.53,1.53,0,0,0-1.62.48.23.23,0,0,0,0,.32.24.24,0,0,0,.32,0Z" transform="translate(-58.21 -112.48)" style="fill:#684018"/><path d="M269.17,210.88a12.55,12.55,0,0,1,4.83-4.25c1.05-.59,2.13-1.13,3.2-1.69l3.68-1.9,4.14-2.15c.26-.13,0-.52-.23-.39l-7.49,3.88a36.44,36.44,0,0,0-6.07,3.54,10,10,0,0,0-2.45,2.74c-.15.25.24.47.39.22Z" transform="translate(-58.21 -112.48)" style="fill:#684018"/><path d="M281.22,200.34a21.39,21.39,0,0,1-3.57,4c-.22.19.1.5.32.31a21.57,21.57,0,0,0,3.64-4.05c.16-.24-.23-.46-.39-.23Z" transform="translate(-58.21 -112.48)" style="fill:#684018"/><path d="M259.35,169.24a39.53,39.53,0,0,1,11.46,7.21c1,.86,1.87,1.76,2.74,2.71.2.22.51-.1.32-.32a39.89,39.89,0,0,0-5.07-4.65,39.47,39.47,0,0,0-5.82-3.74,37.51,37.51,0,0,0-3.52-1.64c-.26-.11-.38.32-.11.43Z" transform="translate(-58.21 -112.48)" style="fill:#684018"/><path d="M277.37,175.64c-1,1.34-2.48,2.19-3.68,3.31a5.93,5.93,0,0,0-1.44,1.86,6.52,6.52,0,0,0-.41,3q.27,7.13,1,14.21.44,4,1,7.94c0,.28.48.16.44-.12q-1-7-1.56-14c-.18-2.35-.32-4.69-.42-7a9.72,9.72,0,0,1,.16-3.36,4.77,4.77,0,0,1,1.23-1.9c1.28-1.3,2.94-2.18,4-3.67.18-.23-.22-.46-.39-.23Z" transform="translate(-58.21 -112.48)" style="fill:#684018"/><path d="M232.32,212.4a26.35,26.35,0,0,1,11,1.09,27.27,27.27,0,0,1,2.93,1.13c.26.12.49-.26.23-.38a26.85,26.85,0,0,0-11-2.46,25.8,25.8,0,0,0-3.17.17c-.28,0-.29.48,0,.45Z" transform="translate(-58.21 -112.48)" style="fill:#684018"/><path d="M235.1,213.69a12,12,0,0,1,2.46.28c.28.06.4-.37.11-.43a12.36,12.36,0,0,0-2.57-.3c-.29,0-.29.44,0,.45Z" transform="translate(-58.21 -112.48)" style="fill:#684018"/><path d="M275.55,193.25l.27,2.75a.24.24,0,0,0,.23.23.22.22,0,0,0,.22-.23l-.27-2.75a.23.23,0,0,0-.23-.22.22.22,0,0,0-.22.22Z" transform="translate(-58.21 -112.48)" style="fill:#684018"/><path d="M277.62,193.54a4.13,4.13,0,0,1,.23,1.78.22.22,0,0,0,.23.22.22.22,0,0,0,.22-.22,4.55,4.55,0,0,0-.24-1.9.23.23,0,0,0-.28-.15.23.23,0,0,0-.16.27Z" transform="translate(-58.21 -112.48)" style="fill:#684018"/><path d="M276.46,185.5c.1.53.2,1.06.29,1.6a.23.23,0,0,0,.28.15.21.21,0,0,0,.15-.27c-.09-.54-.19-1.07-.28-1.6a.23.23,0,0,0-.28-.16.25.25,0,0,0-.16.28Z" transform="translate(-58.21 -112.48)" style="fill:#684018"/><path d="M275.1,187.33l.23,1.15a.22.22,0,1,0,.43-.12c-.07-.38-.15-.76-.23-1.14a.22.22,0,0,0-.28-.16.22.22,0,0,0-.15.27Z" transform="translate(-58.21 -112.48)" style="fill:#684018"/><path d="M280.25,219.86l1.84-.92a.23.23,0,0,0,.08-.31.23.23,0,0,0-.31-.08l-1.83.92a.23.23,0,0,0-.08.31.22.22,0,0,0,.3.08Z" transform="translate(-58.21 -112.48)" style="fill:#684018"/><path d="M282.74,221.29l1.38-.47a.21.21,0,0,0,.15-.27.22.22,0,0,0-.27-.16l-1.38.46a.23.23,0,1,0,.12.44Z" transform="translate(-58.21 -112.48)" style="fill:#684018"/><path d="M272.94,170.06a9.76,9.76,0,0,0,2.07-1.48c.21-.2-.11-.52-.32-.32a8.91,8.91,0,0,1-2,1.41c-.26.13,0,.52.23.39Z" transform="translate(-58.21 -112.48)" style="fill:#b7782f"/><path d="M275,171.4l1.39-.9a.23.23,0,0,0,.08-.31.23.23,0,0,0-.31-.08l-1.39.9a.25.25,0,0,0-.08.31.23.23,0,0,0,.31.08Z" transform="translate(-58.21 -112.48)" style="fill:#b7782f"/><path d="M211.77,181.25l1.8,1c.25.14.48-.25.23-.39l-1.8-1c-.25-.14-.48.25-.23.39Z" transform="translate(-58.21 -112.48)" style="fill:#b7782f"/><path d="M212.18,180.31a5.45,5.45,0,0,0,2.4,1.2c.28.06.4-.37.12-.43a4.86,4.86,0,0,1-2.2-1.09c-.22-.19-.54.13-.32.32Z" transform="translate(-58.21 -112.48)" style="fill:#b7782f"/><path d="M222.8,172.52l.1.07,0,0s0,0,0,0l.16.14a3,3,0,0,1,.3.32l0,0,.07.1.12.18a2,2,0,0,1,.11.2l0,.09,0,.05v0a.23.23,0,0,0,.28.15.22.22,0,0,0,.15-.27,3.44,3.44,0,0,0-1.24-1.53.24.24,0,0,0-.31.08.24.24,0,0,0,.08.31Z" transform="translate(-58.21 -112.48)" style="fill:#684018"/><path d="M225.24,172.46l7.83-2.94c.27-.1.15-.54-.12-.43L225.12,172c-.27.1-.15.53.12.43Z" transform="translate(-58.21 -112.48)" style="fill:#684018"/><path d="M211.72,189.41a3.13,3.13,0,0,0-.75,1.77.23.23,0,0,0,.22.23.24.24,0,0,0,.23-.23,2.7,2.7,0,0,1,.62-1.45.23.23,0,0,0-.32-.32Z" transform="translate(-58.21 -112.48)" style="fill:#684018"/><path d="M213.5,190c-.15.46-.3.92-.46,1.38a.25.25,0,0,0,.16.28.23.23,0,0,0,.28-.16l.46-1.38a.21.21,0,0,0-.16-.27.23.23,0,0,0-.28.15Z" transform="translate(-58.21 -112.48)" style="fill:#684018"/><path d="M217.24,183.21l-.92,1.15a.22.22,0,0,0,0,.31.22.22,0,0,0,.32,0l.92-1.14a.24.24,0,0,0,0-.32.22.22,0,0,0-.32,0Z" transform="translate(-58.21 -112.48)" style="fill:#684018"/><path d="M215.12,181c-.36.62-.73,1.24-1.09,1.87a.23.23,0,0,0,.39.23l1.09-1.88c.15-.25-.24-.47-.39-.22Z" transform="translate(-58.21 -112.48)" style="fill:#684018"/><path d="M254,199.4c-.1.61-.19,1.22-.29,1.83a.24.24,0,0,0,.16.28.23.23,0,0,0,.28-.16c.09-.61.19-1.22.28-1.83a.24.24,0,0,0-.15-.28.23.23,0,0,0-.28.16Z" transform="translate(-58.21 -112.48)" style="fill:#684018"/><path d="M256.8,198.16l.42.94a.23.23,0,0,0,.31.08.24.24,0,0,0,.08-.31c-.14-.31-.28-.62-.43-.93a.21.21,0,0,0-.3-.08.22.22,0,0,0-.08.3Z" transform="translate(-58.21 -112.48)" style="fill:#684018"/><path d="M260.85,190.26v1.38a.23.23,0,0,0,.22.23.24.24,0,0,0,.23-.23v-1.38a.23.23,0,0,0-.45,0Z" transform="translate(-58.21 -112.48)" style="fill:#684018"/><path d="M259,187.9c-.15.61-.29,1.23-.44,1.84a.24.24,0,0,0,.16.28.23.23,0,0,0,.28-.16c.14-.61.29-1.23.43-1.84a.23.23,0,0,0-.15-.28.23.23,0,0,0-.28.16Z" transform="translate(-58.21 -112.48)" style="fill:#684018"/><path d="M230.31,182.8a4.34,4.34,0,0,0-.74,2.17.22.22,0,0,0,.22.23A.23.23,0,0,0,230,185a3.82,3.82,0,0,1,.68-1.95.21.21,0,0,0-.08-.3.23.23,0,0,0-.31.08Z" transform="translate(-58.21 -112.48)" style="fill:#684018"/><path d="M231.37,186.05l-.39,1.63a.23.23,0,0,0,.44.12l.39-1.63a.23.23,0,0,0-.44-.12Z" transform="translate(-58.21 -112.48)" style="fill:#684018"/><path d="M226.82,189.21a3.58,3.58,0,0,0-.44,2.2.23.23,0,0,0,.22.23.24.24,0,0,0,.23-.23,3.15,3.15,0,0,1,.38-2,.23.23,0,0,0-.39-.23Z" transform="translate(-58.21 -112.48)" style="fill:#684018"/><path d="M80,208.19a35.86,35.86,0,0,0-12.1,2.5c-1.08.43-2.15.91-3.18,1.44-.26.13,0,.52.22.39a35.61,35.61,0,0,1,11.6-3.61,33.58,33.58,0,0,1,3.46-.27c.29,0,.29-.46,0-.45Z" transform="translate(-58.21 -112.48)" style="fill:#26353f"/><path d="M65.25,210.07l3.7.57c.28.05.41-.39.12-.43l-3.7-.58c-.28,0-.4.39-.12.44Z" transform="translate(-58.21 -112.48)" style="fill:#26353f"/><path d="M83.81,182.12A60.61,60.61,0,0,1,87,191.18a53.86,53.86,0,0,1,1.69,9.58,45.75,45.75,0,0,1,.14,5.36c0,.29.44.29.45,0a48.37,48.37,0,0,0-.68-9.68A57.67,57.67,0,0,0,86.21,187c-.6-1.71-1.27-3.4-2-5-.12-.27-.51,0-.39.22Z" transform="translate(-58.21 -112.48)" style="fill:#26353f"/><path d="M84.61,182.77a67.72,67.72,0,0,1,6-5,36.57,36.57,0,0,1,6.71-4,24.56,24.56,0,0,1,4.08-1.4.22.22,0,0,0-.12-.43,27.17,27.17,0,0,0-7.18,3,48,48,0,0,0-6.48,4.59c-1.13.93-2.23,1.91-3.31,2.9-.21.2.11.52.32.32Z" transform="translate(-58.21 -112.48)" style="fill:#26353f"/><path d="M78,194.94l-1.81,2.54a.22.22,0,1,0,.38.23c.61-.85,1.22-1.69,1.82-2.54a.23.23,0,0,0-.08-.31.24.24,0,0,0-.31.08Z" transform="translate(-58.21 -112.48)" style="fill:#26353f"/><path d="M79,195.92c-.42,1-.85,2-1.27,2.93a.23.23,0,0,0,.08.31.21.21,0,0,0,.3-.08c.43-1,.86-2,1.28-2.93a.24.24,0,0,0-.08-.31.23.23,0,0,0-.31.08Z" transform="translate(-58.21 -112.48)" style="fill:#26353f"/><path d="M187.18,159.56a36.18,36.18,0,0,1,1.81,6.77,4.14,4.14,0,0,1,.12,1.4.49.49,0,0,1-.31.41.86.86,0,0,1-.67-.17,3.29,3.29,0,0,1-.94-1.09,13.4,13.4,0,0,1-.73-1.47c-.56-1.2-1.07-2.43-1.52-3.68l-.41.17a23.38,23.38,0,0,1,1,2.8c.29,1,.55,1.91.77,2.87a1.56,1.56,0,0,1-.12,1.25.65.65,0,0,1-.94.12,3.23,3.23,0,0,1-.84-1c-.27-.4-.53-.8-.77-1.21a20.68,20.68,0,0,1-1.4-2.88l-.41.17a23.36,23.36,0,0,1,1.87,6,8.87,8.87,0,0,1,.18,1.53.6.6,0,0,1-.23.53.67.67,0,0,1-.5.06,2.35,2.35,0,0,1-1.1-.87,10.33,10.33,0,0,1-.91-1.16,11.58,11.58,0,0,1-1.45-2.9c-.09-.27-.53-.16-.43.12a12.38,12.38,0,0,0,1.4,2.88,13.08,13.08,0,0,0,1,1.26,3.49,3.49,0,0,0,1.2,1,1.13,1.13,0,0,0,1.22-.16c.4-.38.29-1,.23-1.46a23.38,23.38,0,0,0-.68-3.41,24.3,24.3,0,0,0-1.37-3.68c-.11-.22-.51-.06-.42.18a21.63,21.63,0,0,0,1.38,2.87c.27.46.56.91.86,1.35a3.86,3.86,0,0,0,.94,1.07,1.14,1.14,0,0,0,1.19.12,1.33,1.33,0,0,0,.65-1,4.62,4.62,0,0,0-.25-1.6c-.13-.53-.27-1.05-.42-1.57a24.63,24.63,0,0,0-1.24-3.53c-.1-.23-.49-.06-.41.18.45,1.21.94,2.42,1.48,3.59a6.82,6.82,0,0,0,1.81,2.83,1.18,1.18,0,0,0,1.4.17,1.33,1.33,0,0,0,.38-1.22c-.06-.61-.18-1.21-.29-1.81s-.25-1.23-.4-1.84a35.16,35.16,0,0,0-1.27-4.13c-.1-.27-.53-.15-.43.12Z" transform="translate(-58.21 -112.48)" style="fill:#7f4a24"/><path d="M184,171.66a8.27,8.27,0,0,1,2.75,5.38c0,.28.48.29.45,0a8.72,8.72,0,0,0-2.88-5.7c-.22-.19-.54.13-.32.32Z" transform="translate(-58.21 -112.48)" style="fill:#7f4a24"/><path d="M192,166.76c-.46,1.62-1.8,2.79-2.79,4.09a6.28,6.28,0,0,0-1.14,2.19,8.17,8.17,0,0,0,0,3.23c.19,1.3.4,2.6.6,3.89,0,.29.48.17.43-.12l-.54-3.47a9.07,9.07,0,0,1-.11-3.2c.34-1.67,1.65-2.86,2.66-4.13a7.06,7.06,0,0,0,1.32-2.36.23.23,0,0,0-.44-.12Z" transform="translate(-58.21 -112.48)" style="fill:#7f4a24"/><path d="M186.51,183.56c1.39-.51,2.77-1.08,4.11-1.72.26-.13,0-.52-.23-.39-1.31.62-2.64,1.18-4,1.68-.27.1-.16.53.12.43Z" transform="translate(-58.21 -112.48)" style="fill:#7f4a24"/><path d="M228.15,231.51a67.83,67.83,0,0,0,7.81,0c.29,0,.29-.46,0-.45a67.83,67.83,0,0,1-7.81,0c-.29,0-.29.43,0,.45Z" transform="translate(-58.21 -112.48)" style="fill:#7f4a24"/><path d="M233.71,224.82a29.55,29.55,0,0,0,3,7.91c.14.26.53,0,.39-.23a29.08,29.08,0,0,1-3-7.8c-.06-.28-.5-.17-.43.12Z" transform="translate(-58.21 -112.48)" style="fill:#7f4a24"/><path d="M223.56,176.11a10.23,10.23,0,0,1-1,2.68c-.47.91-1,1.81-1.46,2.71-1,1.85-2,3.69-3,5.53l-1.71,3.16c-.14.26.25.48.39.23l3-5.63c1-1.85,2-3.7,3-5.56a11.57,11.57,0,0,0,1.18-3c.05-.28-.38-.4-.44-.12Z" transform="translate(-58.21 -112.48)" style="fill:#684018"/><path d="M82.73,230c.77,1.34,1.59,2.64,2.48,3.9.16.24.55,0,.39-.23q-1.34-1.89-2.48-3.9c-.14-.25-.53,0-.39.23Z" transform="translate(-58.21 -112.48)" style="fill:#b17245"/><path d="M138.71,212.51a69.28,69.28,0,0,1,7.5-1.92,66.36,66.36,0,0,1,7.69-1c1.45-.11,2.91-.17,4.37-.19a.23.23,0,0,0,0-.45,68,68,0,0,0-15.44,2c-1.42.35-2.84.75-4.24,1.2-.28.09-.16.52.12.43Z" transform="translate(-58.21 -112.48)" style="fill:#26353f"/><path d="M155.16,207.77a1.68,1.68,0,0,0-1.14.16l-1.26.46-2.47.92c-.27.09-.16.53.12.43l2.33-.86,1.15-.43c.35-.12.78-.37,1.15-.25s.4-.34.12-.43Z" transform="translate(-58.21 -112.48)" style="fill:#26353f"/><path d="M143,179.74q2.57,5.74,5.14,11.5a61.43,61.43,0,0,1,4.07,10.88,23,23,0,0,1,.63,6.4c0,.29.43.29.45,0a28.35,28.35,0,0,0-2.15-11.34c-.69-1.84-1.48-3.63-2.28-5.42s-1.71-3.83-2.56-5.75l-2.91-6.5c-.12-.26-.51,0-.39.23Z" transform="translate(-58.21 -112.48)" style="fill:#26353f"/><path d="M133.1,169.41a54.06,54.06,0,0,1,9.68,3.11,55.44,55.44,0,0,1,8.92,4.86,53.62,53.62,0,0,1,4.55,3.43c.22.18.54-.13.32-.32a54.78,54.78,0,0,0-8.43-5.83,55.55,55.55,0,0,0-9.37-4.15,53.64,53.64,0,0,0-5.55-1.53c-.28-.06-.4.37-.12.43Z" transform="translate(-58.21 -112.48)" style="fill:#26353f"/><path d="M159.57,179.25a7.75,7.75,0,0,0-2.85,1.29,9.23,9.23,0,0,0-2.1,2.22,22.85,22.85,0,0,0-1.56,2.77c-.51,1-1,2-1.46,3a17.15,17.15,0,0,0-1.16,3.64c-.05.28.38.4.44.12a23.22,23.22,0,0,1,2.36-6.15,14.63,14.63,0,0,1,3.41-5,7.51,7.51,0,0,1,3-1.48c.29-.06.17-.5-.12-.43Z" transform="translate(-58.21 -112.48)" style="fill:#26353f"/><path d="M145.32,181.23a14.7,14.7,0,0,1-.15,3.31c0,.28.39.4.43.12a14.63,14.63,0,0,0,.17-3.43c0-.29-.47-.29-.45,0Z" transform="translate(-58.21 -112.48)" style="fill:#26353f"/><path d="M141.66,198.08a5.71,5.71,0,0,0,.14,2.06.22.22,0,0,0,.43-.12,5.74,5.74,0,0,1-.12-1.94c0-.12-.11-.22-.22-.22a.23.23,0,0,0-.23.22Z" transform="translate(-58.21 -112.48)" style="fill:#26353f"/><path d="M143.16,199.31a5.46,5.46,0,0,0,.36,1.43.24.24,0,0,0,.28.16.25.25,0,0,0,.16-.28,4.26,4.26,0,0,1-.22-.66c0-.11-.06-.22-.08-.33l0-.18s0-.07,0-.14a.22.22,0,0,0-.22-.22.23.23,0,0,0-.23.22Z" transform="translate(-58.21 -112.48)" style="fill:#26353f"/><path d="M144,191.39l.57,1.86c.09.27.52.15.43-.12l-.57-1.85c-.08-.28-.52-.16-.43.11Z" transform="translate(-58.21 -112.48)" style="fill:#26353f"/><path d="M153.74,198.76l.18,1.22a.23.23,0,0,0,.44-.12c-.07-.41-.13-.81-.19-1.22a.23.23,0,0,0-.28-.16.24.24,0,0,0-.15.28Z" transform="translate(-58.21 -112.48)" style="fill:#26353f"/><path d="M155.61,196l.26,1.08a.25.25,0,0,0,.28.16.24.24,0,0,0,.16-.28l-.26-1.08a.23.23,0,0,0-.28-.16.23.23,0,0,0-.16.28Z" transform="translate(-58.21 -112.48)" style="fill:#26353f"/><path d="M157.79,189.86l.29,2a.23.23,0,0,0,.28.15.23.23,0,0,0,.16-.27l-.3-2a.22.22,0,0,0-.43.12Z" transform="translate(-58.21 -112.48)" style="fill:#26353f"/><path d="M159.41,202.92a2.49,2.49,0,0,0-.12,1.35.24.24,0,0,0,.28.16.25.25,0,0,0,.16-.28s0-.06,0-.09,0,.05,0,0a.86.86,0,0,1,0-.16c0-.1,0-.2,0-.3s0-.08,0,0a.15.15,0,0,1,0-.07l0-.15a2.46,2.46,0,0,1,.09-.29.22.22,0,0,0-.15-.28.24.24,0,0,0-.28.16Z" transform="translate(-58.21 -112.48)" style="fill:#26353f"/><path d="M142.86,216.24a10.24,10.24,0,0,1,3.77-.46c.29,0,.29-.43,0-.45a10.89,10.89,0,0,0-3.89.47.23.23,0,0,0,.12.44Z" transform="translate(-58.21 -112.48)" style="fill:#26353f"/><path d="M146.58,219.57l.09-.06.05,0a.9.9,0,0,1,.22-.06h.13l.11,0a.22.22,0,0,0,.27-.16.23.23,0,0,0-.15-.28,1.18,1.18,0,0,0-1,.16.32.32,0,0,0-.1.13.28.28,0,0,0,0,.18.24.24,0,0,0,.31.08Z" transform="translate(-58.21 -112.48)" style="fill:#26353f"/><path d="M146.53,223l1.07-.17a.22.22,0,0,0,.16-.28.23.23,0,0,0-.28-.15l-1.07.17a.22.22,0,0,0,.12.43Z" transform="translate(-58.21 -112.48)" style="fill:#26353f"/><path d="M153.27,220l1.22-.32a.23.23,0,0,0,.16-.28.24.24,0,0,0-.28-.16l-1.22.33a.22.22,0,1,0,.12.43Z" transform="translate(-58.21 -112.48)" style="fill:#26353f"/><path d="M149.8,225.38l.06,0h0l.12,0,.13,0h.07a1.38,1.38,0,0,1,.28,0h.09a.5.5,0,0,1,.13,0,.24.24,0,0,0,.28-.16.23.23,0,0,0-.16-.28,1.93,1.93,0,0,0-1.25.15.23.23,0,0,0-.08.31.23.23,0,0,0,.31.08Z" transform="translate(-58.21 -112.48)" style="fill:#26353f"/><path d="M121,231.65l1.85-.22a.22.22,0,0,0,.22-.23.22.22,0,0,0-.22-.22l-1.85.22a.25.25,0,0,0-.23.23.22.22,0,0,0,.23.22Z" transform="translate(-58.21 -112.48)" style="fill:#26353f"/><path d="M123.84,230.12l1.39-.28a.23.23,0,0,0-.12-.44l-1.39.29a.22.22,0,0,0,.12.43Z" transform="translate(-58.21 -112.48)" style="fill:#26353f"/><path d="M89.06,187.27l.5,1.83A.22.22,0,0,0,90,189c-.17-.61-.33-1.22-.5-1.82a.22.22,0,0,0-.43.11Z" transform="translate(-58.21 -112.48)" style="fill:#26353f"/><path d="M90.81,188.48l.29,1.08a.22.22,0,1,0,.43-.12l-.29-1.08a.22.22,0,0,0-.43.12Z" transform="translate(-58.21 -112.48)" style="fill:#26353f"/><path d="M92.05,192.37a2.88,2.88,0,0,1,.26,1.42.23.23,0,0,0,.23.23.24.24,0,0,0,.22-.23,3.36,3.36,0,0,0-.32-1.65.23.23,0,0,0-.31-.08.24.24,0,0,0-.08.31Z" transform="translate(-58.21 -112.48)" style="fill:#26353f"/><path d="M92,182.35c.1.31.19.62.29.93a.23.23,0,0,0,.28.15.21.21,0,0,0,.15-.27c-.09-.31-.19-.62-.28-.93a.25.25,0,0,0-.28-.16.24.24,0,0,0-.16.28Z" transform="translate(-58.21 -112.48)" style="fill:#26353f"/><path d="M135,156.27a.81.81,0,0,1,.85-.47.8.8,0,0,1,.66.72.56.56,0,0,1,.8.09,1,1,0,0,1,.09.87,1.41,1.41,0,1,1-2.28-1.51Z" transform="translate(-58.21 -112.48)" style="fill:#dc4445"/><path d="M134.41,155.41a3.77,3.77,0,0,0,3.55,2.78.23.23,0,0,0,0-.45,3.3,3.3,0,0,1-3.11-2.45c-.07-.28-.51-.16-.44.12Z" transform="translate(-58.21 -112.48)" style="fill:#b17245"/><path d="M182.29,208.26c2.42-.74,4.83-1.52,7.21-2.36s4.77-1.75,7.13-2.7,4.66-1.95,7-3,4.57-2.16,6.82-3.32,4.49-2.37,6.7-3.64l.81-.46a.23.23,0,0,0-.23-.39c-2.19,1.27-4.4,2.49-6.65,3.66s-4.49,2.28-6.77,3.34-4.62,2.09-7,3.05-4.68,1.86-7.05,2.71-4.78,1.65-7.19,2.4l-.9.27a.23.23,0,0,0,.12.44Z" transform="translate(-58.21 -112.48)" style="fill:#c2b48c"/><path d="M207.86,203.71q-1.23,6.06-2.1,12.19t-1.38,12.21q-.3,3.45-.48,6.91c0,.28.44.28.45,0q.33-6.15,1-12.26c.44-4.06,1-8.1,1.68-12.12q.57-3.42,1.26-6.81c.06-.29-.38-.41-.43-.12Z" transform="translate(-58.21 -112.48)" style="fill:#c2b48c"/><path d="M208.16,211.79q-.37,7.1-1.12,14.17c-.14,1.33-.29,2.66-.46,4,0,.29.42.29.45,0q.85-7,1.34-14.15c.09-1.33.17-2.67.24-4,0-.29-.44-.28-.45,0Z" transform="translate(-58.21 -112.48)" style="fill:#c2b48c"/><path d="M215.78,237.93a20,20,0,0,0-.68,4.21c0,.29.44.29.45,0a20.06,20.06,0,0,1,.66-4.09.22.22,0,0,0-.43-.12Z" transform="translate(-58.21 -112.48)" style="fill:#c2b48c"/><path d="M217.41,241.61l-.42,1.16a.23.23,0,0,0,.16.28.23.23,0,0,0,.27-.16l.42-1.16a.23.23,0,0,0-.16-.28.23.23,0,0,0-.27.16Z" transform="translate(-58.21 -112.48)" style="fill:#c2b48c"/><path d="M208,247.1a43.19,43.19,0,0,1,7.1-2.37,70.41,70.41,0,0,0,7.14-2.1,22.87,22.87,0,0,0,3.77-1.8c.24-.15,0-.54-.23-.39a28.3,28.3,0,0,1-6.86,2.81c-2.4.68-4.83,1.23-7.21,2a32.08,32.08,0,0,0-3.93,1.49c-.27.12,0,.51.22.39Z" transform="translate(-58.21 -112.48)" style="fill:#c2b48c"/><path d="M231.54,238.85a6.45,6.45,0,0,1,2.49-1.08c.29-.06.17-.49-.11-.43a6.56,6.56,0,0,0-2.61,1.13.22.22,0,1,0,.23.38Z" transform="translate(-58.21 -112.48)" style="fill:#c2b48c"/><path d="M240.39,118.39a18.91,18.91,0,0,1,8,6.07,36.3,36.3,0,0,1,5.26,9.57c1.52,3.89,2.69,7.92,4.24,11.8a49.86,49.86,0,0,0,5.38,10.09,49,49,0,0,0,7.39,8.43l1.06.94c.22.18.54-.13.32-.32a48.9,48.9,0,0,1-7.7-8.31,49.4,49.4,0,0,1-5.62-10c-1.62-3.88-2.8-7.91-4.28-11.84a39.8,39.8,0,0,0-5.1-9.89,20.53,20.53,0,0,0-7.69-6.52c-.39-.18-.78-.34-1.18-.48s-.39.33-.12.43Z" transform="translate(-58.21 -112.48)" style="fill:#392011"/><path d="M216.11,126a23.28,23.28,0,0,0-3.58,8.21,39.45,39.45,0,0,0-.89,9.13c0,3.21.33,6.39.66,9.58.37,3.49.75,7,.81,10.52A35.84,35.84,0,0,1,212,173.7c-.12.42-.25.83-.39,1.25s.35.39.44.12a33.24,33.24,0,0,0,1.55-10.15,92.37,92.37,0,0,0-.65-10.51c-.34-3.23-.71-6.45-.81-9.7a42.93,42.93,0,0,1,.6-9.2,24,24,0,0,1,3.15-8.38c.21-.32.42-.64.64-.95s-.22-.46-.39-.23Z" transform="translate(-58.21 -112.48)" style="fill:#392011"/><path d="M222.9,126.75a14.22,14.22,0,0,0,2.22,6.53,15.23,15.23,0,0,0,5,4.82,13.78,13.78,0,0,0,3.61,1.5.23.23,0,0,0,.12-.44A13.67,13.67,0,0,1,228,136a14.55,14.55,0,0,1-3.77-5.51,13.35,13.35,0,0,1-.84-3.7c0-.28-.47-.28-.45,0Z" transform="translate(-58.21 -112.48)" style="fill:#392011"/><path d="M247.44,153.35c.14,4.44-1.66,8.69-1.52,13.13h3.83Z" transform="translate(-58.21 -112.48)" style="fill:#dc4445"/><path d="M248.43,153.58a.9.9,0,1,1-.9-.9A.9.9,0,0,1,248.43,153.58Z" transform="translate(-58.21 -112.48)" style="fill:#dc4445"/><path d="M122.06,124.52c1.68-2.92,3.57-6.15,6.92-7.35.51-.19,1.44-.58,1.72.14a.84.84,0,0,1-.25.84,7.12,7.12,0,0,1-.9.92c-.66.57-1.37,1.08-2.07,1.58s-1.43,1-2.18,1.43a13.81,13.81,0,0,1-4.72,1.79,39.16,39.16,0,0,1-4.72.23,11.23,11.23,0,0,0-4.41.83,6.32,6.32,0,0,0-1,.57,2.13,2.13,0,0,0-.7.73c-.37.8.35,1.54,1.1,1.71a4.36,4.36,0,0,0,1.25,0,11.88,11.88,0,0,0,1.32-.16,16.3,16.3,0,0,0,2.58-.67,33.55,33.55,0,0,0,4.84-2.22l1.19-.64-.34-.19a58.47,58.47,0,0,1,.48,7.48.23.23,0,0,0,.45,0,58.47,58.47,0,0,0-.48-7.48.23.23,0,0,0-.34-.2c-3.11,1.7-6.41,3.51-10,3.65a2.28,2.28,0,0,1-1.21-.2.76.76,0,0,1-.4-.94,2.19,2.19,0,0,1,.78-.7,6.08,6.08,0,0,1,1-.51,12.71,12.71,0,0,1,4.5-.67,25.94,25.94,0,0,0,4.74-.32,15.24,15.24,0,0,0,4.73-2c.74-.45,1.45-.94,2.16-1.46a20.67,20.67,0,0,0,2-1.6,6.87,6.87,0,0,0,.85-.94,1.19,1.19,0,0,0,.21-.91,1.13,1.13,0,0,0-.5-.72,1.21,1.21,0,0,0-.95-.12c-3.46.77-5.68,3.79-7.38,6.67-.23.38-.45.76-.67,1.14s.25.48.39.23Z" transform="translate(-58.21 -112.48)" style="fill:#dc4445"/><path d="M122,124c1,1,2,2.05,3,3a5.78,5.78,0,0,0,3.2,1.64c.29,0,.29-.43,0-.45a5.43,5.43,0,0,1-3-1.63c-1-.91-1.92-1.91-2.87-2.87-.2-.21-.52.11-.32.32Z" transform="translate(-58.21 -112.48)" style="fill:#dc4445"/><g style="opacity:0.28"><path d="M229.22,150.75a5.51,5.51,0,0,0,5,2.14,5.34,5.34,0,0,0,1.37-.28,5.17,5.17,0,0,0,2.52-2.49,8,8,0,0,0,.75-3.51,1.87,1.87,0,0,0-.11-.75c-.32-.75-1.33-.86-2.14-.8a19.6,19.6,0,0,0-7,1.86l-.05,0a2.14,2.14,0,0,0-.86,3.09C228.85,150.25,229,150.5,229.22,150.75Z" transform="translate(-58.21 -112.48)" style="fill:#fff"/></g><g style="opacity:0.28"><path d="M223.35,151a5.54,5.54,0,0,1-4.14,3.5,5,5,0,0,1-1.39.13,5.12,5.12,0,0,1-3.13-1.65,7.84,7.84,0,0,1-1.74-3.14,1.74,1.74,0,0,1-.11-.75c.08-.81,1-1.2,1.81-1.38a19.55,19.55,0,0,1,7.19-.25h.06a2.15,2.15,0,0,1,1.73,2.71C223.56,150.42,223.46,150.7,223.35,151Z" transform="translate(-58.21 -112.48)" style="fill:#fff"/></g><path d="M228.71,150.8a6,6,0,0,0,5.29,2.27,5.79,5.79,0,0,0,1.54-.32,4.76,4.76,0,0,0,1.3-.82,6.28,6.28,0,0,0,1.75-2.58,8.06,8.06,0,0,0,.4-1.68,6.83,6.83,0,0,0,.08-1.69,1.66,1.66,0,0,0-.76-1.29,2.74,2.74,0,0,0-1.28-.36,8.34,8.34,0,0,0-1.5.09c-.6.07-1.2.17-1.79.29a19.3,19.3,0,0,0-3.32,1,4,4,0,0,0-2.41,1.69,2.65,2.65,0,0,0,.13,2.6c.16.23.33.46.5.68a.47.47,0,0,0,.62.17.46.46,0,0,0,.16-.62c-.16-.21-.32-.42-.46-.64a1.91,1.91,0,0,1-.25-.46,1.4,1.4,0,0,1-.08-.47,1.13,1.13,0,0,1,0-.26c0-.15,0,.08,0-.07l0-.14a1.72,1.72,0,0,1,.46-.82,3.59,3.59,0,0,1,1.09-.61,18.79,18.79,0,0,1,6-1.53,4,4,0,0,1,.6,0,1.83,1.83,0,0,1,.5.05,1.32,1.32,0,0,1,.45.15.66.66,0,0,1,.27.25,1,1,0,0,1,.11.56,6.66,6.66,0,0,1,0,.77,7.29,7.29,0,0,1-.24,1.46,5.68,5.68,0,0,1-1.27,2.4,4.5,4.5,0,0,1-1,.81,3.08,3.08,0,0,1-1.12.41,5.47,5.47,0,0,1-2.92-.22,5.18,5.18,0,0,1-2.27-1.71.46.46,0,0,0-.64,0A.47.47,0,0,0,228.71,150.8Z" transform="translate(-58.21 -112.48)" style="fill:#dc4445"/><path d="M222.77,150.58a5.19,5.19,0,0,1-3.35,3.08,6.93,6.93,0,0,1-1.35.23,3.31,3.31,0,0,1-1.21-.2,5,5,0,0,1-2.13-1.47,7.16,7.16,0,0,1-1.38-2.43,6.2,6.2,0,0,1-.21-.7,1,1,0,0,1,0-.3c0,.08,0-.06,0-.06a.16.16,0,0,1,0-.09s0,0,0,0a1,1,0,0,1,.29-.32l0,0,.11-.07L214,148a8.08,8.08,0,0,1,1.2-.31c.51-.1,1-.18,1.54-.23a19,19,0,0,1,3.29-.07,11.55,11.55,0,0,1,1.76.19,1.75,1.75,0,0,1,1,.56,1.79,1.79,0,0,1,.41,1,1.71,1.71,0,0,1-.07.6c-.07.27-.17.55-.27.82a.45.45,0,0,0,.31.55.46.46,0,0,0,.55-.31,4.73,4.73,0,0,0,.38-1.51,2.52,2.52,0,0,0-.36-1.34,2.6,2.6,0,0,0-1-.95,4.32,4.32,0,0,0-1.55-.39,19.89,19.89,0,0,0-3.62-.1c-.61,0-1.22.11-1.83.2a11.91,11.91,0,0,0-1.64.33c-.87.26-1.82.84-1.81,1.87a4.85,4.85,0,0,0,.47,1.66,8.7,8.7,0,0,0,.76,1.45,6.44,6.44,0,0,0,2.33,2.16,5,5,0,0,0,1.5.53,4.61,4.61,0,0,0,1.57,0,6,6,0,0,0,4.47-3.19,4.54,4.54,0,0,0,.3-.68.45.45,0,1,0-.86-.24Z" transform="translate(-58.21 -112.48)" style="fill:#dc4445"/><path d="M223.9,149.23a3.16,3.16,0,0,1,1.73-1.31,2.62,2.62,0,0,1,2,.78.45.45,0,0,0,.64-.64,3.59,3.59,0,0,0-2.64-1,3.71,3.71,0,0,0-2.37,1.57.48.48,0,0,0,0,.64.46.46,0,0,0,.64,0Z" transform="translate(-58.21 -112.48)" style="fill:#dc4445"/><path d="M238.89,145.75a4.15,4.15,0,0,1,1.36-.53l1.65-.47a.45.45,0,0,0,.31-.55.46.46,0,0,0-.55-.32l-1.71.49a4.88,4.88,0,0,0-1.52.6.47.47,0,0,0-.16.62.47.47,0,0,0,.62.16Z" transform="translate(-58.21 -112.48)" style="fill:#dc4445"/><path d="M239.19,122.65a3.26,3.26,0,0,0-4.33-1.52,136.42,136.42,0,0,0-17.63,5.75,5.62,5.62,0,0,0-2.95,2,5.34,5.34,0,0,0-.45,3.07,50.1,50.1,0,0,0,2.81,12.21l.07.06q3.25-7.66,6.49-15.32c1.89,4,5.7,6.83,9.62,8.94.91.49,1.84,1,2.77,1.4a14.26,14.26,0,0,1,8,14.12c0,.14,0,.29,0,.43a25.58,25.58,0,0,0,1.09-9.71s-.08,0,0,.06a4.2,4.2,0,0,1,6-.8A87.68,87.68,0,0,0,239.19,122.65Z" transform="translate(-58.21 -112.48)" style="fill:#392011"/></svg>