<svg id="Layer_1" data-name="Layer 1" xmlns="http://www.w3.org/2000/svg" xmlns:xlink="http://www.w3.org/1999/xlink" viewBox="0 0 188.03 134.86"><defs><clipPath id="clip-path" transform="translate(-85.99 -113.2)"><path d="M196.86,172.63c-10.16-4.37-22.43-2.33-32.38,2.44-3.95,1.91-7.77,4.3-10.27,7.69-4.15,5.62-14.27,22.83-13.16,38.48.32,4.56,3.51,9.39,3.23,13.95,3.42,1.36,7.35.31,11.07.5a39.58,39.58,0,0,1,7.54,1.47,89.9,89.9,0,0,0,39.94.66,26.9,26.9,0,0,0,8.58-3c4.21-2.59,6.72-6.94,8.54-11.27a61.31,61.31,0,0,0,4.84-23.13,25.69,25.69,0,0,0-.95-8,25,25,0,0,0-5.94-9.31,47.39,47.39,0,0,0-6.06-5.4,22.82,22.82,0,0,0-10.14-4.25Z" style="fill:#4d8aaf"/></clipPath></defs><path d="M196.86,172.63c-10.16-4.37-22.43-2.33-32.38,2.44-3.95,1.91-7.77,4.3-10.27,7.69-4.15,5.62-14.27,22.83-13.16,38.48.32,4.56,3.51,9.39,3.23,13.95,3.42,1.36,7.35.31,11.07.5a39.58,39.58,0,0,1,7.54,1.47,89.9,89.9,0,0,0,39.94.66,26.9,26.9,0,0,0,8.58-3c4.21-2.59,6.72-6.94,8.54-11.27a61.31,61.31,0,0,0,4.84-23.13,25.69,25.69,0,0,0-.95-8,25,25,0,0,0-5.94-9.31,47.39,47.39,0,0,0-6.06-5.4,22.82,22.82,0,0,0-10.14-4.25Z" transform="translate(-85.99 -113.2)" style="fill:#4d8aaf"/><g style="clip-path:url(#clip-path)"><path d="M162.39,228.27a11.4,11.4,0,0,0,4.12-2.65,6.84,6.84,0,0,1,1.72-1.36,1.92,1.92,0,0,1,1-.24c.44,0-.07.58-.2.72a11.84,11.84,0,0,1-2.25,1.93.34.34,0,0,0,.26.61l1.31-.38a6.17,6.17,0,0,1,1.27-.3,1.2,1.2,0,0,1,1,.26.57.57,0,0,1,.15.74,1.27,1.27,0,0,1-.77.39,12,12,0,0,1-1.2.2,15.39,15.39,0,0,1-2.63.09l.09.65c.76-.11,1.84-.2,2.29.57a.89.89,0,0,1,.07.9.84.84,0,0,1-.93.27,3.94,3.94,0,0,1-1.15-.5l-1.43-.84-2.85-1.67a.33.33,0,0,0-.33.58l2.75,1.61a14.05,14.05,0,0,0,2.56,1.38,1.59,1.59,0,0,0,2-.52,1.66,1.66,0,0,0-.4-1.94,3.18,3.18,0,0,0-2.73-.48c-.38.06-.26.64.09.65a15.29,15.29,0,0,0,3.24-.17c.75-.12,1.87-.28,2.08-1.17a1.48,1.48,0,0,0-1.4-1.66,4,4,0,0,0-1.52.22l-1.68.48c.08.2.17.4.26.6a12.68,12.68,0,0,0,2.28-1.92,2.11,2.11,0,0,0,.67-1.11.76.76,0,0,0-.7-.84,3.24,3.24,0,0,0-2.31.84c-.71.55-1.29,1.23-2,1.8a9.63,9.63,0,0,1-2.88,1.62c-.4.15-.23.79.17.64Z" transform="translate(-85.99 -113.2)" style="fill:#fff"/><path d="M133.21,233.89a11.4,11.4,0,0,0,4.12-2.65,6.84,6.84,0,0,1,1.72-1.36,1.92,1.92,0,0,1,1-.24c.44,0-.07.58-.2.72a11.84,11.84,0,0,1-2.25,1.93.34.34,0,0,0,.26.61l1.31-.38a6.17,6.17,0,0,1,1.27-.3,1.2,1.2,0,0,1,1,.26.58.58,0,0,1,.16.74,1.33,1.33,0,0,1-.78.39,12,12,0,0,1-1.2.2,15.39,15.39,0,0,1-2.63.09l.09.65c.76-.11,1.84-.2,2.29.57a.86.86,0,0,1,.07.9.84.84,0,0,1-.93.27,3.94,3.94,0,0,1-1.15-.5l-1.42-.84-2.86-1.67a.33.33,0,0,0-.33.58l2.76,1.61a14,14,0,0,0,2.55,1.38,1.59,1.59,0,0,0,2-.52,1.66,1.66,0,0,0-.4-1.94,3.21,3.21,0,0,0-2.73-.48c-.38.06-.26.64.09.65a15.25,15.25,0,0,0,3.24-.17c.75-.12,1.87-.27,2.08-1.17a1.47,1.47,0,0,0-1.39-1.66,4,4,0,0,0-1.53.22l-1.68.48.26.6a12.68,12.68,0,0,0,2.28-1.92,2.07,2.07,0,0,0,.67-1.11.76.76,0,0,0-.7-.84,3.21,3.21,0,0,0-2.31.85c-.7.54-1.29,1.22-2,1.79a9.63,9.63,0,0,1-2.88,1.62c-.4.15-.23.79.17.64Z" transform="translate(-85.99 -113.2)" style="fill:#fff"/><path d="M153.53,225.78a10.12,10.12,0,0,0-1.93-5.71,6.34,6.34,0,0,1-1.4-2.47c0-.31,0-1,.34-1.13s.82.39,1,.65a10.39,10.39,0,0,1,1.77,3c.15.4.78.24.64-.17a7.93,7.93,0,0,1-.36-2.86,2,2,0,0,1,.27-1,.6.6,0,0,1,.9-.09,2.35,2.35,0,0,1,.79,2,8.3,8.3,0,0,1-.45,2.31c-.13.42.48.56.64.18.25-.61.71-1.65,1.56-1.44s.14,1.48-.14,1.9a13.22,13.22,0,0,1-1.77,2c-.73.73-1.47,1.44-2.21,2.16a.33.33,0,0,0,.47.47l2.1-2.06a16.26,16.26,0,0,0,1.8-2,3.09,3.09,0,0,0,.79-2.19,1.26,1.26,0,0,0-1.58-1c-.92.2-1.34,1.11-1.66,1.9l.64.18c.41-1.37.84-3.07,0-4.38a1.63,1.63,0,0,0-1.94-.85A2,2,0,0,0,153,217a8.3,8.3,0,0,0,.38,3.13L154,220a11.7,11.7,0,0,0-1.69-3,3.16,3.16,0,0,0-1.21-1.06,1,1,0,0,0-1.27.33c-.64.88-.2,2.09.31,2.91A31.73,31.73,0,0,1,152,222a9.36,9.36,0,0,1,.89,3.79.33.33,0,0,0,.66,0Z" transform="translate(-85.99 -113.2)" style="fill:#fff"/><path d="M166.59,247.74a10.18,10.18,0,0,0-1.93-5.72,6.37,6.37,0,0,1-1.4-2.46c-.06-.32,0-1,.34-1.14s.82.39,1,.66a10.26,10.26,0,0,1,1.77,3c.15.39.78.24.64-.18a7.64,7.64,0,0,1-.36-2.85,2,2,0,0,1,.26-1,.61.61,0,0,1,.91-.09,2.33,2.33,0,0,1,.79,2,8.37,8.37,0,0,1-.45,2.32c-.13.42.48.56.64.18.25-.62.71-1.66,1.56-1.44s.14,1.48-.14,1.89a13.3,13.3,0,0,1-1.77,2.05l-2.21,2.16c-.31.3.16.77.47.47l2.1-2.06a16.1,16.1,0,0,0,1.79-2,3.06,3.06,0,0,0,.8-2.19,1.25,1.25,0,0,0-1.58-1c-.92.2-1.34,1.11-1.66,1.9l.64.18c.41-1.37.84-3.08,0-4.38a1.64,1.64,0,0,0-2-.86A2,2,0,0,0,166,239a8.35,8.35,0,0,0,.38,3.14l.64-.18a11.39,11.39,0,0,0-1.7-3,3.09,3.09,0,0,0-1.2-1.07,1,1,0,0,0-1.27.34c-.64.88-.2,2.08.31,2.91A30.38,30.38,0,0,1,165,244a9.53,9.53,0,0,1,.89,3.79.33.33,0,0,0,.66,0Z" transform="translate(-85.99 -113.2)" style="fill:#fff"/><path d="M169.51,208.18a18.3,18.3,0,0,0-1.74,2.44c-.25.42-.49.85-.7,1.29a2.13,2.13,0,0,0-.38,1.3,1.16,1.16,0,0,0,1.75.57c.81-.53.84-1.55,1.35-2.28l-.61-.26a7.62,7.62,0,0,0,.07,3.26c.18.72.65,1.58,1.47,1.68s1.52-.86,1.46-1.7a4.8,4.8,0,0,0-.43-1.52,13.27,13.27,0,0,0-.69-1.48l-.52.4a5.29,5.29,0,0,0,2.36,1.7c.68.25,2.24.61,2.23-.58a2,2,0,0,0-.66-1.23,14,14,0,0,0-1.16-1.15,21.93,21.93,0,0,0-2.13-1.6l-1.26-.9c-.35-.24-.68.33-.34.58.77.54,1.57,1.06,2.33,1.62A14.63,14.63,0,0,1,174,212.2c.14.15.71.72.43.94s-.84,0-1.08-.12a4.65,4.65,0,0,1-2.31-1.61c-.24-.3-.7.09-.52.41a10.08,10.08,0,0,1,1,2.32,1.29,1.29,0,0,1-.1,1.07.58.58,0,0,1-.68.29c-.55-.2-.76-1-.86-1.48a6.89,6.89,0,0,1,0-2.6.34.34,0,0,0-.61-.26c-.39.58-.45,1.37-.93,1.89a.64.64,0,0,1-.71.23c-.34-.14-.22-.42-.1-.68a17.64,17.64,0,0,1,2.51-3.95C170.26,208.32,169.79,207.85,169.51,208.18Z" transform="translate(-85.99 -113.2)" style="fill:#fff"/><path d="M148.06,235.58a17.24,17.24,0,0,1,7.71-2.13,3.62,3.62,0,0,0-4.48-2.64,4.8,4.8,0,0,0-3.21,4.46Z" transform="translate(-85.99 -113.2)" style="fill:#fff"/><path d="M176.64,241.56a17.24,17.24,0,0,1,7.71-2.13,3.61,3.61,0,0,0-4.48-2.64,4.8,4.8,0,0,0-3.21,4.46Z" transform="translate(-85.99 -113.2)" style="fill:#fff"/><path d="M177.77,225.25A14.55,14.55,0,0,1,183,229.5a3.05,3.05,0,0,0-.37-4.36,4,4,0,0,0-4.63,0Z" transform="translate(-85.99 -113.2)" style="fill:#fff"/><path d="M180.28,210.06a14.57,14.57,0,0,1,5.22,4.26,3.05,3.05,0,0,0-.37-4.36,4,4,0,0,0-4.63,0Z" transform="translate(-85.99 -113.2)" style="fill:#fff"/><path d="M139.37,217.16a14.52,14.52,0,0,1,6.7-.69,3,3,0,0,0-3.35-2.82,4,4,0,0,0-3.29,3.25Z" transform="translate(-85.99 -113.2)" style="fill:#fff"/><path d="M152.75,203.5a14.55,14.55,0,0,1,5.22,4.25,3,3,0,0,0-.37-4.36,4,4,0,0,0-4.63,0Z" transform="translate(-85.99 -113.2)" style="fill:#fff"/><path d="M183.94,184.16a11.17,11.17,0,0,0,4.11-2.66,7.37,7.37,0,0,1,1.73-1.36,2,2,0,0,1,1-.24c.44,0-.07.58-.21.73a12.15,12.15,0,0,1-2.24,1.93.33.33,0,0,0,.25.6l1.32-.37a6,6,0,0,1,1.27-.3,1.21,1.21,0,0,1,1,.26.55.55,0,0,1,.15.73,1.25,1.25,0,0,1-.77.39,10.05,10.05,0,0,1-1.2.21,16.48,16.48,0,0,1-2.63.09l.09.65c.75-.12,1.84-.2,2.29.57a.91.91,0,0,1,.07.9.83.83,0,0,1-.94.26,3.74,3.74,0,0,1-1.14-.5l-1.43-.83-2.85-1.67a.33.33,0,0,0-.33.57l2.75,1.62a14.61,14.61,0,0,0,2.55,1.38,1.59,1.59,0,0,0,2-.53,1.64,1.64,0,0,0-.4-1.93,3.18,3.18,0,0,0-2.73-.48c-.39.06-.27.63.09.65a16.73,16.73,0,0,0,3.24-.17c.75-.12,1.87-.28,2.08-1.17a1.48,1.48,0,0,0-1.4-1.66,3.93,3.93,0,0,0-1.52.22l-1.68.47.25.61a12.68,12.68,0,0,0,2.28-1.92,2.06,2.06,0,0,0,.68-1.11.78.78,0,0,0-.71-.85,3.28,3.28,0,0,0-2.31.85c-.7.55-1.28,1.23-2,1.79a9.38,9.38,0,0,1-2.89,1.63c-.39.14-.22.78.18.64Z" transform="translate(-85.99 -113.2)" style="fill:#fff"/><path d="M148.46,190.59a11.27,11.27,0,0,0,4.11-2.65,6.89,6.89,0,0,1,1.73-1.36,2,2,0,0,1,1-.24c.44,0-.07.58-.21.72a11.78,11.78,0,0,1-2.24,1.93.33.33,0,0,0,.25.61l1.31-.38a7.94,7.94,0,0,1,1.28-.3,1.21,1.21,0,0,1,1,.26.57.57,0,0,1,.15.74,1.33,1.33,0,0,1-.77.39c-.4.09-.8.15-1.2.2a15.39,15.39,0,0,1-2.63.09l.09.65c.75-.11,1.84-.19,2.29.57a.91.91,0,0,1,.07.9.85.85,0,0,1-.94.27,4,4,0,0,1-1.14-.5l-1.43-.84L148.32,190a.33.33,0,0,0-.33.58l2.75,1.61a14,14,0,0,0,2.55,1.38,1.61,1.61,0,0,0,2-.52,1.67,1.67,0,0,0-.4-1.94,3.21,3.21,0,0,0-2.73-.48c-.39.06-.27.64.09.66a16,16,0,0,0,3.24-.18c.75-.12,1.87-.27,2.08-1.17a1.48,1.48,0,0,0-1.4-1.66,3.93,3.93,0,0,0-1.52.22L153,189l.25.6a12.68,12.68,0,0,0,2.28-1.92,2,2,0,0,0,.68-1.11.76.76,0,0,0-.71-.84,3.24,3.24,0,0,0-2.31.85c-.7.54-1.29,1.22-2,1.79a9.81,9.81,0,0,1-2.89,1.63c-.4.14-.22.78.18.63Z" transform="translate(-85.99 -113.2)" style="fill:#fff"/><path d="M170,180a10.12,10.12,0,0,0-1.93-5.71,6.36,6.36,0,0,1-1.41-2.47c0-.31,0-1,.35-1.13s.82.39,1,.65a10.76,10.76,0,0,1,1.77,3c.15.39.77.23.64-.18a7.49,7.49,0,0,1-.36-2.86,2.08,2.08,0,0,1,.26-1,.61.61,0,0,1,.91-.08,2.33,2.33,0,0,1,.79,2,8.84,8.84,0,0,1-.46,2.32c-.12.41.49.56.64.17.25-.61.71-1.65,1.56-1.43s.15,1.47-.13,1.89a12.35,12.35,0,0,1-1.78,2c-.73.73-1.47,1.44-2.2,2.16-.31.3.16.77.47.47l2.1-2.05a16.27,16.27,0,0,0,1.79-2,3,3,0,0,0,.8-2.18,1.26,1.26,0,0,0-1.58-1c-.93.2-1.34,1.11-1.67,1.91l.64.17c.42-1.37.85-3.07,0-4.38a1.63,1.63,0,0,0-1.94-.85,2,2,0,0,0-.88,1.74,8.35,8.35,0,0,0,.38,3.14l.64-.18a11.73,11.73,0,0,0-1.7-3,3.14,3.14,0,0,0-1.2-1.06,1,1,0,0,0-1.27.33c-.64.89-.2,2.09.31,2.91a29.59,29.59,0,0,1,1.84,2.86,9.44,9.44,0,0,1,.89,3.79.34.34,0,0,0,.67,0Z" transform="translate(-85.99 -113.2)" style="fill:#fff"/><path d="M181.84,204.44a10.2,10.2,0,0,0-1.93-5.71,6.44,6.44,0,0,1-1.41-2.47c-.05-.32-.05-1,.35-1.14s.82.4,1,.66a10.71,10.71,0,0,1,1.77,3c.15.39.77.24.64-.17a7.72,7.72,0,0,1-.37-2.86,2.14,2.14,0,0,1,.27-1,.61.61,0,0,1,.91-.09,2.36,2.36,0,0,1,.79,2,8.76,8.76,0,0,1-.46,2.32c-.12.42.49.56.64.18.25-.62.71-1.66,1.56-1.44s.14,1.48-.13,1.9a13.29,13.29,0,0,1-1.78,2l-2.2,2.16a.33.33,0,0,0,.46.47l2.11-2.06a16.18,16.18,0,0,0,1.79-2,3.15,3.15,0,0,0,.8-2.19,1.26,1.26,0,0,0-1.58-1c-.93.2-1.34,1.11-1.67,1.9l.64.18c.42-1.37.85-3.08,0-4.38a1.61,1.61,0,0,0-1.94-.85,2,2,0,0,0-.88,1.74,8.12,8.12,0,0,0,.38,3.13l.64-.17a11.57,11.57,0,0,0-1.7-3,3.09,3.09,0,0,0-1.2-1.07,1,1,0,0,0-1.27.34c-.64.88-.2,2.09.31,2.91a28.41,28.41,0,0,1,1.84,2.86,9.36,9.36,0,0,1,.89,3.79.34.34,0,0,0,.67,0Z" transform="translate(-85.99 -113.2)" style="fill:#fff"/><path d="M184.76,164.88a20.07,20.07,0,0,0-1.75,2.44q-.37.63-.69,1.29a2.13,2.13,0,0,0-.38,1.3,1.16,1.16,0,0,0,1.75.57c.81-.52.84-1.54,1.34-2.28l-.6-.26a7.47,7.47,0,0,0,.07,3.26c.18.72.65,1.58,1.47,1.68s1.52-.86,1.46-1.69a5.06,5.06,0,0,0-.43-1.53,13.27,13.27,0,0,0-.69-1.48l-.52.41a5.37,5.37,0,0,0,2.35,1.69c.68.25,2.24.61,2.24-.58a2,2,0,0,0-.67-1.23,13.87,13.87,0,0,0-1.15-1.15,20.9,20.9,0,0,0-2.14-1.6l-1.26-.89c-.35-.25-.68.32-.33.57.77.54,1.57,1.06,2.32,1.62a14.15,14.15,0,0,1,2.06,1.88c.14.15.72.72.44.94s-.85,0-1.09-.12a4.78,4.78,0,0,1-2.31-1.6c-.24-.31-.69.08-.52.4a9.86,9.86,0,0,1,1,2.32,1.4,1.4,0,0,1-.1,1.08.59.59,0,0,1-.68.28c-.56-.2-.76-1-.86-1.48a6.69,6.69,0,0,1,0-2.6.34.34,0,0,0-.61-.26c-.39.58-.45,1.37-.93,1.89a.66.66,0,0,1-.72.23c-.33-.13-.21-.42-.09-.68a17.51,17.51,0,0,1,2.51-4C185.5,165,185,164.55,184.76,164.88Z" transform="translate(-85.99 -113.2)" style="fill:#fff"/><path d="M164.33,193.5a17.16,17.16,0,0,1,7.7-2.13,3.61,3.61,0,0,0-4.48-2.64,4.8,4.8,0,0,0-3.21,4.46Z" transform="translate(-85.99 -113.2)" style="fill:#fff"/><path d="M191.89,198.26a17.2,17.2,0,0,1,7.7-2.13,3.6,3.6,0,0,0-4.47-2.64,4.8,4.8,0,0,0-3.21,4.46Z" transform="translate(-85.99 -113.2)" style="fill:#fff"/><path d="M201.19,174a17.33,17.33,0,0,1-6.27,5,3.6,3.6,0,0,0,5.14.69,4.77,4.77,0,0,0,1.23-5.35Z" transform="translate(-85.99 -113.2)" style="fill:#fff"/><path d="M195.52,166.76a14.59,14.59,0,0,1,5.22,4.26,3,3,0,0,0-.37-4.36,4,4,0,0,0-4.62,0Z" transform="translate(-85.99 -113.2)" style="fill:#fff"/><path d="M153.8,177.72a14.54,14.54,0,0,1,6.7-.69,3,3,0,0,0-3.35-2.82,4.07,4.07,0,0,0-3.29,3.25Z" transform="translate(-85.99 -113.2)" style="fill:#fff"/><path d="M169.21,161.62a14.46,14.46,0,0,1,5.22,4.25,3,3,0,0,0-.37-4.36,4,4,0,0,0-4.62,0Z" transform="translate(-85.99 -113.2)" style="fill:#fff"/><path d="M227.68,220.47a10.25,10.25,0,0,0-3.31-.23c-1,.09-2,.39-2.94.47a3.17,3.17,0,0,1-1.4-.14c-.12,0-.46-.16-.51-.3s.19-.25.3-.3a7.36,7.36,0,0,1,1.59-.38,12.32,12.32,0,0,1,1.71-.14.34.34,0,0,0,.09-.66l-1.36-.4a7.43,7.43,0,0,1-1.12-.39,1.31,1.31,0,0,1-.7-.67.67.67,0,0,1,.1-.71c.26-.25.7-.11,1,0a10.24,10.24,0,0,1,1.18.51,15.2,15.2,0,0,1,2.23,1.32l.33-.57c-.68-.31-1.66-.78-1.69-1.65a1,1,0,0,1,.31-.82.73.73,0,0,1,.92.09,3.14,3.14,0,0,1,.75,1c.25.47.49,1,.73,1.44.54,1,1.07,2.09,1.61,3.14.19.38.76,0,.57-.34l-1.5-2.94a12.67,12.67,0,0,0-1.42-2.51,1.53,1.53,0,0,0-2-.49,1.67,1.67,0,0,0-.61,1.83,3.12,3.12,0,0,0,2,1.81.33.33,0,0,0,.33-.57,15.33,15.33,0,0,0-2.14-1.28c-.36-.18-.74-.35-1.12-.5a3,3,0,0,0-1.08-.27,1.17,1.17,0,0,0-1.2,1.22,1.75,1.75,0,0,0,1,1.51,6.72,6.72,0,0,0,1.16.43l1.52.45.08-.65a13.32,13.32,0,0,0-3,.41,2.11,2.11,0,0,0-1,.5.75.75,0,0,0,0,1,2.85,2.85,0,0,0,2.37.68c.9-.07,1.77-.33,2.67-.45a9.71,9.71,0,0,1,3.44.18c.42.09.59-.55.18-.64Z" transform="translate(-85.99 -113.2)" style="fill:#fff"/><path d="M191.35,223.93a11.4,11.4,0,0,0,4.12-2.65,6.92,6.92,0,0,1,1.72-1.37,2.13,2.13,0,0,1,1-.24c.44,0-.07.59-.2.73a12.16,12.16,0,0,1-2.25,1.93.34.34,0,0,0,.26.61l1.31-.38a6.17,6.17,0,0,1,1.27-.3,1.2,1.2,0,0,1,1,.26.57.57,0,0,1,.15.74,1.33,1.33,0,0,1-.77.39,12,12,0,0,1-1.2.2,15.39,15.39,0,0,1-2.63.09l.09.65c.75-.11,1.84-.2,2.29.57a.89.89,0,0,1,.07.9.84.84,0,0,1-.93.27,3.94,3.94,0,0,1-1.15-.5l-1.43-.84-2.85-1.67a.33.33,0,0,0-.33.58l2.75,1.61a14.31,14.31,0,0,0,2.55,1.38,1.6,1.6,0,0,0,2-.52,1.66,1.66,0,0,0-.4-1.94A3.18,3.18,0,0,0,195,224c-.38.06-.27.64.09.65a15.29,15.29,0,0,0,3.24-.17c.75-.12,1.87-.28,2.08-1.17a1.48,1.48,0,0,0-1.4-1.66,4,4,0,0,0-1.52.22l-1.68.48.25.6a12.75,12.75,0,0,0,2.29-1.92,2.11,2.11,0,0,0,.67-1.11.76.76,0,0,0-.7-.84,3.28,3.28,0,0,0-2.32.84c-.7.55-1.28,1.23-2,1.8a9.63,9.63,0,0,1-2.88,1.62c-.4.15-.23.79.17.64Z" transform="translate(-85.99 -113.2)" style="fill:#fff"/><path d="M212.89,213.38a10.12,10.12,0,0,0-1.93-5.71,6.34,6.34,0,0,1-1.4-2.47c-.06-.31-.05-1,.34-1.13s.82.39,1,.65a10.61,10.61,0,0,1,1.77,3c.15.4.77.24.64-.17a7.72,7.72,0,0,1-.36-2.86,2,2,0,0,1,.26-1,.61.61,0,0,1,.91-.09,2.35,2.35,0,0,1,.79,2,8.3,8.3,0,0,1-.45,2.31c-.13.42.48.56.64.18.25-.61.7-1.65,1.56-1.44s.14,1.48-.14,1.9a13.22,13.22,0,0,1-1.77,2l-2.21,2.16c-.31.3.16.77.47.47l2.1-2.06a15.41,15.41,0,0,0,1.79-2,3.06,3.06,0,0,0,.8-2.19,1.26,1.26,0,0,0-1.58-1c-.92.2-1.34,1.11-1.66,1.9l.64.18c.41-1.37.84-3.07,0-4.38a1.62,1.62,0,0,0-1.94-.85,2,2,0,0,0-.88,1.74,8.3,8.3,0,0,0,.38,3.13l.64-.17a11.45,11.45,0,0,0-1.7-3,3.06,3.06,0,0,0-1.2-1.06,1,1,0,0,0-1.27.33c-.64.88-.2,2.09.31,2.91a31.73,31.73,0,0,1,1.85,2.86,9.53,9.53,0,0,1,.89,3.79.33.33,0,0,0,.66,0Z" transform="translate(-85.99 -113.2)" style="fill:#fff"/><path d="M224.73,237.78a10.18,10.18,0,0,0-1.93-5.72,6.25,6.25,0,0,1-1.4-2.46c-.06-.32-.06-1,.34-1.14s.82.39,1,.66a10.71,10.71,0,0,1,1.77,3c.15.39.77.24.64-.18a7.44,7.44,0,0,1-.36-2.85,2,2,0,0,1,.26-1A.61.61,0,0,1,226,228a2.33,2.33,0,0,1,.79,2,8.38,8.38,0,0,1-.46,2.32c-.12.42.49.56.64.18.26-.62.71-1.66,1.56-1.44s.15,1.48-.13,1.89a12.84,12.84,0,0,1-1.78,2l-2.2,2.16c-.31.3.16.77.47.47l2.1-2.06a16.1,16.1,0,0,0,1.79-2,3.06,3.06,0,0,0,.8-2.19,1.25,1.25,0,0,0-1.58-1c-.92.2-1.34,1.11-1.67,1.9l.64.18c.42-1.37.85-3.08,0-4.38a1.63,1.63,0,0,0-1.94-.86,2,2,0,0,0-.88,1.74,8.35,8.35,0,0,0,.38,3.14l.64-.18a11.39,11.39,0,0,0-1.7-3,3.09,3.09,0,0,0-1.2-1.07,1,1,0,0,0-1.27.34c-.64.88-.2,2.08.31,2.91a29.45,29.45,0,0,1,1.84,2.85,9.45,9.45,0,0,1,.89,3.8c0,.42.68.43.67,0Z" transform="translate(-85.99 -113.2)" style="fill:#fff"/><path d="M227.65,198.22a19.32,19.32,0,0,0-1.75,2.44q-.37.63-.69,1.29a2.11,2.11,0,0,0-.38,1.3,1.16,1.16,0,0,0,1.75.57c.81-.53.84-1.55,1.34-2.28l-.6-.26a7.47,7.47,0,0,0,.07,3.26c.18.72.65,1.58,1.47,1.68s1.52-.86,1.46-1.7a4.73,4.73,0,0,0-.43-1.52,13.27,13.27,0,0,0-.69-1.48l-.52.4a5.31,5.31,0,0,0,2.35,1.7c.69.25,2.24.61,2.24-.58a2.05,2.05,0,0,0-.66-1.24c-.37-.4-.75-.78-1.16-1.15a22.38,22.38,0,0,0-2.14-1.59l-1.26-.9c-.34-.24-.68.33-.33.58.77.54,1.57,1,2.33,1.62a14,14,0,0,1,2,1.88c.14.15.72.72.44.94s-.84-.05-1.08-.12a4.65,4.65,0,0,1-2.31-1.61c-.24-.3-.7.09-.52.41a10.19,10.19,0,0,1,1,2.31,1.35,1.35,0,0,1-.1,1.08.59.59,0,0,1-.68.29c-.56-.2-.76-1-.86-1.48a6.89,6.89,0,0,1,0-2.6.34.34,0,0,0-.61-.26c-.39.58-.45,1.37-.93,1.89a.65.65,0,0,1-.72.23c-.33-.14-.21-.42-.09-.69a17.74,17.74,0,0,1,2.51-3.95C228.39,198.36,227.93,197.89,227.65,198.22Z" transform="translate(-85.99 -113.2)" style="fill:#fff"/><path d="M206.2,225.62a17.23,17.23,0,0,1,7.7-2.13,3.6,3.6,0,0,0-4.47-2.64,4.8,4.8,0,0,0-3.21,4.46Z" transform="translate(-85.99 -113.2)" style="fill:#fff"/><path d="M234.78,231.6a17.24,17.24,0,0,1,7.71-2.13,3.62,3.62,0,0,0-4.48-2.64,4.8,4.8,0,0,0-3.21,4.46Z" transform="translate(-85.99 -113.2)" style="fill:#fff"/><path d="M235.9,215.29a14.46,14.46,0,0,1,5.22,4.25,3,3,0,0,0-.37-4.36,4,4,0,0,0-4.62,0Z" transform="translate(-85.99 -113.2)" style="fill:#fff"/><path d="M238.41,200.1a14.46,14.46,0,0,1,5.22,4.25,3,3,0,0,0-.37-4.36,4,4,0,0,0-4.62,0Z" transform="translate(-85.99 -113.2)" style="fill:#fff"/><path d="M200.51,213.4a14.51,14.51,0,0,1,1.51-6.56,3,3,0,0,0-3.75,2.26,4,4,0,0,0,2,4.16Z" transform="translate(-85.99 -113.2)" style="fill:#fff"/><path d="M213.35,193.25a14.55,14.55,0,0,1,5.22,4.25,3.05,3.05,0,0,0-.37-4.36,4,4,0,0,0-4.63,0Z" transform="translate(-85.99 -113.2)" style="fill:#fff"/><path d="M233.34,177.86a11.3,11.3,0,0,0,4.11-2.66,7.53,7.53,0,0,1,1.72-1.36,2.08,2.08,0,0,1,1-.24c.44,0-.08.58-.21.73a12.21,12.21,0,0,1-2.25,1.93.33.33,0,0,0,.26.6l1.31-.37a7.13,7.13,0,0,1,1.27-.31,1.2,1.2,0,0,1,1,.27.56.56,0,0,1,.15.73,1.27,1.27,0,0,1-.77.39,12.23,12.23,0,0,1-1.21.21,16.48,16.48,0,0,1-2.63.09l.09.65c.76-.12,1.84-.2,2.3.57a.91.91,0,0,1,.07.9.83.83,0,0,1-.94.26,4.18,4.18,0,0,1-1.15-.5l-1.42-.83-2.85-1.67a.33.33,0,0,0-.34.57l2.76,1.61a14.65,14.65,0,0,0,2.55,1.39,1.6,1.6,0,0,0,2-.53,1.67,1.67,0,0,0-.41-1.94,3.18,3.18,0,0,0-2.72-.47c-.39.06-.27.63.08.65a15.94,15.94,0,0,0,3.24-.18c.76-.11,1.88-.27,2.09-1.17a1.48,1.48,0,0,0-1.4-1.65,4,4,0,0,0-1.53.21l-1.68.48.26.61a12.68,12.68,0,0,0,2.28-1.92,2.11,2.11,0,0,0,.67-1.11.77.77,0,0,0-.7-.85,3.25,3.25,0,0,0-2.31.85c-.7.55-1.29,1.23-2,1.79a9.61,9.61,0,0,1-2.89,1.63c-.4.14-.23.78.18.64Z" transform="translate(-85.99 -113.2)" style="fill:#fff"/><path d="M204.16,183.48a11.3,11.3,0,0,0,4.11-2.66,7.53,7.53,0,0,1,1.72-1.36,2.08,2.08,0,0,1,1-.24c.44,0-.08.58-.21.73a12.48,12.48,0,0,1-2.24,1.93.33.33,0,0,0,.25.6l1.31-.37a7.13,7.13,0,0,1,1.27-.31,1.23,1.23,0,0,1,1,.27.56.56,0,0,1,.15.73,1.27,1.27,0,0,1-.77.39,10.05,10.05,0,0,1-1.2.21,16.56,16.56,0,0,1-2.63.09c0,.21,0,.43.08.65.76-.12,1.84-.2,2.3.57a.91.91,0,0,1,.07.9.83.83,0,0,1-.94.26,4.18,4.18,0,0,1-1.15-.5l-1.42-.83L204,182.87a.33.33,0,0,0-.34.57l2.76,1.61a14,14,0,0,0,2.55,1.39,1.6,1.6,0,0,0,2-.53,1.67,1.67,0,0,0-.41-1.94,3.18,3.18,0,0,0-2.72-.47c-.39.06-.27.63.09.65a16,16,0,0,0,3.24-.18c.75-.11,1.87-.27,2.08-1.17a1.48,1.48,0,0,0-1.4-1.65,4,4,0,0,0-1.53.22l-1.67.47.25.61a12.68,12.68,0,0,0,2.28-1.92,2,2,0,0,0,.67-1.11.77.77,0,0,0-.7-.85,3.27,3.27,0,0,0-2.31.85c-.7.55-1.29,1.23-2,1.79a9.49,9.49,0,0,1-2.89,1.63c-.4.14-.22.78.18.64Z" transform="translate(-85.99 -113.2)" style="fill:#fff"/><path d="M225.7,172.93a10.2,10.2,0,0,0-1.93-5.71,6.44,6.44,0,0,1-1.41-2.47c-.05-.32-.05-1,.35-1.14s.82.4,1,.66a10.71,10.71,0,0,1,1.77,3c.15.39.77.24.64-.17a7.72,7.72,0,0,1-.37-2.86,2.14,2.14,0,0,1,.27-1,.61.61,0,0,1,.91-.09,2.36,2.36,0,0,1,.79,2,8.76,8.76,0,0,1-.46,2.32c-.12.42.49.56.64.18.25-.62.71-1.66,1.56-1.44s.14,1.48-.13,1.9a13.29,13.29,0,0,1-1.78,2l-2.2,2.16a.33.33,0,0,0,.46.47l2.11-2.06a16.18,16.18,0,0,0,1.79-2,3.15,3.15,0,0,0,.8-2.19,1.26,1.26,0,0,0-1.58-1c-.93.2-1.34,1.11-1.67,1.9l.64.18c.42-1.37.85-3.08,0-4.38a1.61,1.61,0,0,0-1.94-.85,2,2,0,0,0-.88,1.74,8.12,8.12,0,0,0,.38,3.13l.64-.17a11.57,11.57,0,0,0-1.7-3,3.09,3.09,0,0,0-1.2-1.07,1,1,0,0,0-1.27.34c-.64.88-.2,2.09.31,2.91a28.41,28.41,0,0,1,1.84,2.86,9.36,9.36,0,0,1,.89,3.79.34.34,0,0,0,.67,0Z" transform="translate(-85.99 -113.2)" style="fill:#fff"/><path d="M237.53,197.33a10.2,10.2,0,0,0-1.92-5.72,6.36,6.36,0,0,1-1.41-2.47c0-.31,0-1,.35-1.13s.82.39,1,.65a10.76,10.76,0,0,1,1.77,3c.15.39.77.23.64-.18a7.7,7.7,0,0,1-.37-2.86,2.2,2.2,0,0,1,.27-1,.61.61,0,0,1,.91-.08,2.39,2.39,0,0,1,.79,2,8.84,8.84,0,0,1-.46,2.32c-.13.42.48.56.64.17.25-.61.71-1.65,1.56-1.43s.14,1.47-.13,1.89a13.36,13.36,0,0,1-1.78,2.05l-2.21,2.16c-.3.29.17.76.47.46l2.11-2.05a16.27,16.27,0,0,0,1.79-2,3.12,3.12,0,0,0,.8-2.18,1.26,1.26,0,0,0-1.58-1c-.93.2-1.35,1.12-1.67,1.91l.64.17c.42-1.37.84-3.07,0-4.38a1.63,1.63,0,0,0-1.94-.85,1.94,1.94,0,0,0-.88,1.74,8,8,0,0,0,.38,3.14l.64-.18a11.73,11.73,0,0,0-1.7-3,3.1,3.1,0,0,0-1.21-1.06,1,1,0,0,0-1.27.33c-.63.89-.19,2.09.32,2.91a29.59,29.59,0,0,1,1.84,2.86,9.45,9.45,0,0,1,.89,3.8.33.33,0,0,0,.66,0Z" transform="translate(-85.99 -113.2)" style="fill:#fff"/><path d="M240.46,157.76a19.14,19.14,0,0,0-1.75,2.45c-.25.42-.48.85-.7,1.29a2,2,0,0,0-.37,1.3,1.15,1.15,0,0,0,1.75.56c.81-.52.84-1.54,1.34-2.28l-.61-.25a7.48,7.48,0,0,0,.08,3.26c.18.72.65,1.58,1.46,1.68s1.53-.86,1.47-1.7a5.14,5.14,0,0,0-.43-1.53c-.2-.5-.44-1-.69-1.47l-.53.4a5.32,5.32,0,0,0,2.36,1.69c.68.25,2.24.62,2.24-.58a2,2,0,0,0-.67-1.23,15.6,15.6,0,0,0-1.15-1.15,20.9,20.9,0,0,0-2.14-1.6l-1.26-.89c-.35-.25-.68.33-.33.57.77.55,1.57,1.06,2.32,1.62a14.22,14.22,0,0,1,2.06,1.89c.14.15.71.71.44.94s-.85,0-1.09-.12A4.82,4.82,0,0,1,242,161c-.24-.3-.69.09-.52.4a9.43,9.43,0,0,1,1,2.32,1.35,1.35,0,0,1-.09,1.08.59.59,0,0,1-.69.28c-.55-.19-.75-1-.85-1.47a6.94,6.94,0,0,1,0-2.61.33.33,0,0,0-.6-.25c-.4.58-.45,1.36-.93,1.89a.66.66,0,0,1-.72.23c-.34-.14-.21-.43-.09-.69a17.39,17.39,0,0,1,2.51-4C241.2,157.91,240.73,157.44,240.46,157.76Z" transform="translate(-85.99 -113.2)" style="fill:#fff"/><path d="M222.46,184.35a17.37,17.37,0,0,1,7.71-2.13,3.61,3.61,0,0,0-4.48-2.63,4.77,4.77,0,0,0-3.21,4.45Z" transform="translate(-85.99 -113.2)" style="fill:#fff"/><path d="M247.59,191.15a17.3,17.3,0,0,1,7.7-2.14,3.6,3.6,0,0,0-4.47-2.63,4.78,4.78,0,0,0-3.21,4.45Z" transform="translate(-85.99 -113.2)" style="fill:#fff"/><path d="M248.71,174.84a14.55,14.55,0,0,1,5.22,4.25,3,3,0,0,0-.37-4.36,4,4,0,0,0-4.63,0Z" transform="translate(-85.99 -113.2)" style="fill:#fff"/><path d="M251.22,159.65a14.46,14.46,0,0,1,5.22,4.25,3,3,0,0,0-.37-4.36,4,4,0,0,0-4.63,0Z" transform="translate(-85.99 -113.2)" style="fill:#fff"/><path d="M209.5,170.61a14.52,14.52,0,0,1,6.7-.69,3,3,0,0,0-3.35-2.82,4,4,0,0,0-3.29,3.25Z" transform="translate(-85.99 -113.2)" style="fill:#fff"/><path d="M224.91,154.51a14.46,14.46,0,0,1,5.22,4.25,3,3,0,0,0-.37-4.36,4,4,0,0,0-4.62,0Z" transform="translate(-85.99 -113.2)" style="fill:#fff"/></g><path d="M172.87,207.91q4.92-2,9.95-3.82T193,200.7c1.91-.59,3.84-1.16,5.77-1.7a.33.33,0,0,0-.18-.64q-5.12,1.44-10.19,3.11t-10.09,3.59c-1.88.71-3.74,1.45-5.6,2.21-.39.16-.22.8.18.64Z" transform="translate(-85.99 -113.2)" style="fill:#26353f"/><path d="M174.89,209.67q8.06-3.93,16.23-7.6l4.67-2.08c.39-.17.05-.74-.34-.57q-8.2,3.6-16.29,7.46-2.31,1.1-4.6,2.22c-.39.19-.05.76.33.57Z" transform="translate(-85.99 -113.2)" style="fill:#26353f"/><path d="M225.71,240.72a7,7,0,0,0-1.83-3.71l-6.5-5.42a16.7,16.7,0,0,0-4.37-2.92,17.74,17.74,0,0,0-4.82-.92l-3.23-.3a22.25,22.25,0,0,0-3-.5l-36.38-3.11a83.27,83.27,0,0,0-16.44,1.88,2.8,2.8,0,0,0-1.86.95,2.53,2.53,0,0,0-.19,1.7c.37,2.89,1,6,3.23,8,2.71,2.38,6.84,2.31,10.51,2,13.13-1.14,26.2-3.74,39.35-3.15a8.21,8.21,0,0,0,6.43,2.73,13.73,13.73,0,0,1,2.86-.15c3.19.49,4.52,4.7,7.33,5.8a.53.53,0,0,0,.72-.66,20.29,20.29,0,0,0-1.71-3.22,13.7,13.7,0,0,0,5.39,3.78.6.6,0,0,0,.78-.8,8.86,8.86,0,0,0-.61-1,5.58,5.58,0,0,0,3.5,1.38.56.56,0,0,0,.53-.79c-.15-.31-.31-.61-.49-.91A.59.59,0,0,0,225.71,240.72Zm-8.45-3.49a8.37,8.37,0,0,1,2.2,2.16C218.77,238.69,218,238,217.26,237.23Z" transform="translate(-85.99 -113.2)" style="fill:#cc7747"/><path d="M217.79,234.28a60.15,60.15,0,0,1,7.26,7.28c.27.32.74-.15.47-.47a60.88,60.88,0,0,0-7.26-7.28c-.33-.27-.8.19-.47.47Z" transform="translate(-85.99 -113.2)" style="fill:#7e3933"/><path d="M216,236.21a60.42,60.42,0,0,1,7,6.19c.29.31.76-.16.46-.47a60.68,60.68,0,0,0-7.11-6.29c-.34-.26-.68.32-.34.57Z" transform="translate(-85.99 -113.2)" style="fill:#7e3933"/><path d="M214.08,237.79l2.84,3.37a.33.33,0,0,0,.47,0,.32.32,0,0,0,0-.46q-1.41-1.69-2.84-3.38a.33.33,0,0,0-.47,0,.35.35,0,0,0,0,.47Z" transform="translate(-85.99 -113.2)" style="fill:#7e3933"/><path d="M180.83,191.69c-1.21-1.3-.43-3.55,1-4.66s3.21-1.56,4.75-2.45a15.29,15.29,0,0,0,3.57-3.1,48.28,48.28,0,0,0,4.66-6,12.35,12.35,0,0,1-4,12.18,25,25,0,0,1-3.46,2.29c-1.91,1.1-4.08,2.25-6.21,1.69Z" transform="translate(-85.99 -113.2)" style="fill:#a85b4f"/><path d="M201.82,228.34a26.37,26.37,0,0,1-5.57,6.82,3,3,0,0,1-1.57.86,3.06,3.06,0,0,1-1.9-.72,62,62,0,0,1-6.39-4.92,11.41,11.41,0,0,1-2.56-2.9,12.49,12.49,0,0,1-1.18-5.14l-2.73-32.82a2.09,2.09,0,0,1,0-.56c.2-.87.93-.87,1.56-.87,4.37,0,9.16-1.71,11.07-5.65a18,18,0,0,0,1.21-4.23c.41-2,.91-4,1.48-6a.69.69,0,0,1,.4-.45c.53-.19.85.45.94.95a21.47,21.47,0,0,1-4.86,17.92,7,7,0,0,0-1.6,2.32c-.42,1.34.15,2.76.71,4.05l11.71,27a4,4,0,0,1-.75,4.33Z" transform="translate(-85.99 -113.2)" style="fill:#cc7747"/><path d="M213.4,240.6l.2-3.85a1,1,0,0,0-.1-.61.94.94,0,0,0-.64-.3c-10-1.83-20.31-3.66-30.34-1.85a17,17,0,0,0-6.25,2.17,7.81,7.81,0,0,0-3.7,5.28Z" transform="translate(-85.99 -113.2)" style="fill:#f2e7d1"/><path d="M173.38,239.47c-.09-.71-.78-1.16-1.43-1.46-3.27-1.5-7-1.49-10.6-1.45l-16.19.19-7.58.09a5.58,5.58,0,0,0-2.89.56,1.91,1.91,0,0,0-.76,2.55l20.22.19a45.16,45.16,0,0,0,5.93-.21,29.42,29.42,0,0,1,5.52-.54,9.24,9.24,0,0,1,2.6.57,9.83,9.83,0,0,1,3.37,2.09Z" transform="translate(-85.99 -113.2)" style="fill:#f2e7d1"/><path d="M173.33,239.62c-1.1-4-4.62-7.13-8.6-8.42a21.22,21.22,0,0,0-12.35.2,63.14,63.14,0,0,0-11.48,5l-.88-.59a29.9,29.9,0,0,1,23.5-6.14,14.58,14.58,0,0,1,6.89,2.81,7.21,7.21,0,0,1,2.72,6.65Z" transform="translate(-85.99 -113.2)" style="fill:#f2e7d1"/><path d="M173.4,238.78a7.8,7.8,0,0,0-1.57-8.42,12.84,12.84,0,0,0-8.08-3.71,38.21,38.21,0,0,0-9.06.42l-12.05,1.53c3-2.07,6.7-2.66,10.29-3.19,7.52-1.09,15.66-2,22.31,1.65,3,1.65,5.64,4.82,4.87,8.12l-5.66,3.14Z" transform="translate(-85.99 -113.2)" style="fill:#f2e7d1"/><polygon points="38.05 108.13 1 109.64 1.14 113.45 38.19 111.94 38.05 108.13" style="fill:#f2e7d1"/><path d="M88.08,225.93l.16.06.18,0h.08a2.34,2.34,0,0,0,.38,0,.37.37,0,0,1,.18,0l36.1-1.47.06,1.74-37.46,1a2.93,2.93,0,0,1-1.64-1.84A3.13,3.13,0,0,1,87.28,222l.21-.11,37.41-2.34.07,1.74S88.64,223,88.18,223.11l-.31.13-.08.06-.16.12a1.31,1.31,0,0,0-.13.16,1,1,0,0,0-.08.11l0,.08c0,.09-.08.17-.11.26l0,.11,0,.18a.68.68,0,0,1,0,.14v.07c0,.06,0,.12,0,.18a.22.22,0,0,0,0,.08,3.18,3.18,0,0,1,.08.33,2.25,2.25,0,0,0,.11.22l0,.07.08.1.1.12s.17.13.06.06c.11.07.2.15.31.21l.07,0S88.07,225.93,88.08,225.93Z" transform="translate(-85.99 -113.2)" style="fill:#4b6578"/><path d="M88,225.91Z" transform="translate(-85.99 -113.2)" style="fill:#4b6578"/><path d="M89.12,225.39l13.36-.55,13.3-.54,7.49-.31c.25,0,.25-.39,0-.38l-13.36.54-13.3.55-7.5.3a.2.2,0,0,0,0,.39Z" transform="translate(-85.99 -113.2)" style="fill:#c2b48c"/><path d="M93.44,224.4l11.44-.47,3.26-.13a.2.2,0,0,0,0-.39l-11.44.47-3.25.13c-.25,0-.25.4,0,.39Z" transform="translate(-85.99 -113.2)" style="fill:#c2b48c"/><path d="M109.61,222.93l9.77-.4,2.75-.11c.24,0,.24-.4,0-.39l-9.77.4-2.75.11a.2.2,0,0,0,0,.39Z" transform="translate(-85.99 -113.2)" style="fill:#c2b48c"/><path d="M86.92,236.09l35.1-1a4,4,0,0,0,3.67-4.34,4,4,0,0,0-3.92-4.08l-34.95.95Z" transform="translate(-85.99 -113.2)" style="fill:#ec8123"/><path d="M86.89,234l34-.93a2.06,2.06,0,0,0,1.87-2.21,2,2,0,0,0-2-2.07l-33.93.92Z" transform="translate(-85.99 -113.2)" style="fill:#f2e7d1"/><path d="M119.46,231.51l-11,.39-3.14.12a.19.19,0,0,0,0,.38l11-.39,3.14-.12c.24,0,.24-.39,0-.38Z" transform="translate(-85.99 -113.2)" style="fill:#c2b48c"/><polygon points="24.98 117.29 25.02 119.6 24.07 118.69 23.29 119.96 23.07 117.36 24.98 117.29" style="fill:#dc4445"/><path d="M119.68,230c-1.64.06-3.29.1-4.94.15l-6.63.17-7.24.18-6.8.17c-1.72.05-3.45.09-5.17.15l-.48,0c-.25,0-.25.39,0,.38l4.94-.15,6.63-.17,7.24-.17,6.8-.18c1.73,0,3.45-.09,5.18-.15h.47c.25,0,.25-.4,0-.39Z" transform="translate(-85.99 -113.2)" style="fill:#c2b48c"/><path d="M102,231.93l-7.9.11a.19.19,0,0,0,0,.38l7.9-.1a.2.2,0,0,0,0-.39Z" transform="translate(-85.99 -113.2)" style="fill:#c2b48c"/><polygon points="185 126.94 148.56 127.2 148.6 131.21 185.04 130.95 185 126.94" style="fill:#f2e7d1"/><path d="M235.53,243.69l.16.06.18.05H236a1.53,1.53,0,0,0,.37,0,.32.32,0,0,1,.17,0l35.52-.26,0,1.84-36.85-.28a3,3,0,0,1-1.55-2,3.4,3.4,0,0,1,1.23-3.61l.21-.11,36.83-1.12v1.84s-35.74.44-36.2.6a2,2,0,0,0-.31.12l-.08.06-.16.12a1.31,1.31,0,0,0-.13.16,1,1,0,0,1-.08.11l0,.09-.11.27,0,.11c0,.07,0,.13,0,.19s0,.12,0,.15v.26s0,.06,0,.09.06.31.07.34l.1.24.05.08.07.11.1.12s.16.15.06.07l.3.23.06,0S235.52,243.68,235.53,243.69Z" transform="translate(-85.99 -113.2)" style="fill:#4b6578"/><path d="M235.49,243.67Z" transform="translate(-85.99 -113.2)" style="fill:#4b6578"/><path d="M236.57,243.15l13.16-.09,13.09-.09,7.36-.06a.2.2,0,0,0,0-.4L257,242.6l-13.09.1-7.36.05a.2.2,0,0,0,0,.4Z" transform="translate(-85.99 -113.2)" style="fill:#c2b48c"/><path d="M240.85,242.27l11.3-.08,3.16,0a.21.21,0,0,0,0-.41l-11.3.08-3.16,0a.21.21,0,0,0,0,.41Z" transform="translate(-85.99 -113.2)" style="fill:#c2b48c"/><path d="M256.77,241.3l9.59-.07,2.73,0a.2.2,0,0,0,0-.4l-9.59.07h-2.73a.21.21,0,0,0,0,.41Z" transform="translate(-85.99 -113.2)" style="fill:#c2b48c"/><rect x="236.33" y="233.28" width="34.13" height="4.02" transform="translate(423.44 354.51) rotate(179.35)" style="fill:#f2e7d1"/><path d="M269.56,233.82l-.15-.06-.17,0h-.07a1.37,1.37,0,0,0-.35,0,.3.3,0,0,1-.16,0l-33.26.37,0-1.84,34.5.15a3,3,0,0,1,1.47,2A3.53,3.53,0,0,1,270.2,238l-.19.1-34.49,1.25,0-1.84s33.47-.56,33.9-.72a1.48,1.48,0,0,0,.29-.12l.08-.06.15-.13.12-.15a.75.75,0,0,0,.07-.12.36.36,0,0,0,0-.09,2,2,0,0,0,.11-.26l0-.12,0-.19s0-.11,0-.14v-.27a.22.22,0,0,0,0-.08s-.06-.31-.07-.35a1.85,1.85,0,0,0-.09-.23.29.29,0,0,1,0-.08l-.07-.11-.1-.12s-.15-.15,0-.07l-.28-.23-.06,0S269.57,233.83,269.56,233.82Z" transform="translate(-85.99 -113.2)" style="fill:#dc4445"/><path d="M269.6,233.84Z" transform="translate(-85.99 -113.2)" style="fill:#4b6578"/><path d="M268.59,234.36l-12.3.14-12.27.14-6.9.07a.21.21,0,0,0,0,.41l12.3-.14,12.26-.14,6.91-.08a.2.2,0,0,0,0-.4Z" transform="translate(-85.99 -113.2)" style="fill:#c2b48c"/><path d="M264.58,235.26l-10.57.12-3,0a.21.21,0,0,0,0,.41l10.58-.12,3,0a.2.2,0,1,0,0-.4Z" transform="translate(-85.99 -113.2)" style="fill:#c2b48c"/><path d="M249.67,236.28l-9,.1-2.56,0a.21.21,0,0,0,0,.41l9-.1,2.56,0a.21.21,0,0,0,0-.41Z" transform="translate(-85.99 -113.2)" style="fill:#c2b48c"/><path d="M237.5,224.14h33.33a0,0,0,0,1,0,0v8.24a0,0,0,0,1,0,0H237.5a3,3,0,0,1-3-3v-2.26A3,3,0,0,1,237.5,224.14Z" transform="translate(422.26 340.05) rotate(179.26)" style="fill:#ec8123"/><path d="M234.51,226h32.41a1.68,1.68,0,0,1,1.68,1.68v1.27a1.68,1.68,0,0,1-1.68,1.68H234.51a0,0,0,0,1,0,0V226A0,0,0,0,1,234.51,226Z" transform="translate(-88.91 -109.94) rotate(-0.74)" style="fill:#f2e7d1"/><path d="M235.37,230l11.6-.15,11.57-.15,6.5-.08a.21.21,0,0,0,0-.41l-11.6.15-11.56.15-6.51.08a.21.21,0,0,0,0,.41Z" transform="translate(-85.99 -113.2)" style="fill:#c2b48c"/><path d="M235.36,228.93l11.33-.15,11.33-.14,6.35-.09a.2.2,0,0,0,0-.4l-11.34.14-11.33.15-6.34.08a.21.21,0,0,0,0,.41Z" transform="translate(-85.99 -113.2)" style="fill:#c2b48c"/><path d="M246.12,227.5l8.38-.11,2.39,0a.2.2,0,0,0,0-.4l-8.38.1-2.39,0a.2.2,0,0,0,0,.4Z" transform="translate(-85.99 -113.2)" style="fill:#c2b48c"/><path d="M236.66,227.36l4-.05a.2.2,0,1,0,0-.4l-3.93.05c-.28,0-.28.41,0,.4Z" transform="translate(-85.99 -113.2)" style="fill:#c2b48c"/><path d="M262,227l5-.07a.2.2,0,0,0,0-.4l-5,.06a.21.21,0,0,0,0,.41Z" transform="translate(-85.99 -113.2)" style="fill:#c2b48c"/><rect x="231.44" y="220.86" width="42.55" height="3.68" transform="matrix(1, -0.01, 0.01, 1, -88.84, -109.93)" style="fill:#dc4445"/><rect x="233.76" y="222.49" width="6.6" height="0.84" transform="translate(-88.84 -110.13) rotate(-0.74)" style="fill:#f2e7d1"/><rect x="269.08" y="221.89" width="2.11" height="1.17" transform="translate(-88.83 -109.71) rotate(-0.74)" style="fill:#f2e7d1"/><path d="M117.81,206.9l-28,1.88c-.35,0-.61.46-.58,1l.42,7.43c0,.52.34.92.69.89l28-1.88Z" transform="translate(-85.99 -113.2)" style="fill:#ec8123"/><path d="M92.55,215.89l25.67-1.73-.29-5.22-25.68,1.73c-.2,0-.34.25-.32.54l.23,4.18C92.18,215.68,92.35,215.9,92.55,215.89Z" transform="translate(-85.99 -113.2)" style="fill:#f2e7d1"/><path d="M117.34,209.93l-8.86.59-8.83.6-5,.33c-.2,0-.18.47,0,.46l8.86-.6,8.83-.59,5-.34c.2,0,.18-.47,0-.45Z" transform="translate(-85.99 -113.2)" style="fill:#c2b48c"/><path d="M117.4,211.09l-8.65.58-8.66.58-4.84.33c-.2,0-.18.47,0,.46l8.66-.58,8.65-.59,4.85-.32c.2,0,.17-.47,0-.46Z" transform="translate(-85.99 -113.2)" style="fill:#c2b48c"/><path d="M109.26,213.1l-6.4.43-1.83.12c-.2,0-.18.47,0,.46l6.41-.43,1.82-.12c.2,0,.18-.48,0-.46Z" transform="translate(-85.99 -113.2)" style="fill:#c2b48c"/><path d="M116.49,212.9l-3,.21c-.2,0-.17.47,0,.46l3-.21c.2,0,.18-.47,0-.46Z" transform="translate(-85.99 -113.2)" style="fill:#c2b48c"/><path d="M97.12,214.21l-3.8.25c-.19,0-.17.47,0,.46l3.79-.26c.2,0,.18-.47,0-.45Z" transform="translate(-85.99 -113.2)" style="fill:#c2b48c"/><polygon points="2.35 108.73 34.84 106.54 34.61 102.39 2.11 104.57 2.35 108.73" style="fill:#dc4445"/><polygon points="27.94 105.39 32.98 105.06 32.93 104.11 27.89 104.45 27.94 105.39" style="fill:#f2e7d1"/><polygon points="4.41 107.17 6.02 107.06 5.95 105.73 4.34 105.84 4.41 107.17" style="fill:#f2e7d1"/><polygon points="41.8 121.98 1.4 122.67 1.53 131.09 41.94 130.41 41.8 121.98" style="fill:#4b6578"/><path d="M94.53,237.66l-3.94.07a.69.69,0,0,0-.62.76l0,3.1a.68.68,0,0,0,.64.74l3.94-.06a.71.71,0,0,0,.62-.77l0-3.1A.7.7,0,0,0,94.53,237.66Z" transform="translate(-85.99 -113.2)" style="fill:#f2e7d1"/><polygon points="38.66 125.38 13.85 125.8 13.88 127.55 38.68 127.13 38.66 125.38" style="fill:#f2e7d1"/><path d="M96.65,241.59l0-3.41a.2.2,0,0,0-.39,0c0,1.14,0,2.27,0,3.41a.19.19,0,0,0,.38,0Z" transform="translate(-85.99 -113.2)" style="fill:#26353f"/><path d="M97.74,241.58c0-1.14,0-2.28,0-3.41a.2.2,0,0,0-.39,0c0,1.13,0,2.27,0,3.41a.19.19,0,0,0,.38,0Z" transform="translate(-85.99 -113.2)" style="fill:#26353f"/><path d="M195.75,154.9q-.25,6.63-.5,13.27c-.14,3.59-.3,7.26-1.65,10.58-1.46,3.58-4.2,6.48-7.12,9a7.8,7.8,0,0,1-4.34,2.28,6.81,6.81,0,0,1-4.39-1.69c-4.06-3.08-6.66-7.77-8.05-12.67a62.46,62.46,0,0,1-1.81-15.13c-.06-1.86-.1-3.73-.12-5.59a9.06,9.06,0,0,1,.5-3.81,7,7,0,0,1,3.13-3.06c5.29-2.93,11.91-2.13,17.56,0a13.06,13.06,0,0,1,4.53,2.58,5.52,5.52,0,0,1,1.8,4.72Z" transform="translate(-85.99 -113.2)" style="fill:#cc7747"/><path d="M195.22,161.06a6.79,6.79,0,0,0,4.44-1.49,4.26,4.26,0,0,0,1.4-4.3c-.56-1.83-2.56-3.1-2.67-5s1.9-3.45,2.7-5.31a4.72,4.72,0,0,0-.61-4.65c-.93-1.18-2.4-1.89-3.12-3.21-1.05-1.93-.08-4.28.14-6.47a9.26,9.26,0,0,0-3.45-8c-1.19-.93-2.61-1.56-3.74-2.57-2-1.78-3-4.63-5.24-6a5.69,5.69,0,0,0-6.87.87c-1,1.09-1.6,2.56-2.66,3.61-1.24,1.23-3,1.75-4.58,2.49s-3.18,1.93-3.44,3.66,1,3.73.31,5.43c-.58,1.44-2.29,2-3.52,2.93A6,6,0,0,0,162,138.3c.16,1.38.81,2.72.66,4.09a10.41,10.41,0,0,1-1,2.72,11.84,11.84,0,0,0-.54,7.32,8.3,8.3,0,0,1,.46,2.54,8.4,8.4,0,0,0-.23,2.37,3.49,3.49,0,0,0,.89,1.42l4.46,5a1,1,0,0,0,.62.42c.63,0,.7-.88.64-1.5-.27-2.61,1.32-5.12,3.43-6.67a22.73,22.73,0,0,1,7.19-3.06c2.2-.65,4.6-1.29,6.72-.42a12.2,12.2,0,0,1,3.87,3.23,31.59,31.59,0,0,0,6,4.92Z" transform="translate(-85.99 -113.2)" style="fill:#392011"/><path d="M213.59,240.76a1.76,1.76,0,0,0-.12,1.15L175.24,241l-.32,1.28H170l-.11-1.6-37.07.11.21-1,37.5.21.43,1.39,3,.21.53-1.6Z" transform="translate(-85.99 -113.2)" style="fill:#4b6578"/><path d="M180.6,190.75c0-1.45,1.56-2.14,2.7-2.67,1.64-.76,3.48-1,5.09-1.85,3-1.54,4.76-4.57,5.75-7.65a42.74,42.74,0,0,0,1.33-6.26c.07-.42-.57-.6-.64-.17-.57,3.57-1.18,7.3-3.29,10.33a9.83,9.83,0,0,1-3.48,3.18c-1.62.85-3.48,1.1-5.14,1.87-1.37.63-3,1.5-3,3.22a.33.33,0,0,0,.66,0Z" transform="translate(-85.99 -113.2)" style="fill:#7e3933"/><path d="M182.24,225.33a59.47,59.47,0,0,0,10.18,1.8c1.74.16,3.49.24,5.23.24s3.42-.06,5.12-.05a28.4,28.4,0,0,1,5.82.53c.42.09.6-.55.18-.64-3.38-.72-6.84-.54-10.27-.51a60.71,60.71,0,0,1-10.34-.77q-2.9-.48-5.75-1.23a.33.33,0,0,0-.17.63Z" transform="translate(-85.99 -113.2)" style="fill:#7e3933"/><path d="M214.87,237q2-1.8,4.14-3.42a.33.33,0,1,0-.34-.57c-1.47,1.11-2.9,2.28-4.27,3.52-.32.28.15.75.47.47Z" transform="translate(-85.99 -113.2)" style="fill:#7e3933"/><path d="M180.51,202.36c.19.14,9.35,1.7,12.87-.94a27.33,27.33,0,0,0-1.5-3.59,62.16,62.16,0,0,1-11.51.75Z" transform="translate(-85.99 -113.2)" style="fill:#dc4445"/><path d="M165.27,140.53a3.67,3.67,0,0,1-2.43-1.79,10.89,10.89,0,0,1-1.65-3.17,4.39,4.39,0,0,1,.21-3.32,4.1,4.1,0,0,1,2.13-1.89,3.87,3.87,0,0,1,2.93.12,4.25,4.25,0,0,1,1.24.86c.26.27.78.81.59,1.22s-.52.34-.78.34a2,2,0,0,1-1.15-.33,5,5,0,0,1-2-2.31,4.92,4.92,0,0,1,2.07-6.07.33.33,0,0,0-.33-.57,5.6,5.6,0,0,0-2.53,6.39,5.71,5.71,0,0,0,2.07,2.9,2.59,2.59,0,0,0,2.78.41c1.16-.72.13-2.11-.59-2.72a4.77,4.77,0,0,0-3.27-1.13,4.66,4.66,0,0,0-4.29,5,9.26,9.26,0,0,0,1.77,4.37,4.61,4.61,0,0,0,3.19,2.39c.42,0,.42-.63,0-.66Z" transform="translate(-85.99 -113.2)" style="fill:#392011"/><path d="M176.75,171.42c0,1-.61,1.76-1.3,1.74s-1.24-.83-1.22-1.8.61-1.76,1.3-1.74S176.77,170.44,176.75,171.42Z" transform="translate(-85.99 -113.2)" style="fill:#010101"/><path d="M190.36,171.42c0,1-.61,1.76-1.3,1.74s-1.24-.83-1.21-1.8.6-1.76,1.3-1.74S190.39,170.44,190.36,171.42Z" transform="translate(-85.99 -113.2)" style="fill:#010101"/><path d="M177.13,163.92a.7.7,0,0,1,.51,1.11,2.59,2.59,0,0,1-.94.66,23.85,23.85,0,0,1-4.07,1.47,5.38,5.38,0,0,1,3.75-3.31Z" transform="translate(-85.99 -113.2)" style="fill:#392011"/><path d="M186.49,162.09a.71.71,0,0,0-.52,1.11,2.54,2.54,0,0,0,.95.66,23.25,23.25,0,0,0,4.07,1.47,5.38,5.38,0,0,0-3.76-3.31Z" transform="translate(-85.99 -113.2)" style="fill:#392011"/><path d="M182.71,169.68a16.21,16.21,0,0,1,1.49,8.51l.33-.33-2.45,0a.33.33,0,0,0,0,.66l2.45,0a.35.35,0,0,0,.33-.33,16.84,16.84,0,0,0-1.58-8.84c-.18-.39-.75,0-.57.33Z" transform="translate(-85.99 -113.2)" style="fill:#7e3933"/><path d="M179.19,179a1.55,1.55,0,1,0,2.57.46,1.62,1.62,0,0,0-2.69-.24Z" transform="translate(-85.99 -113.2)" style="fill:#dc4445"/><path d="M178.16,179.34a7.17,7.17,0,0,0,4.55,1.74.33.33,0,0,0,0-.66,6.5,6.5,0,0,1-4.08-1.55c-.32-.28-.79.19-.47.47Z" transform="translate(-85.99 -113.2)" style="fill:#7e3933"/><path d="M205.78,186.63q-1.29,5.49-2.56,11t-2.48,10.73q-.74,3.15-1.48,6.3c-.09.42.55.59.64.18q1.29-5.49,2.56-11t2.48-10.73l1.47-6.3c.1-.42-.54-.59-.63-.18Z" transform="translate(-85.99 -113.2)" style="fill:#26353f"/><path d="M207.16,188.25l-2.6,5.76c-.17.39.4.73.58.34.86-1.93,1.73-3.85,2.59-5.77.18-.39-.39-.72-.57-.33Z" transform="translate(-85.99 -113.2)" style="fill:#26353f"/><path d="M155.53,184.25a129.32,129.32,0,0,1,11.25,30.67q1,4.5,1.74,9.06c.07.42.71.24.64-.18a130.18,130.18,0,0,0-3.55-16.07,130.87,130.87,0,0,0-5.55-15.48q-1.83-4.23-4-8.33c-.19-.38-.77,0-.57.33Z" transform="translate(-85.99 -113.2)" style="fill:#26353f"/><path d="M156,188.08a21,21,0,0,0,3,3.53c.31.29.78-.17.47-.47a20.8,20.8,0,0,1-2.89-3.39c-.23-.36-.81,0-.57.33Z" transform="translate(-85.99 -113.2)" style="fill:#26353f"/><path d="M157.05,183.83a2.26,2.26,0,0,1,.76-1.16c.34-.34.7-.68,1.06-1a26.22,26.22,0,0,1,2.26-1.8,25.49,25.49,0,0,1,5.08-2.82,26.65,26.65,0,0,1,3.12-1.06.33.33,0,0,0-.18-.64,26.61,26.61,0,0,0-10.75,5.85c-.42.38-.83.77-1.21,1.18a2.57,2.57,0,0,0-.81,1.46.33.33,0,0,0,.33.33c.2,0,.31-.15.34-.33Z" transform="translate(-85.99 -113.2)" style="fill:#26353f"/><path d="M198.37,175.87c3.41,1.24,7,2.54,9.77,4.91a13.87,13.87,0,0,1,2.11,2.22c.25.34.82,0,.57-.33-2.3-3.09-5.76-4.9-9.26-6.3-1-.4-2-.77-3-1.14-.41-.15-.58.49-.18.64Z" transform="translate(-85.99 -113.2)" style="fill:#26353f"/><path d="M208.19,186.33a9.12,9.12,0,0,1,7.53-4.2.34.34,0,0,0,0-.67,9.83,9.83,0,0,0-8.1,4.54c-.23.36.34.69.57.33Z" transform="translate(-85.99 -113.2)" style="fill:#26353f"/><path d="M200,214.87a24.56,24.56,0,0,1,6.82,8.83,24.28,24.28,0,0,1,1.12,3,.33.33,0,0,0,.63-.18,25.08,25.08,0,0,0-5.71-9.87,22.94,22.94,0,0,0-2.39-2.23c-.32-.27-.8.2-.47.47Z" transform="translate(-85.99 -113.2)" style="fill:#26353f"/><path d="M201.6,213.71a25.94,25.94,0,0,1,7.07,9.24,25.65,25.65,0,0,1,1.17,3.1.33.33,0,0,0,.64-.18,26.68,26.68,0,0,0-5.93-10.3,27.33,27.33,0,0,0-2.48-2.33c-.32-.27-.8.2-.47.47Z" transform="translate(-85.99 -113.2)" style="fill:#26353f"/><path d="M148.56,225.09A35,35,0,0,1,160,222.34c1.12-.07,2.24-.09,3.36-.05a.33.33,0,0,0,0-.66,35.58,35.58,0,0,0-11.94,1.67c-1.09.35-2.17.76-3.22,1.21-.4.17-.06.74.33.58Z" transform="translate(-85.99 -113.2)" style="fill:#26353f"/><path d="M149,222.22A51.7,51.7,0,0,1,160,220.69c1.05,0,2.1,0,3.15,0a.34.34,0,0,0,0-.67,53.14,53.14,0,0,0-11.26.86c-1.05.2-2.1.43-3.13.69-.42.1-.24.74.17.64Z" transform="translate(-85.99 -113.2)" style="fill:#26353f"/><path d="M268.26,205.09a5.72,5.72,0,0,0-3.8-3.34,5.26,5.26,0,0,0-2.67.09v-2.35H244.71v21.14h17.08v-8.55a5.52,5.52,0,0,0,1.34.29,5.27,5.27,0,0,0,4.64-2.27A5.11,5.11,0,0,0,268.26,205.09Zm-1.39,2.43v.07l-.07.32c0,.15-.09.3-.14.45l0,.07c-.05.09-.09.18-.13.26a3.87,3.87,0,0,1-.27.43l-.05.07-.19.22a4,4,0,0,1-.37.35l-.12.1-.18.13c-.14.09-.29.17-.44.25l-.17.08-.18.06a4.27,4.27,0,0,1-.48.13l-.15,0-.22,0a3.88,3.88,0,0,1-.59,0H263l-.28-.07c-.17,0-.33-.1-.49-.15,0,0-.14-.06-.18-.09a1.67,1.67,0,0,1-.23-.12v-6.27l.16-.09.08,0,.07,0a2.92,2.92,0,0,1,.36-.11l.23,0,.1,0,.43,0a1.64,1.64,0,0,1,.54,0s-.18,0-.08,0l.1,0,.23.05a4,4,0,0,1,.49.15l.08,0,.22.11.46.28.06,0,.2.18a4.54,4.54,0,0,1,.38.38l.16.19.05.07c.11.15.2.3.29.45l.12.22.06.14.07.17.09.27c0,.16.08.32.11.48a2.6,2.6,0,0,1,0,.36A3.57,3.57,0,0,1,266.87,207.52Z" transform="translate(-85.99 -113.2)" style="fill:#c2b48c"/><path d="M244.62,199.49c.17,1.47,4,2.65,8.63,2.65s8.46-1.18,8.63-2.65Z" transform="translate(-85.99 -113.2)" style="fill:#b7782f"/><path d="M251.6,197.66c.85-1.35.23-3.58-1-4.64-.87-.75-2.06-1-3-1.71s-1.45-2.2-.57-2.93,2-.11,3.06.15a1.07,1.07,0,0,0,.56,0c.58-.18.54-1,.43-1.59a11.44,11.44,0,0,1-.16-2.68,3.61,3.61,0,0,1,.7-2.17,1.58,1.58,0,0,1,2.07-.37,2.21,2.21,0,0,1,.62,1,14.14,14.14,0,0,1,.9,4.05,5.49,5.49,0,0,1,1.86-1.35,1.67,1.67,0,0,1,2,2.67,5.85,5.85,0,0,1-1.88,1.45c-.65.38-1.38,1-1.23,1.7s1.17,1.16,1.13,1.92c0,.55-.6.89-1.09,1.14a18.15,18.15,0,0,0-4.48,3.3Z" transform="translate(-85.99 -113.2)" style="fill:#c2b48c"/><path d="M253.12,208.51v5.71a.34.34,0,0,0,.67,0v-5.71a.34.34,0,0,0-.67,0Z" transform="translate(-85.99 -113.2)" style="fill:#fff"/><path d="M250.06,211.7h6.79a.34.34,0,0,0,0-.67h-6.79a.34.34,0,0,0,0,.67Z" transform="translate(-85.99 -113.2)" style="fill:#fff"/><path d="M255.06,209.29,251.38,213a.33.33,0,0,0,.47.47l3.68-3.68a.33.33,0,0,0-.47-.47Z" transform="translate(-85.99 -113.2)" style="fill:#fff"/><path d="M251,209.41l4.38,4.38a.33.33,0,0,0,.47-.47l-4.38-4.38a.33.33,0,0,0-.47.47Z" transform="translate(-85.99 -113.2)" style="fill:#fff"/><path d="M136.21,238.31l14.66,0,14.66.05c1.33,0,2.67-.05,4,0a3.05,3.05,0,0,1,1.71.5,1.43,1.43,0,0,1,.64,1.29c-.07.42.57.6.64.18a2.22,2.22,0,0,0-1.39-2.3,8.48,8.48,0,0,0-3.44-.35l-7.61,0-15.27-.05-8.59,0a.33.33,0,0,0,0,.66Z" transform="translate(-85.99 -113.2)" style="fill:#c2b48c"/><path d="M174.55,239.45c1.3-1.4,3.43-1.32,5.19-1.3l7.39.09,14.85.19,8.33.1a.33.33,0,0,0,0-.66l-15.06-.19-15.07-.19c-2.06,0-4.56-.17-6.1,1.49-.29.31.18.78.47.47Z" transform="translate(-85.99 -113.2)" style="fill:#c2b48c"/><path d="M176.69,239.37l13.52.08,13.53.08,7.61.05a.33.33,0,0,0,0-.66l-13.52-.09-13.53-.08-7.61-.05a.34.34,0,0,0,0,.67Z" transform="translate(-85.99 -113.2)" style="fill:#c2b48c"/><path d="M180.25,234a32.67,32.67,0,0,0-7,5.35.33.33,0,0,0,.47.47,32,32,0,0,1,6.89-5.25.33.33,0,0,0-.33-.57Z" transform="translate(-85.99 -113.2)" style="fill:#c2b48c"/><path d="M247.42,203.17a17.81,17.81,0,0,0,9.76.44,16.8,16.8,0,0,0,2.68-.88.33.33,0,0,0,.23-.4.34.34,0,0,0-.41-.24,17.19,17.19,0,0,1-12.09.44c-.4-.13-.58.51-.17.64Z" transform="translate(-85.99 -113.2)" style="fill:#998965"/><path d="M257.3,197l1.92-2.32c.46-.55,1-1.35.32-2-.2-.19-.49-.29-.68-.48s.24-.67.43-.83c.61-.54,1.35-.88,2-1.39a3,3,0,0,0,1.24-2.2.34.34,0,0,0-.67,0c0,1.59-2,2.24-3,3.12-.5.44-1,1.17-.43,1.76.2.2.48.3.68.49s0,.64-.18.87c-.67.84-1.37,1.65-2.06,2.48-.27.33.2.8.47.47Z" transform="translate(-85.99 -113.2)" style="fill:#c2b48c"/><path d="M249.4,197.19a2.83,2.83,0,0,0-.44-2,3.1,3.1,0,0,0-1.89-1.19,4.06,4.06,0,0,1-2.7-2.7,5.68,5.68,0,0,1-.31-2.28c0-.43-.64-.42-.66,0a6.21,6.21,0,0,0,1,3.82,4.54,4.54,0,0,0,1.41,1.35,4.29,4.29,0,0,0,.94.4,4,4,0,0,1,1.12.43,2.12,2.12,0,0,1,.89,2c-.06.42.58.6.64.18Z" transform="translate(-85.99 -113.2)" style="fill:#c2b48c"/><path d="M175.12,177.8l0,0,0,0-.05-.06,0,0,0-.08a.2.2,0,0,1,0,.07v-.08a.14.14,0,0,1,0,.09v-.08a.29.29,0,0,1,0,.09l0-.08a.41.41,0,0,1-.05.09l.05-.07-.05.06.06-.05,0,0,.07,0h0l.08,0-.05,0,.06.05s0,0,0,0l.05.06a.16.16,0,0,1,0-.07l0,.08a.29.29,0,0,1,0-.09v.08a.17.17,0,0,1,0-.1v.08a.24.24,0,0,1,0-.08l0,.07,0-.06,0,.06,0,0-.06.05.05,0-.08,0a.38.38,0,0,0,.22-.15.4.4,0,0,0,0-.24.36.36,0,0,0-.14-.18.33.33,0,0,0-.24,0l-.1,0a.73.73,0,0,0-.15.11.64.64,0,0,0-.13.26.62.62,0,0,0,.14.57.52.52,0,0,0,.11.1l.14.06.15,0a.8.8,0,0,0,.15,0,.72.72,0,0,0,.19-.11.4.4,0,0,0,.1-.12l0-.06.06-.15a.88.88,0,0,0,0-.16.5.5,0,0,0,0-.12.58.58,0,0,0-.24-.35.33.33,0,0,0-.24,0,.31.31,0,0,0-.18.14.27.27,0,0,0,0,.23.33.33,0,0,0,.14.19Z" transform="translate(-85.99 -113.2)" style="fill:#7e3933"/><path d="M180.14,155a2.72,2.72,0,0,0-2.13,2.72,2.21,2.21,0,0,0,2.32,2,2,2,0,0,0,1.46-.61c.44-.48.67-1.37,0-1.79a1.22,1.22,0,0,0-1.68.68,3.18,3.18,0,0,0-.19,1.95,3.65,3.65,0,0,0,2.87,2.84c.42.06.6-.58.18-.64a3,3,0,0,1-2.46-2.9c0-.44.09-1.1.51-1.34.17-.1.45-.11.52.12a.72.72,0,0,1-.23.61,1.31,1.31,0,0,1-1,.41,1.56,1.56,0,0,1-1.65-1.27,2,2,0,0,1,1.63-2.16c.42-.09.25-.73-.17-.64Z" transform="translate(-85.99 -113.2)" style="fill:#392011"/><path d="M168.38,169.81a12.15,12.15,0,0,1,1-5.59,16.32,16.32,0,0,1,4.21-5.93c4-3.26,10.31-3,14.66-.2s6.15,7.1,6.75,12.13c2-5,3.37-9.83,1.9-15a17.3,17.3,0,0,0-10.53-11.66,22.94,22.94,0,0,0-6.22-1.09c-4.63-.26-9.94.57-12.49,4.29a12.79,12.79,0,0,0-1.81,5.27c-1,5.8,1.11,12.06,2.52,17.77Z" transform="translate(-85.99 -113.2)" style="fill:#dc4445"/><path d="M168.4,158.94a19.46,19.46,0,0,1,7.4-4.95,19.25,19.25,0,0,1,14.77.58c.39.18.72-.4.34-.58a20.26,20.26,0,0,0-9.94-1.81,20,20,0,0,0-13,6.29c-.29.31.18.78.47.47Z" transform="translate(-85.99 -113.2)" style="fill:#922327"/><path d="M169.53,154c3.73-2.19,8-3.82,12.42-3.6a14,14,0,0,1,3.57.65c.41.14.59-.51.18-.64-4.33-1.39-9-.51-13.06,1.26a30.26,30.26,0,0,0-3.45,1.76.33.33,0,0,0,.34.57Z" transform="translate(-85.99 -113.2)" style="fill:#922327"/><path d="M176.48,148.29a48.24,48.24,0,0,1,7.19.71c.41.07.59-.57.17-.64a49.08,49.08,0,0,0-7.36-.74.34.34,0,0,0,0,.67Z" transform="translate(-85.99 -113.2)" style="fill:#922327"/><path d="M187.63,156.26a9.07,9.07,0,0,1,4.5,3.48c.24.35.81,0,.58-.34a9.9,9.9,0,0,0-4.91-3.78c-.4-.15-.57.49-.17.64Z" transform="translate(-85.99 -113.2)" style="fill:#922327"/><path d="M193.06,156.25l2.1,2.26a.33.33,0,0,0,.47-.47l-2.1-2.26a.32.32,0,0,0-.47,0,.34.34,0,0,0,0,.47Z" transform="translate(-85.99 -113.2)" style="fill:#922327"/><path d="M203.6,205.34l-.26,1.44a.34.34,0,0,0,.23.41A.34.34,0,0,0,204,207l.26-1.44a.34.34,0,0,0-.23-.41.34.34,0,0,0-.41.23Z" transform="translate(-85.99 -113.2)" style="fill:#26353f"/><path d="M204.8,206.16c-.2.7-.4,1.39-.61,2.08a.33.33,0,0,0,.64.18c.21-.7.41-1.39.61-2.08a.33.33,0,1,0-.64-.18Z" transform="translate(-85.99 -113.2)" style="fill:#26353f"/><path d="M207.72,197.56a9.5,9.5,0,0,0-.86,3.08.34.34,0,0,0,.33.34.34.34,0,0,0,.33-.34,8.51,8.51,0,0,1,.78-2.74.36.36,0,0,0-.12-.46.35.35,0,0,0-.46.12Z" transform="translate(-85.99 -113.2)" style="fill:#26353f"/><path d="M159.61,204.53a3.58,3.58,0,0,1,.53,1.93.34.34,0,0,0,.34.33.33.33,0,0,0,.33-.33,4.31,4.31,0,0,0-.63-2.26.33.33,0,0,0-.45-.12.34.34,0,0,0-.12.45Z" transform="translate(-85.99 -113.2)" style="fill:#26353f"/><path d="M157.76,196.53a3.06,3.06,0,0,1,.28.42l.12.21.06.13,0,.06s0,0,0,0a2.91,2.91,0,0,1,.16.5l.06.27v.07h0c0,.05,0,.1,0,.14a.33.33,0,0,0,.66,0,4.14,4.14,0,0,0-.93-2.3.33.33,0,0,0-.47,0,.34.34,0,0,0,0,.47Z" transform="translate(-85.99 -113.2)" style="fill:#26353f"/><path d="M162.65,208.54V210a.33.33,0,0,0,.33.33.35.35,0,0,0,.34-.33v-1.45a.35.35,0,0,0-.34-.34.34.34,0,0,0-.33.34Z" transform="translate(-85.99 -113.2)" style="fill:#26353f"/><path d="M157.71,212.65l0,0s0,0,0,0l0,.07a4.23,4.23,0,0,1,.12.51h0a.28.28,0,0,1,0,.09,1,1,0,0,1,0,.17,1.09,1.09,0,0,1,0,.18v.13s0,0,0,0a.38.38,0,0,0,0,.26.32.32,0,0,0,.19.15.34.34,0,0,0,.41-.23,3,3,0,0,0,0-.9,3.28,3.28,0,0,0-.24-.81.34.34,0,0,0-.46-.12.36.36,0,0,0-.12.46Z" transform="translate(-85.99 -113.2)" style="fill:#26353f"/><path d="M146.71,203.93a4.1,4.1,0,0,1,.58,2.32.34.34,0,0,0,.67,0,4.79,4.79,0,0,0-.68-2.66.33.33,0,0,0-.57.34Z" transform="translate(-85.99 -113.2)" style="fill:#26353f"/><path d="M148.33,211v1.66a.33.33,0,0,0,.33.33.34.34,0,0,0,.33-.33V211a.33.33,0,1,0-.66,0Z" transform="translate(-85.99 -113.2)" style="fill:#26353f"/><path d="M150.86,211.78a1.68,1.68,0,0,0,.47,1.76.33.33,0,0,0,.47,0,.32.32,0,0,0,0-.46l-.13-.14,0,0-.05-.07a.41.41,0,0,0,0-.09l0,0s0,0,0,0v0a.32.32,0,0,1,0-.09.31.31,0,0,1,0-.08v-.06s0,0,0,0,0-.07,0-.1v-.09a.38.38,0,0,1,0-.1h0c0,.05,0,0,0,0a1.46,1.46,0,0,1,.05-.2.34.34,0,0,0-.23-.4.33.33,0,0,0-.41.23Z" transform="translate(-85.99 -113.2)" style="fill:#26353f"/><path d="M167.47,199.57a2.85,2.85,0,0,1,.23.37s.05.12,0,0l0,.08.06.2a.85.85,0,0,1,0,.22c0-.09,0,0,0,0v.1a.81.81,0,0,1,0,.22v.11s0,0,0,0V201a.33.33,0,0,0,.64.18,2.45,2.45,0,0,0-.45-1.91.35.35,0,0,0-.2-.16.32.32,0,0,0-.25,0,.33.33,0,0,0-.12.45Z" transform="translate(-85.99 -113.2)" style="fill:#26353f"/><path d="M169.67,202.2l.21.63a.33.33,0,0,0,.16.19.32.32,0,0,0,.25,0,.38.38,0,0,0,.2-.15.34.34,0,0,0,0-.26l-.21-.62a.3.3,0,0,0-.15-.2.31.31,0,0,0-.25,0,.3.3,0,0,0-.2.15.36.36,0,0,0,0,.25Z" transform="translate(-85.99 -113.2)" style="fill:#26353f"/><path d="M162.23,182.47l.42,1a.37.37,0,0,0,.15.2.34.34,0,0,0,.26,0,.29.29,0,0,0,.19-.15.34.34,0,0,0,0-.26l-.42-1a.38.38,0,0,0-.15-.2.34.34,0,0,0-.26,0,.3.3,0,0,0-.2.15.31.31,0,0,0,0,.25Z" transform="translate(-85.99 -113.2)" style="fill:#26353f"/><path d="M164.1,183.62a1.57,1.57,0,0,0,.81,1.5.34.34,0,0,0,.45-.12.32.32,0,0,0-.11-.45.56.56,0,0,1-.15-.1s.05,0,0,0l-.09-.09-.06-.06s0,0,0,0l-.09-.15a.43.43,0,0,0,0-.07v0a1.89,1.89,0,0,1-.06-.21s0-.13,0,0v-.08a.54.54,0,0,1,0-.18.29.29,0,0,0-.1-.23.33.33,0,0,0-.23-.1.34.34,0,0,0-.33.33Z" transform="translate(-85.99 -113.2)" style="fill:#26353f"/><path d="M200.23,184.87a2.66,2.66,0,0,0,.26,1.41.35.35,0,0,0,.46.12.34.34,0,0,0,.11-.46l0-.08c0-.07,0,.07,0,0l-.06-.14c0-.1-.05-.2-.07-.3s0-.07,0-.07,0,.06,0,0a1.49,1.49,0,0,1,0-.19c0-.11,0-.21,0-.31a.31.31,0,0,0-.33-.33.33.33,0,0,0-.23.09.37.37,0,0,0-.1.24Z" transform="translate(-85.99 -113.2)" style="fill:#26353f"/><path d="M201.51,185.94a1.7,1.7,0,0,0-.22,1.3.34.34,0,0,0,.41.23.35.35,0,0,0,.23-.41.5.5,0,0,1,0-.12V187a1.09,1.09,0,0,1,0-.36v.09a.9.9,0,0,1,.09-.33l0,.08a1.71,1.71,0,0,1,.13-.23.35.35,0,0,0-.12-.46.36.36,0,0,0-.46.12Z" transform="translate(-85.99 -113.2)" style="fill:#26353f"/><path d="M214.07,218.6c-.11.49-.22,1-.34,1.47a.35.35,0,0,0,.24.41.33.33,0,0,0,.4-.23c.12-.49.23-1,.34-1.47a.33.33,0,1,0-.64-.18Z" transform="translate(-85.99 -113.2)" style="fill:#26353f"/><path d="M216.24,219.66a5.66,5.66,0,0,0-.23,2.16.33.33,0,0,0,.33.33.32.32,0,0,0,.33-.33,5.1,5.1,0,0,1,.21-2,.34.34,0,0,0-.23-.41.35.35,0,0,0-.41.23Z" transform="translate(-85.99 -113.2)" style="fill:#26353f"/></svg>