<svg id="Layer_1" data-name="Layer 1" xmlns="http://www.w3.org/2000/svg" viewBox="0 0 484.31 263.79"><circle cx="131.9" cy="131.9" r="130.9" style="fill:none;stroke:#231f20;stroke-miterlimit:10;stroke-width:2px"/><path d="M20.41,168.11l20.28,2.67v-.07l-19.79-9,.51-6.64,25.46,13.47-.6,7.89L19.9,174.75Z" transform="translate(-12.11 -48.1)" style="fill:#005994"/><path d="M26.05,140.28l24.18,12-1.57,6-24.18-12Z" transform="translate(-12.11 -48.1)" style="fill:#005994"/><path d="M38.82,123.5a1.53,1.53,0,0,0-2,1,2.51,2.51,0,0,0-.23,1.65,4,4,0,0,0,1,1.68,16.92,16.92,0,0,0,2.2,2.07c1,.76,2.13,1.68,3.54,2.74q2.41,1.82,4,2.91A14,14,0,0,0,50,137.06a2.23,2.23,0,0,0,1.64.15,2.05,2.05,0,0,0,1-1.12,2.28,2.28,0,0,0,.18-1.53A4,4,0,0,0,52,133a11.8,11.8,0,0,0-1.58-1.61c-.65-.56-1.4-1.16-2.24-1.8l2.52-5.43.76.55a22.59,22.59,0,0,1,3.09,2.76,10,10,0,0,1,2,3.19,9,9,0,0,1,.53,3.83,13.54,13.54,0,0,1-1.36,4.72,7.86,7.86,0,0,1-2.84,3.63,4.91,4.91,0,0,1-3.48.55,12.48,12.48,0,0,1-4.06-1.71c-1.45-.89-3-1.94-4.63-3.16q-2.1-1.55-4-3.21a14.73,14.73,0,0,1-3.08-3.63,9.67,9.67,0,0,1-1.36-4.36A10.9,10.9,0,0,1,33.49,122a12.08,12.08,0,0,1,1.9-3,4.88,4.88,0,0,1,2.35-1.5,5.28,5.28,0,0,1,2.87.15,11.92,11.92,0,0,1,3.48,1.9l.9.71-2.53,5.43A12.84,12.84,0,0,0,38.82,123.5Z" transform="translate(-12.11 -48.1)" style="fill:#005994"/><path d="M46.51,111.45l-3.39-3.87L53.58,93.79,57,97.65l-3.36,4.42L68,118.53l-3.75,5L49.86,107Z" transform="translate(-12.11 -48.1)" style="fill:#005994"/><path d="M83.4,92.74a15,15,0,0,1,1.31,4.66,9.47,9.47,0,0,1-.65,4.5,11.56,11.56,0,0,1-3.38,4.36,9.32,9.32,0,0,1-4.19,2.32A5,5,0,0,1,73,108a10.83,10.83,0,0,1-3.11-3,48,48,0,0,1-3-4.89,54.51,54.51,0,0,1-2.56-5.28A15,15,0,0,1,63.13,90a8.79,8.79,0,0,1,.76-4.28,12,12,0,0,1,3.25-4.06,10.73,10.73,0,0,1,3.1-2,5.55,5.55,0,0,1,2.65-.39,5.09,5.09,0,0,1,2.3.9,11,11,0,0,1,2.07,1.9,19.32,19.32,0,0,1,1.91,2.68c.59,1,1.19,2,1.79,3.12C81.87,89.56,82.68,91.17,83.4,92.74Zm-9.32,7.12a14.78,14.78,0,0,0,1.73,2.39,2.44,2.44,0,0,0,1.43.87,1.85,1.85,0,0,0,1.36-.54,2.72,2.72,0,0,0,.91-1.41,4,4,0,0,0-.11-2,16.7,16.7,0,0,0-1.14-2.9q-.83-1.71-2.19-4.14c-.89-1.61-1.66-2.94-2.33-4A15.49,15.49,0,0,0,72,85.74a2.33,2.33,0,0,0-1.45-.86,1.89,1.89,0,0,0-1.38.55,2.59,2.59,0,0,0-.88,1.39,4.25,4.25,0,0,0,.14,2,16.72,16.72,0,0,0,1.15,2.91c.56,1.14,1.29,2.52,2.18,4.12S73.43,98.8,74.08,99.86Z" transform="translate(-12.11 -48.1)" style="fill:#005994"/><path d="M94.07,66.1a7.57,7.57,0,0,1,3.14-1,4.36,4.36,0,0,1,2.36.5,4.53,4.53,0,0,1,1.65,1.61,8.68,8.68,0,0,1,1,2.4,8.92,8.92,0,0,1,.2,4.84A7.05,7.05,0,0,1,100,78l0,.07a4.57,4.57,0,0,1,2.28-.29,2.65,2.65,0,0,1,1.49.81,5.3,5.3,0,0,1,1,1.69q.41,1,.78,2.34c.39,1.3.69,2.31.93,3a11.19,11.19,0,0,0,.63,1.65,1.63,1.63,0,0,0,.53.67,1.25,1.25,0,0,0,.59.13l.11.31-6,3a4.26,4.26,0,0,1-1-1.62,30.61,30.61,0,0,1-1-3.36c-.32-1.11-.62-2-.89-2.68a5.45,5.45,0,0,0-.84-1.49,1.26,1.26,0,0,0-.93-.46,2.54,2.54,0,0,0-1.15.34l-2.11,1.08,3,10.74L91.9,96.86l-7.13-26Zm.94,12a3.85,3.85,0,0,0,1.29-1,3.85,3.85,0,0,0,.84-2.59,5.45,5.45,0,0,0-.2-1.25,3.56,3.56,0,0,0-1.27-2q-.87-.6-2.52.24l-1.68.86L93.3,79Z" transform="translate(-12.11 -48.1)" style="fill:#005994"/><path d="M109,60.8l6.67-1.7L119,68.37l.07,0,2.48-10.76L128,55.94l-5.74,18,.5,10.6-6,1.54-.49-10.6Z" transform="translate(-12.11 -48.1)" style="fill:#005994"/><path d="M153,75.51a5.82,5.82,0,0,0-.32,1.38,2.35,2.35,0,0,0,.31,1.58,2.07,2.07,0,0,0,1.62.73,3.23,3.23,0,0,0,1.42-.14,3.36,3.36,0,0,0,1.09-.62,3.56,3.56,0,0,0,.78-.94,6,6,0,0,0,.47-1.09,2.68,2.68,0,0,0,.06-1.76,3.09,3.09,0,0,0-.91-1.28,7.26,7.26,0,0,0-1.56-1c-.6-.31-1.2-.64-1.81-1a17.51,17.51,0,0,1-1.76-1.19A5.18,5.18,0,0,1,151,68.55a5.6,5.6,0,0,1-.64-2.23,8.4,8.4,0,0,1,.44-3.1,10.88,10.88,0,0,1,1.36-2.88,8.06,8.06,0,0,1,2.22-2.25,9.73,9.73,0,0,1,3.19-1.38,12.21,12.21,0,0,1,4.22-.22,11.36,11.36,0,0,1,3.76.92,5.32,5.32,0,0,1,2.13,1.75,4.48,4.48,0,0,1,.73,2.38,8.16,8.16,0,0,1-.44,2.8l-.17.62-6-.59a4.86,4.86,0,0,0,.3-2.76q-.24-.95-1.56-1.08-2.48-.24-3.34,2.54a2.44,2.44,0,0,0,.16,2.19,5.39,5.39,0,0,0,1.67,1.52c.73.44,1.53.88,2.4,1.33a8.9,8.9,0,0,1,2.29,1.64,5.38,5.38,0,0,1,1.4,2.44,6.68,6.68,0,0,1-.29,3.74c-.93,2.93-2.38,4.95-4.33,6.06a12,12,0,0,1-7.2,1.25,17.12,17.12,0,0,1-3.14-.6,6.44,6.44,0,0,1-2.46-1.32,4.25,4.25,0,0,1-1.3-2.25,6.4,6.4,0,0,1,.31-3.39l.54-1.65,6,.58Z" transform="translate(-12.11 -48.1)" style="fill:#005994"/><path d="M188.5,69.18a1.54,1.54,0,0,0-1.25-1.82,2.57,2.57,0,0,0-1.66,0A4.16,4.16,0,0,0,184,68.45a16.66,16.66,0,0,0-1.8,2.42q-1,1.55-2.33,3.82-1.54,2.61-2.44,4.32a14.44,14.44,0,0,0-1.19,2.78,2.25,2.25,0,0,0,0,1.65,2,2,0,0,0,1.22.88,2.32,2.32,0,0,0,1.54,0,4,4,0,0,0,1.43-1,10.83,10.83,0,0,0,1.42-1.75c.49-.7,1-1.52,1.54-2.43l5.69,1.9-.47.82a22.07,22.07,0,0,1-2.4,3.38,10.06,10.06,0,0,1-2.94,2.33,9.08,9.08,0,0,1-3.76,1,13.58,13.58,0,0,1-4.83-.82,7.72,7.72,0,0,1-3.93-2.43,4.85,4.85,0,0,1-.94-3.39,12.68,12.68,0,0,1,1.24-4.23q1.08-2.31,2.63-4.95c.87-1.51,1.78-3,2.74-4.34A15.31,15.31,0,0,1,179.75,65a9.82,9.82,0,0,1,4.18-1.84,11.12,11.12,0,0,1,5.48.6,11.93,11.93,0,0,1,3.2,1.56,4.77,4.77,0,0,1,1.76,2.17,5.24,5.24,0,0,1,.17,2.87A11.83,11.83,0,0,1,193,74l-.6,1-5.68-1.9A13.29,13.29,0,0,0,188.5,69.18Z" transform="translate(-12.11 -48.1)" style="fill:#005994"/><path d="M211.85,76l-7,7.3,4.21,2.62,7-7.31,5.29,3.27-18.57,19.57-5.28-3.27,7.92-8.36-4.21-2.62-7.93,8.37L188,92.29l18.57-19.57Z" transform="translate(-12.11 -48.1)" style="fill:#005994"/><path d="M226.71,113.33a14.69,14.69,0,0,1-4.55,1.63,9.38,9.38,0,0,1-4.54-.32,11.56,11.56,0,0,1-4.58-3.06,9.32,9.32,0,0,1-2.62-4,5,5,0,0,1,.38-3.53,10.61,10.61,0,0,1,2.81-3.32,48.23,48.23,0,0,1,4.66-3.36,53.18,53.18,0,0,1,5.09-2.93,15.24,15.24,0,0,1,4.6-1.5,8.87,8.87,0,0,1,4.33.45,12,12,0,0,1,4.27,3,10.75,10.75,0,0,1,2.2,3,5.62,5.62,0,0,1,.57,2.61,5,5,0,0,1-.73,2.36,10.9,10.9,0,0,1-1.75,2.2,18.63,18.63,0,0,1-2.54,2.09c-.95.67-1.95,1.34-3,2Q229,112.09,226.71,113.33Zm-7.76-8.8a15,15,0,0,0-2.26,1.9,2.44,2.44,0,0,0-.77,1.49,1.81,1.81,0,0,0,.64,1.32,2.7,2.7,0,0,0,1.47.81,4,4,0,0,0,2-.25,17.26,17.26,0,0,0,2.81-1.35c1.09-.63,2.42-1.45,4-2.47s2.82-1.87,3.82-2.61a16.43,16.43,0,0,0,2.27-1.92,2.36,2.36,0,0,0,.75-1.5,1.89,1.89,0,0,0-.65-1.34,2.51,2.51,0,0,0-1.45-.78,4.21,4.21,0,0,0-2,.28,15.78,15.78,0,0,0-2.82,1.35q-1.65,1-4,2.47T219,104.53Z" transform="translate(-12.11 -48.1)" style="fill:#005994"/><path d="M240.09,134.63a14.78,14.78,0,0,1-4.81.53,9.51,9.51,0,0,1-4.33-1.38,11.58,11.58,0,0,1-3.74-4.05,9.35,9.35,0,0,1-1.61-4.52,5,5,0,0,1,1.2-3.35,10.65,10.65,0,0,1,3.51-2.57,47.7,47.7,0,0,1,5.32-2.18,54.92,54.92,0,0,1,5.64-1.65,14.81,14.81,0,0,1,4.82-.38,8.81,8.81,0,0,1,4.1,1.45,11.92,11.92,0,0,1,3.47,3.88,11,11,0,0,1,1.44,3.38,5.67,5.67,0,0,1,0,2.67,5.2,5.2,0,0,1-1.27,2.13,10.74,10.74,0,0,1-2.22,1.73,18.5,18.5,0,0,1-3,1.44c-1.08.42-2.2.84-3.37,1.26Q242.61,134,240.09,134.63Zm-5.49-10.37a14.57,14.57,0,0,0-2.64,1.32,2.39,2.39,0,0,0-1.09,1.26,1.82,1.82,0,0,0,.3,1.44,2.77,2.77,0,0,0,1.25,1.13,4,4,0,0,0,2,.22,16.86,16.86,0,0,0,3.05-.65c1.21-.36,2.69-.85,4.44-1.48s3.18-1.16,4.33-1.64a15.24,15.24,0,0,0,2.65-1.34,2.32,2.32,0,0,0,1.08-1.28,1.89,1.89,0,0,0-.31-1.45,2.6,2.6,0,0,0-1.23-1.1,4.21,4.21,0,0,0-2-.19,17.08,17.08,0,0,0-3.06.66c-1.22.36-2.7.85-4.43,1.47S235.75,123.8,234.6,124.26Z" transform="translate(-12.11 -48.1)" style="fill:#005994"/><path d="M263.28,145.16l-21.69,2.61,2.87,8.52-5.1.63-4.85-14.41,26.79-3.25Z" transform="translate(-12.11 -48.1)" style="fill:#005994"/><path d="M248,166.71a6.92,6.92,0,0,0-1.42,0,2.44,2.44,0,0,0-1.47.64,2.08,2.08,0,0,0-.38,1.73,3.24,3.24,0,0,0,1.27,2.3,3.37,3.37,0,0,0,1.08.56,5.7,5.7,0,0,0,1.17.25,2.78,2.78,0,0,0,1.73-.31,3.1,3.1,0,0,0,1.06-1.17,7.8,7.8,0,0,0,.68-1.73c.17-.65.37-1.31.59-2a15.94,15.94,0,0,1,.8-2,5.18,5.18,0,0,1,1.29-1.68,5.63,5.63,0,0,1,2.05-1.09,8.61,8.61,0,0,1,3.12-.22,11.59,11.59,0,0,1,3.1.73,8,8,0,0,1,2.67,1.71,9.67,9.67,0,0,1,2,2.82,12.51,12.51,0,0,1,1.1,4.09,11.39,11.39,0,0,1-.12,3.86,5.2,5.2,0,0,1-1.27,2.45,4.46,4.46,0,0,1-2.17,1.22,8.2,8.2,0,0,1-2.83.15l-.64,0-.67-5.95a4.85,4.85,0,0,0,2.76-.28c.59-.29.83-.87.73-1.76q-.28-2.46-3.18-2.73a2.44,2.44,0,0,0-2.11.61,5.56,5.56,0,0,0-1.13,2c-.29.8-.55,1.67-.8,2.62a9.11,9.11,0,0,1-1.13,2.58,5.31,5.31,0,0,1-2.09,1.88,6.82,6.82,0,0,1-3.73.5c-3.06-.3-5.33-1.29-6.83-3a12,12,0,0,1-2.72-6.78,16.43,16.43,0,0,1-.07-3.2,6.43,6.43,0,0,1,.78-2.67,4.33,4.33,0,0,1,1.93-1.75,6.31,6.31,0,0,1,3.37-.4l1.74.17.67,6Z" transform="translate(-12.11 -48.1)" style="fill:#005994"/><circle cx="131.92" cy="132.02" r="93.31" style="fill:#fff200;stroke:#231f20;stroke-miterlimit:10;stroke-width:2px"/><path d="M66.94,246.6,42.56,258.16l-3.75-5,24.38-11.56Z" transform="translate(-12.11 -48.1)" style="fill:#005994"/><path d="M82.7,261.49l-15.46,10.8A15.43,15.43,0,0,1,64.11,274a8.73,8.73,0,0,1-3.23.64,8.29,8.29,0,0,1-3.29-.68,11.82,11.82,0,0,1-3.33-2.27q-3-2.88-2.8-5.26c.17-1.59,1.22-3.06,3.17-4.41l1.36-1,4.2,4-1,.66a12.49,12.49,0,0,0-1.08.79,3.68,3.68,0,0,0-.8.84,1.5,1.5,0,0,0-.25.92,1.61,1.61,0,0,0,.58,1,1.83,1.83,0,0,0,1,.53,2.75,2.75,0,0,0,1.19-.12,7.15,7.15,0,0,0,1.33-.63c.47-.29,1-.61,1.47-1l15.47-10.8Z" transform="translate(-12.11 -48.1)" style="fill:#005994"/><path d="M101.85,272.7l-3.51,3.75-7.74-4.72-3.7,3.93,7.26,4.44-3.51,3.75-7.26-4.43-4.22,4.49,8.09,4.93-3.51,3.76-13.39-8.18,18.45-19.69Z" transform="translate(-12.11 -48.1)" style="fill:#005994"/><path d="M117,277.36a7.19,7.19,0,0,1,4.32,3.16c.73,1.39.53,3-.6,5a8.3,8.3,0,0,1-3.09,3.13,5.92,5.92,0,0,1-3.9.79l-.06.06a8.56,8.56,0,0,1,1.33.86,3,3,0,0,1,1,1.37,4.21,4.21,0,0,1,.16,2.08,8.65,8.65,0,0,1-1.2,3,11.72,11.72,0,0,1-1.6,2.06,7.68,7.68,0,0,1-2.42,1.68,9,9,0,0,1-3.44.73,13.09,13.09,0,0,1-4.6-.81l-8.7-3,13.67-23.27Zm-12.79,18.72a3.69,3.69,0,0,0,3-.05,4.84,4.84,0,0,0,2-1.89,3.27,3.27,0,0,0,.6-2.81,2.73,2.73,0,0,0-1.79-1.5l-1.9-.64-3.69,6.29Zm5.69-10a3.36,3.36,0,0,0,2.65,0,4.27,4.27,0,0,0,1.81-1.77,3.17,3.17,0,0,0,.4-.92,1.91,1.91,0,0,0,0-1,1.89,1.89,0,0,0-.54-.88,3.06,3.06,0,0,0-1.21-.69l-1.65-.56-3.07,5.26Z" transform="translate(-12.11 -48.1)" style="fill:#005994"/><path d="M141.48,302.39a9.1,9.1,0,0,1-2.17,2.73,8.69,8.69,0,0,1-3.25,1.66,12.62,12.62,0,0,1-4.6.29,10.75,10.75,0,0,1-4.19-1.11,4.72,4.72,0,0,1-2-2.17,5.82,5.82,0,0,1-.4-3,19.68,19.68,0,0,1,.77-3.59L130.92,280l6.19.59-5.9,19a4,4,0,0,0-.1,2.43,1.69,1.69,0,0,0,1.59,1,2.64,2.64,0,0,0,2.13-.67,5,5,0,0,0,1.32-2.31l5.9-19,6.19.59-5.33,17.26A20.81,20.81,0,0,1,141.48,302.39Z" transform="translate(-12.11 -48.1)" style="fill:#005994"/><path d="M163.73,292.57l-.57,5.11L152,298.77l.58-5.11Z" transform="translate(-12.11 -48.1)" style="fill:#005994"/><path d="M189.81,290.75a15,15,0,0,1-.67,4.79,9.38,9.38,0,0,1-2.4,3.86A11.52,11.52,0,0,1,181.9,302a9.26,9.26,0,0,1-4.77.45,4.91,4.91,0,0,1-2.95-2,10.7,10.7,0,0,1-1.64-4,46.86,46.86,0,0,1-.8-5.7,53.16,53.16,0,0,1-.23-5.87,15.26,15.26,0,0,1,.81-4.77,8.84,8.84,0,0,1,2.41-3.62,12,12,0,0,1,4.6-2.41,11,11,0,0,1,3.64-.57,5.66,5.66,0,0,1,2.58.71A5.11,5.11,0,0,1,187.3,276a10.87,10.87,0,0,1,1.13,2.58,18.87,18.87,0,0,1,.67,3.22c.15,1.15.28,2.34.4,3.57C189.68,287.22,189.78,289,189.81,290.75Zm-11.4,2.78a15.06,15.06,0,0,0,.63,2.89,2.46,2.46,0,0,0,1,1.37,1.88,1.88,0,0,0,1.47,0,2.72,2.72,0,0,0,1.4-.93,4,4,0,0,0,.7-1.88,16.22,16.22,0,0,0,.12-3.11c-.05-1.26-.17-2.82-.35-4.67s-.35-3.36-.53-4.59a15.57,15.57,0,0,0-.65-2.9,2.39,2.39,0,0,0-1-1.37,1.93,1.93,0,0,0-1.49,0,2.56,2.56,0,0,0-1.36.91,4.34,4.34,0,0,0-.67,1.87,17.4,17.4,0,0,0-.11,3.13c.06,1.27.17,2.82.34,4.65S178.25,292.31,178.41,293.53Z" transform="translate(-12.11 -48.1)" style="fill:#005994"/><path d="M201.32,263.53a10.05,10.05,0,0,1,3.63-1.38,4.45,4.45,0,0,1,3,.64,8.3,8.3,0,0,1,2.61,2.89,29.16,29.16,0,0,1,2.35,5.35,56.31,56.31,0,0,1,1.77,6.19,14.34,14.34,0,0,1,.3,4.92,8.27,8.27,0,0,1-1.63,3.95,13.2,13.2,0,0,1-3.93,3.31l-7.4,4.35-8.67-25.55Zm6,21.8a5.41,5.41,0,0,0,1.5-1.22,3.18,3.18,0,0,0,.6-1.82,11.19,11.19,0,0,0-.34-3q-.42-1.85-1.38-4.71c-.53-1.54-1-2.81-1.43-3.79a7.67,7.67,0,0,0-1.28-2.17,1.81,1.81,0,0,0-1.4-.67,4,4,0,0,0-1.85.65l-1.5.88,5.65,16.68Z" transform="translate(-12.11 -48.1)" style="fill:#005994"/><path d="M224.15,243.8l2.68,4.38-6.62,6.2L223,259l6.22-5.81,2.68,4.38-6.22,5.81,3.2,5.26,6.92-6.46,2.68,4.38L227,277.27l-14-23Z" transform="translate(-12.11 -48.1)" style="fill:#005994"/><path d="M32.6,219.18a.83.83,0,0,1-1.17-.92l1.3-7.42-5.52-5.26a.87.87,0,0,1,.45-1.49L35.33,203l3.43-6.78a.8.8,0,0,1,1.45,0L43.63,203l7.68,1.09a.87.87,0,0,1,.44,1.49l-5.52,5.26,1.3,7.42a.83.83,0,0,1-1.17.92l-6.88-3.53-6.88,3.53Z" transform="translate(-12.11 -48.1)" style="fill:#ed1c24"/><path d="M247.37,219.18a.82.82,0,0,1-1.16-.92l1.3-7.42L242,205.58a.88.88,0,0,1,.45-1.49l7.68-1.09,3.42-6.78a.8.8,0,0,1,1.45,0l3.43,6.78,7.67,1.09a.87.87,0,0,1,.44,1.49L261,210.84l1.3,7.42a.82.82,0,0,1-1.16.92l-6.89-3.53-6.88,3.53Z" transform="translate(-12.11 -48.1)" style="fill:#ed1c24"/><path d="M199.45,151.77h-7.21V133.89a1.23,1.23,0,0,0-.39-.9,1.21,1.21,0,0,0-.92-.35A73,73,0,0,0,144,151.47a72.93,72.93,0,0,0-46.93-18.83,1.17,1.17,0,0,0-.92.35,1.22,1.22,0,0,0-.38.9v17.88H87.29v67.6H199.45a1.27,1.27,0,0,0,1.26-1.26V153A1.27,1.27,0,0,0,199.45,151.77Zm-54.19,1.94a70.49,70.49,0,0,1,44.45-18.5v62.43a72.75,72.75,0,0,0-44.45,17.68Zm-47-18.5a70.49,70.49,0,0,1,44.46,18.5v61.61a72.75,72.75,0,0,0-44.46-17.68Zm-8.47,19.08h6v44.56A1.26,1.26,0,0,0,97,200.11a70.26,70.26,0,0,1,43.66,16.73H89.81Zm108.38,62.55H147.36A70.32,70.32,0,0,1,191,200.11a1.26,1.26,0,0,0,1.22-1.26V154.29h5.95Z" transform="translate(-12.11 -48.1)" style="fill:#010101"/><path d="M77,146.39l6.71,15.23a3.05,3.05,0,0,0,3.46,1.52,76.07,76.07,0,0,0,32.59-14.37,3,3,0,0,0,1.2-3.58L114.24,130Z" transform="translate(-12.11 -48.1)" style="fill:#231f20"/><ellipse cx="71.93" cy="164.01" rx="2.71" ry="2.28" transform="translate(-72.18 -5.13) rotate(-23.8)" style="fill:#231f20"/><path d="M126,120.32l-25.38,20.74a13.09,13.09,0,0,1-6.32,2.78L61.91,148.6a1,1,0,0,1-.76-1.72l25.38-20.74a13.09,13.09,0,0,1,6.32-2.78l32.43-4.76A1,1,0,0,1,126,120.32Z" transform="translate(-12.11 -48.1)" style="fill:#231f20"/><path d="M104.58,158.51a78.1,78.1,0,0,0,15.64-9.23,3.78,3.78,0,0,0,1.48-4.42L115,129.63a.83.83,0,0,0-1.49.66l6.72,15.23a2.34,2.34,0,0,1-.93,2.73,75.48,75.48,0,0,1-32.19,14.2,2.34,2.34,0,0,1-2.64-1.16l-6.72-15.23a.75.75,0,0,0-1-.3.77.77,0,0,0-.47,1L83,161.94a3.77,3.77,0,0,0,4.26,1.9A78.18,78.18,0,0,0,104.58,158.51Z" transform="translate(-12.11 -48.1)" style="fill:#231f20"/><path d="M98,143.51a14.1,14.1,0,0,0,3.19-2l25.39-20.74a1.73,1.73,0,0,0,.61-2,1.71,1.71,0,0,0-1.9-.9l-32.43,4.76a14,14,0,0,0-6.78,3L60.65,146.39a1.73,1.73,0,0,0-.61,2,1.71,1.71,0,0,0,1.9.9l32.43-4.76A13.94,13.94,0,0,0,98,143.51ZM89.78,125a12,12,0,0,1,3.1-.89l32.43-4.76a.29.29,0,0,1,.24.52h0l-25.39,20.74a11.88,11.88,0,0,1-5.85,2.58l-32.43,4.77a.31.31,0,0,1-.35-.17.29.29,0,0,1,.12-.36L87,126.64A12.18,12.18,0,0,1,89.78,125Z" transform="translate(-12.11 -48.1)" style="fill:#231f20"/><path d="M71.29,162.55a.76.76,0,0,0,.47-1l-6.08-13.77a.75.75,0,0,0-1-.3.77.77,0,0,0-.47,1l6.08,13.77A.75.75,0,0,0,71.29,162.55Z" transform="translate(-12.11 -48.1)" style="fill:#231f20"/><path d="M73.13,166.73a3,3,0,1,0-4.42-1.29A3.29,3.29,0,0,0,73.13,166.73Zm-1.84-4.18a1.62,1.62,0,1,1-1.09,2.23A1.77,1.77,0,0,1,71.29,162.55Z" transform="translate(-12.11 -48.1)" style="fill:#231f20"/><path d="M75.22,171.47a.77.77,0,0,0,.47-1l-2.09-4.74a.76.76,0,0,0-1-.3.75.75,0,0,0-.47,1l2.09,4.74A.75.75,0,0,0,75.22,171.47Z" transform="translate(-12.11 -48.1)" style="fill:#231f20"/><path d="M91.89,242.77v8.52H90.22v-8.52Z" transform="translate(-12.11 -48.1)" style="fill:#ed1c24"/><path d="M94.77,251.28v-8.51h2l3.17,6.53-.14.15v-6.68h1.54v8.51h-2l-3.15-6.43.14-.15v6.58Z" transform="translate(-12.11 -48.1)" style="fill:#ed1c24"/><path d="M111.76,246.52h2.95v1.67a3.47,3.47,0,0,1-.39,1.68,2.63,2.63,0,0,1-1.08,1.11,3.25,3.25,0,0,1-1.63.4A3.46,3.46,0,0,1,110,251a2.6,2.6,0,0,1-1.09-1,3.14,3.14,0,0,1-.39-1.58v-2.52a3.52,3.52,0,0,1,.38-1.67,2.75,2.75,0,0,1,1.08-1.11,3.22,3.22,0,0,1,1.64-.4A3.17,3.17,0,0,1,113,243a3,3,0,0,1,1.07.88,3.27,3.27,0,0,1,.58,1.33h-1.73a1.1,1.1,0,0,0-.52-.64,1.55,1.55,0,0,0-.81-.23,1.38,1.38,0,0,0-1,.42,1.56,1.56,0,0,0-.39,1.1v2.52a1.26,1.26,0,0,0,.41,1,1.51,1.51,0,0,0,1.06.36,1.4,1.4,0,0,0,1-.39,1.5,1.5,0,0,0,.4-1.11v-.14h-1.29Z" transform="translate(-12.11 -48.1)" style="fill:#ed1c24"/><path d="M120.24,251.38a3.34,3.34,0,0,1-1.64-.39,2.72,2.72,0,0,1-1.08-1.1,3.38,3.38,0,0,1-.39-1.65v-2.42a3.35,3.35,0,0,1,.39-1.65,2.72,2.72,0,0,1,1.08-1.1,3.64,3.64,0,0,1,3.28,0,2.72,2.72,0,0,1,1.08,1.1,3.35,3.35,0,0,1,.39,1.65v2.42a3.38,3.38,0,0,1-.39,1.65,2.72,2.72,0,0,1-1.08,1.1A3.32,3.32,0,0,1,120.24,251.38Zm0-1.61a1.39,1.39,0,0,0,1.05-.41,1.46,1.46,0,0,0,.4-1.08v-2.5a1.48,1.48,0,0,0-.4-1.09,1.58,1.58,0,0,0-2.1,0,1.48,1.48,0,0,0-.4,1.09v2.5a1.46,1.46,0,0,0,.4,1.08A1.39,1.39,0,0,0,120.24,249.77Z" transform="translate(-12.11 -48.1)" style="fill:#ed1c24"/><path d="M126.06,251.29v-8.52h1.61v8.52Zm.81,0v-1.55h2a1.82,1.82,0,0,0,1.22-.38,1.37,1.37,0,0,0,.43-1.08v-2.51a1.34,1.34,0,0,0-.43-1.07,1.77,1.77,0,0,0-1.22-.38h-2v-1.55h2a3.55,3.55,0,0,1,2.48.8,2.87,2.87,0,0,1,.88,2.25v2.42a3.28,3.28,0,0,1-.38,1.59,2.52,2.52,0,0,1-1.12,1.07,4,4,0,0,1-1.87.39Z" transform="translate(-12.11 -48.1)" style="fill:#ed1c24"/><path d="M141.28,248.45l1.63-5.68h1.29l1.63,5.68,1.1-5.68h1.65l-2,8.52H145.1l-1.51-6-1.58,6H140.5l-2-8.52h1.65Z" transform="translate(-12.11 -48.1)" style="fill:#ed1c24"/><path d="M150.76,251.29v-8.52h1.61v8.52Zm.58-7v-1.55h5.13v1.55Zm0,3.51v-1.55h4.48v1.55Zm0,3.46v-1.55h5.13v1.55Z" transform="translate(-12.11 -48.1)" style="fill:#ed1c24"/><path d="M162.24,244.32v-1.55h6.25v1.55Zm2.32,7v-7.82h1.61v7.82Z" transform="translate(-12.11 -48.1)" style="fill:#ed1c24"/><path d="M170.55,251.29v-8.53h1.61v8.53Zm.64-3.43v-1.55h3a.74.74,0,0,0,.6-.27,1.2,1.2,0,0,0,.23-.73,1.14,1.14,0,0,0-.23-.73.74.74,0,0,0-.6-.27h-3v-1.55h3.09a2.36,2.36,0,0,1,1.24.32,2.16,2.16,0,0,1,.83.89,3,3,0,0,1,.29,1.34,2.85,2.85,0,0,1-.3,1.34,2.08,2.08,0,0,1-.82.89,2.36,2.36,0,0,1-1.24.32Zm3.86,3.43L173,247.6l1.72-.27,2.3,4Z" transform="translate(-12.11 -48.1)" style="fill:#ed1c24"/><path d="M182.26,251.38a3.09,3.09,0,0,1-2.3-.83,3.23,3.23,0,0,1-.81-2.34v-5.44h1.61v5.48a1.55,1.55,0,0,0,.39,1.13,1.71,1.71,0,0,0,2.22,0,1.51,1.51,0,0,0,.4-1.13v-5.48h1.6v5.44a3.23,3.23,0,0,1-.81,2.34A3.09,3.09,0,0,1,182.26,251.38Z" transform="translate(-12.11 -48.1)" style="fill:#ed1c24"/><path d="M190.7,251.38a5.94,5.94,0,0,1-1.19-.13,4.81,4.81,0,0,1-1.09-.36,4.46,4.46,0,0,1-.92-.57l.74-1.32a3.69,3.69,0,0,0,1.14.62,4,4,0,0,0,1.32.22,2.3,2.3,0,0,0,1.22-.27.81.81,0,0,0,.43-.75h0a.74.74,0,0,0-.21-.57,1.4,1.4,0,0,0-.57-.29c-.24-.06-.5-.12-.77-.16s-.67-.11-1-.19a3.33,3.33,0,0,1-.94-.36,2,2,0,0,1-.69-.71,2.57,2.57,0,0,1-.26-1.24h0a2.4,2.4,0,0,1,.82-1.93,3.56,3.56,0,0,1,2.32-.68,4.72,4.72,0,0,1,1.41.23,5.33,5.33,0,0,1,1.33.66l-.68,1.36a4,4,0,0,0-1-.53,3.24,3.24,0,0,0-1-.18,2.25,2.25,0,0,0-1.14.24.75.75,0,0,0-.4.68h0a.78.78,0,0,0,.24.62,1.51,1.51,0,0,0,.62.31c.26.07.54.13.83.19s.66.14,1,.23a3.6,3.6,0,0,1,.89.4,1.86,1.86,0,0,1,.65.71,2.48,2.48,0,0,1,.24,1.17h0a2.29,2.29,0,0,1-.85,1.91A3.79,3.79,0,0,1,190.7,251.38Z" transform="translate(-12.11 -48.1)" style="fill:#ed1c24"/><path d="M195.37,244.32v-1.55h6.25v1.55Zm2.32,7v-7.82h1.61v7.82Z" transform="translate(-12.11 -48.1)" style="fill:#ed1c24"/><path d="M111.31,166.41h-3.17l1.15-4.88h13.29l-1.15,4.88h-2.76l1.52,16.92h.09L130,166.41h-2.76l1.15-4.88h12l-1.11,4.88h-2.94L120.74,193h-6.49Z" transform="translate(-12.11 -48.1)" style="fill:#064523"/><path d="M154.52,182.06h5.2a4.74,4.74,0,0,0-.19,1.29,3.16,3.16,0,0,0,1.06,2.5,3.55,3.55,0,0,0,2.44,1,4,4,0,0,0,2.9-1.13,3.81,3.81,0,0,0,1.15-2.83,4.56,4.56,0,0,0-1-2.87,26.12,26.12,0,0,0-3.08-3.2,25.27,25.27,0,0,1-3.82-4,6.94,6.94,0,0,1-1.28-4.21,9.15,9.15,0,0,1,.43-2.67,8.41,8.41,0,0,1,1.45-2.71,7.33,7.33,0,0,1,2.72-2.09,9.44,9.44,0,0,1,4.09-.81,9.75,9.75,0,0,1,3.45.55,7.3,7.3,0,0,1,2.67,1.89l.5-2.21h5l-1.93,8.24h-5a2.2,2.2,0,0,1,.05-.33,1.33,1.33,0,0,0,0-.32,2.34,2.34,0,0,0-1-2,4,4,0,0,0-2.55-.76,3.37,3.37,0,0,0-2.18.64,1.94,1.94,0,0,0-.81,1.57,3.23,3.23,0,0,0,.83,2.09,25.07,25.07,0,0,0,2.62,2.55q1.38,1.2,2.28,2.07a14.85,14.85,0,0,1,1.75,2.07,10.5,10.5,0,0,1,1.35,2.65,9.38,9.38,0,0,1,.51,3.15,10.61,10.61,0,0,1-.76,4.07,9.55,9.55,0,0,1-2.12,3.22,9.45,9.45,0,0,1-3.19,2.09,10.6,10.6,0,0,1-4,.74,7.6,7.6,0,0,1-3.31-.67,9.52,9.52,0,0,1-2.81-2.23l-.55,2.35h-5.2Z" transform="translate(-12.11 -48.1)" style="fill:#064523"/><polygon points="153.89 79.7 150.06 73.1 129.9 117.39 133.73 123.99 153.89 79.7" style="fill:#010101;stroke:#231f20;stroke-miterlimit:10"/><polygon points="129.45 118.63 133.15 125.01 130.04 129.05 127.77 125.12 129.45 118.63" style="fill:#010101;stroke:#231f20;stroke-miterlimit:10"/><path d="M139.51,174.62l2,3.4-3.57,4.63a.4.4,0,0,1-.12.11.13.13,0,0,1-.2,0,.91.91,0,0,1,0-.62Z" transform="translate(-12.11 -48.1)" style="fill:#010101;stroke:#231f20;stroke-miterlimit:10"/><path d="M166.51,126.68l-3.83-6.6,1.58-3.45a7.33,7.33,0,0,1,2.5-3.31,1.42,1.42,0,0,1,2.16.56,7.31,7.31,0,0,1,.55,4.1,16.52,16.52,0,0,1-1.39,5.25Z" transform="translate(-12.11 -48.1)" style="fill:#010101;stroke:#231f20;stroke-miterlimit:10"/><path d="M328.83,82.43l-6.6,49.81H302.56l-7.48-49.81h13.66q2.37,20.58,3.4,34.83,1-14.4,2.13-25.56l.9-9.27Z" transform="translate(-12.11 -48.1)" style="fill:#fff"/><path d="M346.15,82.43v6.49h-12.8V82.43Zm0,9v40.82h-12.8V91.42Z" transform="translate(-12.11 -48.1)" style="fill:#fff"/><path d="M380.79,106.83H369.07v-4.71a9.43,9.43,0,0,0-.4-3.34,1.48,1.48,0,0,0-1.48-.87,1.44,1.44,0,0,0-1.45.77,10,10,0,0,0-.37,3.44v19.26a7.45,7.45,0,0,0,.56,3.27,1.76,1.76,0,0,0,1.63,1.1,1.69,1.69,0,0,0,1.71-1.14,14,14,0,0,0,.44-4.31v-4.86h11.08a65,65,0,0,1-.36,7.34,11.65,11.65,0,0,1-2.06,5,11,11,0,0,1-4.54,3.88,16.3,16.3,0,0,1-6.92,1.31,16.48,16.48,0,0,1-8.33-1.8,9.9,9.9,0,0,1-4.36-5.05,26.14,26.14,0,0,1-1.27-9.21v-11.6a22.39,22.39,0,0,1,1-7.84,10.22,10.22,0,0,1,4.46-4.73,17.73,17.73,0,0,1,16.61,0,10.11,10.11,0,0,1,4.59,5.2A27.1,27.1,0,0,1,380.79,106.83Z" transform="translate(-12.11 -48.1)" style="fill:#fff"/><path d="M400.29,86V92.4h3.35v6.46h-3.35V120.7c0,2.69.14,4.19.42,4.49s1.43.46,3.46.46v6.59h-5a35.23,35.23,0,0,1-6.06-.36,6.45,6.45,0,0,1-3.2-1.63,5.44,5.44,0,0,1-1.72-2.92,51.18,51.18,0,0,1-.34-7.74V98.86h-2.67V92.4h2.67V86Z" transform="translate(-12.11 -48.1)" style="fill:#fff"/><path d="M437.21,105.75v10a41.93,41.93,0,0,1-.56,8.07,11.27,11.27,0,0,1-2.37,4.8,10.59,10.59,0,0,1-4.66,3.29,18.51,18.51,0,0,1-6.53,1.07,23.53,23.53,0,0,1-7-.91,9.55,9.55,0,0,1-4.44-2.74,10.77,10.77,0,0,1-2.26-4.43,33.31,33.31,0,0,1-.68-7.8V106.64A25.64,25.64,0,0,1,410,97.75a10.22,10.22,0,0,1,4.43-5.13,15.5,15.5,0,0,1,8.18-1.94,18.74,18.74,0,0,1,7.19,1.24,11.28,11.28,0,0,1,6.86,7.37A25.65,25.65,0,0,1,437.21,105.75Zm-12.43-3.07a13.43,13.43,0,0,0-.34-4,1.4,1.4,0,0,0-1.45-.81,1.45,1.45,0,0,0-1.47.81,12.4,12.4,0,0,0-.37,4V121.1a11.79,11.79,0,0,0,.37,3.77,1.67,1.67,0,0,0,2.9.08,10.29,10.29,0,0,0,.36-3.45Z" transform="translate(-12.11 -48.1)" style="fill:#fff"/><path d="M456.43,91.42l-.49,5.36q2.71-5.76,7.85-6.1V105a10.37,10.37,0,0,0-5,.93,3.89,3.89,0,0,0-2,2.57,46.63,46.63,0,0,0-.37,7.58v16.12H444V91.42Z" transform="translate(-12.11 -48.1)" style="fill:#fff"/><path d="M496.42,91.42,492.87,121q-.84,7-1.41,9.56a10.14,10.14,0,0,1-1.9,4.22,7.56,7.56,0,0,1-3.67,2.44,25.68,25.68,0,0,1-7.52.79h-7.54v-6.52a14.63,14.63,0,0,0,3.73-.29,1.24,1.24,0,0,0,.83-1.31,43.23,43.23,0,0,0-.77-4.28l-6.8-34.14H479.1L483.18,119l2-27.56Z" transform="translate(-12.11 -48.1)" style="fill:#fff"/><path d="M319.34,147.46v33.29q0,7.47-.15,9.61a7.29,7.29,0,0,1-1.41,3.86,6.36,6.36,0,0,1-3.38,2.38,23.4,23.4,0,0,1-6.44.66h-6.49v-8.7c.78.06,1.34.09,1.69.09a3.26,3.26,0,0,0,2.19-.68,2.52,2.52,0,0,0,.92-1.66q.12-1,.12-3.81v-35Z" transform="translate(-12.11 -48.1)" style="fill:#fff"/><path d="M355.15,156.44v40.82H342.51l.21-3.39a8.64,8.64,0,0,1-3.18,3.1,8.91,8.91,0,0,1-4.35,1,9.89,9.89,0,0,1-4.65-1,6.39,6.39,0,0,1-2.72-2.62,9.54,9.54,0,0,1-1.09-3.4,69.27,69.27,0,0,1-.22-7V156.44h12.43v27.78a29.43,29.43,0,0,0,.29,5.66c.2.6.73.89,1.59.89s1.47-.3,1.64-.92a34.73,34.73,0,0,0,.26-5.94V156.44Z" transform="translate(-12.11 -48.1)" style="fill:#fff"/><path d="M375,156.44l-.21,3.76a9.23,9.23,0,0,1,3.31-3.37,8.84,8.84,0,0,1,4.5-1.12,8.55,8.55,0,0,1,5.23,1.5,6.7,6.7,0,0,1,2.62,3.8,34.85,34.85,0,0,1,.58,7.65v28.6H378.56V169a26.81,26.81,0,0,0-.27-5.13c-.19-.62-.7-.93-1.54-.93a1.54,1.54,0,0,0-1.66,1.07,26.18,26.18,0,0,0-.34,5.67v27.59H362.32V156.44Z" transform="translate(-12.11 -48.1)" style="fill:#fff"/><path d="M410.77,147.46V154H398v-6.49Zm0,9v40.82H398V156.44Z" transform="translate(-12.11 -48.1)" style="fill:#fff"/><path d="M446.06,170.78v10a41.93,41.93,0,0,1-.56,8.07,11.25,11.25,0,0,1-2.36,4.8,10.73,10.73,0,0,1-4.66,3.29,18.61,18.61,0,0,1-6.54,1.06,23.44,23.44,0,0,1-7-.9,9.58,9.58,0,0,1-4.45-2.74,10.77,10.77,0,0,1-2.26-4.43,33.31,33.31,0,0,1-.68-7.8V171.67a25.6,25.6,0,0,1,1.23-8.89,10.29,10.29,0,0,1,4.43-5.14,15.64,15.64,0,0,1,8.19-1.93A18.68,18.68,0,0,1,438.6,157a11.48,11.48,0,0,1,4.63,3.25,11.37,11.37,0,0,1,2.23,4.12A25.6,25.6,0,0,1,446.06,170.78Zm-12.43-3.08a13.35,13.35,0,0,0-.34-3.95,1.4,1.4,0,0,0-1.44-.82,1.47,1.47,0,0,0-1.48.82,12.32,12.32,0,0,0-.37,3.95v18.43a11.83,11.83,0,0,0,.37,3.77,1.69,1.69,0,0,0,2.91.07,10.59,10.59,0,0,0,.35-3.44Z" transform="translate(-12.11 -48.1)" style="fill:#fff"/><path d="M465.29,156.44l-.5,5.37q2.71-5.76,7.85-6.1v14.36a10.51,10.51,0,0,0-5,.92,3.89,3.89,0,0,0-2,2.57,45.67,45.67,0,0,0-.37,7.59v16.11H452.86V156.44Z" transform="translate(-12.11 -48.1)" style="fill:#fff"/><path d="M325.09,230.61h-12v-3.69a7.41,7.41,0,0,0-.46-3.3,1.7,1.7,0,0,0-1.54-.7,2,2,0,0,0-1.77,1,5.55,5.55,0,0,0-.6,2.9,8.18,8.18,0,0,0,.67,3.75q.64,1.26,3.66,3,8.66,5.13,10.9,8.42t2.24,10.61q0,5.32-1.24,7.85a9.83,9.83,0,0,1-4.82,4.23,19.16,19.16,0,0,1-8.3,1.7,18.61,18.61,0,0,1-8.88-2,9.69,9.69,0,0,1-4.81-5,25.65,25.65,0,0,1-1.14-8.64V247.5h12v6.06a8.18,8.18,0,0,0,.5,3.6,2,2,0,0,0,1.8.8,2.12,2.12,0,0,0,1.93-1,5.79,5.79,0,0,0,.63-3c0-2.94-.4-4.85-1.2-5.76a38.25,38.25,0,0,0-6.06-4.52,59.35,59.35,0,0,1-6.4-4.64,10.93,10.93,0,0,1-2.6-4,17.58,17.58,0,0,1-1-6.52q0-5.73,1.46-8.37a9.83,9.83,0,0,1,4.72-4.14,18.94,18.94,0,0,1,7.88-1.49,20.41,20.41,0,0,1,8.59,1.63,9,9,0,0,1,4.71,4.11q1.15,2.47,1.15,8.41Z" transform="translate(-12.11 -48.1)" style="fill:#fff"/><path d="M360,239.93H348.32v-4.71a9.19,9.19,0,0,0-.4-3.34,1.47,1.47,0,0,0-1.47-.87,1.44,1.44,0,0,0-1.45.77,9.72,9.72,0,0,0-.37,3.44v19.26a7.59,7.59,0,0,0,.55,3.27,1.77,1.77,0,0,0,1.63,1.1,1.68,1.68,0,0,0,1.71-1.14,13.63,13.63,0,0,0,.45-4.31v-4.86H360a65.52,65.52,0,0,1-.35,7.34,11.78,11.78,0,0,1-2.06,5,10.94,10.94,0,0,1-4.54,3.88,19.62,19.62,0,0,1-15.26-.49,9.89,9.89,0,0,1-4.35-5A26.11,26.11,0,0,1,332.2,250v-11.6a22.35,22.35,0,0,1,1.05-7.84,10.11,10.11,0,0,1,4.46-4.72,15.65,15.65,0,0,1,8.31-2.08,15.94,15.94,0,0,1,8.3,2.06,10,10,0,0,1,4.58,5.2A27.1,27.1,0,0,1,360,239.93Z" transform="translate(-12.11 -48.1)" style="fill:#fff"/><path d="M378.87,215.54v11.2a11.08,11.08,0,0,1,3.46-2.22,10.75,10.75,0,0,1,4-.74,9.2,9.2,0,0,1,5.56,1.66,6.7,6.7,0,0,1,2.8,3.83,41.73,41.73,0,0,1,.5,7.92v28.15H382.75V236.61a17.65,17.65,0,0,0-.36-4.59,1.49,1.49,0,0,0-1.58-1,1.52,1.52,0,0,0-1.54,1,13.8,13.8,0,0,0-.4,4.16v29.13H366.44v-49.8Z" transform="translate(-12.11 -48.1)" style="fill:#fff"/><path d="M430.28,238.85v10a41.93,41.93,0,0,1-.56,8.07,11.27,11.27,0,0,1-2.37,4.8,10.59,10.59,0,0,1-4.66,3.29,18.51,18.51,0,0,1-6.53,1.07,23.53,23.53,0,0,1-7-.91,9.55,9.55,0,0,1-4.44-2.74,10.77,10.77,0,0,1-2.26-4.43,33.31,33.31,0,0,1-.68-7.8V239.74a25.64,25.64,0,0,1,1.23-8.89,10.22,10.22,0,0,1,4.43-5.13,15.5,15.5,0,0,1,8.18-1.94,18.74,18.74,0,0,1,7.19,1.24,11.28,11.28,0,0,1,6.86,7.37A25.65,25.65,0,0,1,430.28,238.85Zm-12.43-3.07a13.81,13.81,0,0,0-.34-4,1.4,1.4,0,0,0-1.45-.81,1.45,1.45,0,0,0-1.47.81,12.4,12.4,0,0,0-.37,4V254.2a11.79,11.79,0,0,0,.37,3.77,1.41,1.41,0,0,0,1.44.88,1.43,1.43,0,0,0,1.46-.8,10.29,10.29,0,0,0,.36-3.45Z" transform="translate(-12.11 -48.1)" style="fill:#fff"/><path d="M465.19,238.85v10a42.12,42.12,0,0,1-.55,8.07,11.27,11.27,0,0,1-2.37,4.8,10.65,10.65,0,0,1-4.66,3.29,18.61,18.61,0,0,1-6.54,1.07,23.46,23.46,0,0,1-7-.91,9.58,9.58,0,0,1-4.45-2.74,10.9,10.9,0,0,1-2.26-4.43,33.42,33.42,0,0,1-.67-7.8V239.74a25.64,25.64,0,0,1,1.23-8.89,10.18,10.18,0,0,1,4.43-5.13,15.5,15.5,0,0,1,8.18-1.94,18.68,18.68,0,0,1,7.18,1.24,11.68,11.68,0,0,1,4.63,3.25,11.45,11.45,0,0,1,2.23,4.12A25.65,25.65,0,0,1,465.19,238.85Zm-12.43-3.07a13.43,13.43,0,0,0-.34-4A1.38,1.38,0,0,0,451,231a1.47,1.47,0,0,0-1.48.81,12.71,12.71,0,0,0-.37,4V254.2a12.1,12.1,0,0,0,.37,3.77,1.68,1.68,0,0,0,2.91.08,10.38,10.38,0,0,0,.35-3.45Z" transform="translate(-12.11 -48.1)" style="fill:#fff"/><path d="M484.79,215.54v49.8H472v-49.8Z" transform="translate(-12.11 -48.1)" style="fill:#fff"/></svg>