<svg id="Layer_1" data-name="Layer 1" xmlns="http://www.w3.org/2000/svg" viewBox="0 0 205.98 35.62"><path d="M197.67,176l-1.44,26.49h.1L206,176h8.64l-14.88,34.27H189.47L189,176Z" transform="translate(-189.03 -175.3)" style="fill:#fff"/><path d="M223,176l-7.11,34.27h-8.06L215,176Z" transform="translate(-189.03 -175.3)" style="fill:#fff"/><path d="M238.16,182.41c-.17-1.15-.93-1.73-2.28-1.73a3.32,3.32,0,0,0-2.06.62,5.37,5.37,0,0,0-1.47,2,22.19,22.19,0,0,0-1.22,3.72c-.38,1.54-.82,3.43-1.3,5.67q-.81,3.84-1.22,6.31a17.75,17.75,0,0,0-.31,3.91,2.91,2.91,0,0,0,.72,2,2.68,2.68,0,0,0,1.87.57,3,3,0,0,0,1.9-.62,5.17,5.17,0,0,0,1.36-1.75,14.88,14.88,0,0,0,1-2.74c.3-1.07.6-2.28.88-3.62h7.78l-.24,1.2a27.36,27.36,0,0,1-1.56,5.14,13,13,0,0,1-2.66,4.08,11.72,11.72,0,0,1-4.23,2.71,17.64,17.64,0,0,1-6.29,1,10.1,10.1,0,0,1-5.83-1.37,6.33,6.33,0,0,1-2.54-3.79,16.24,16.24,0,0,1-.22-5.71c.26-2.19.66-4.59,1.2-7.18q.68-3.31,1.59-6.45a19.44,19.44,0,0,1,2.59-5.62,12.68,12.68,0,0,1,4.39-4,14.35,14.35,0,0,1,7-1.51,15.67,15.67,0,0,1,4.59.6,6.17,6.17,0,0,1,3,1.95,6.78,6.78,0,0,1,1.39,3.45,15.53,15.53,0,0,1-.34,5.14l-.33,1.44h-7.78A16.8,16.8,0,0,0,238.16,182.41Z" transform="translate(-189.03 -175.3)" style="fill:#fff"/><path d="M245.58,182.5l1.34-6.52h22.47L268,182.5h-7.2l-5.76,27.75H247l5.76-27.75Z" transform="translate(-189.03 -175.3)" style="fill:#fff"/><path d="M287,199.91a19.43,19.43,0,0,1-2.64,5.68,12.28,12.28,0,0,1-4.44,3.89,15,15,0,0,1-7,1.44,12,12,0,0,1-6.1-1.25,6.42,6.42,0,0,1-2.9-3.57,13.78,13.78,0,0,1-.51-5.62,63,63,0,0,1,1.15-7.37,72.09,72.09,0,0,1,1.95-7.37,19.64,19.64,0,0,1,2.81-5.61,11.45,11.45,0,0,1,4.37-3.58,15.48,15.48,0,0,1,6.62-1.25,14,14,0,0,1,4.73.68,7.22,7.22,0,0,1,2.93,1.84,6.61,6.61,0,0,1,1.51,2.84,14.2,14.2,0,0,1,.43,3.62,25.78,25.78,0,0,1-.38,4.25c-.26,1.49-.55,3-.87,4.58Q288,196.66,287,199.91Zm-15.2-.87a19.41,19.41,0,0,0-.31,3.82,3.14,3.14,0,0,0,.67,2.06,2.37,2.37,0,0,0,1.8.62,3.51,3.51,0,0,0,2.09-.62,5.26,5.26,0,0,0,1.59-2.06A22.45,22.45,0,0,0,279,199q.61-2.37,1.34-5.93t1.08-5.9a20.22,20.22,0,0,0,.29-3.84,3.09,3.09,0,0,0-.7-2.07,2.48,2.48,0,0,0-1.82-.62,3.36,3.36,0,0,0-2,.62,5.63,5.63,0,0,0-1.54,2.07,22.13,22.13,0,0,0-1.32,3.84q-.61,2.4-1.34,5.9T271.83,199Z" transform="translate(-189.03 -175.3)" style="fill:#fff"/><path d="M307.59,176a10,10,0,0,1,4.2.74,5.7,5.7,0,0,1,2.43,2,6,6,0,0,1,1,2.83,11,11,0,0,1-.24,3.38,11.63,11.63,0,0,1-2.62,5.72,9.23,9.23,0,0,1-4.87,2.64v.09a6.16,6.16,0,0,1,2.81,1,3.48,3.48,0,0,1,1.25,1.82,7,7,0,0,1,.16,2.55,31.1,31.1,0,0,1-.48,3.17c-.31,1.72-.56,3.08-.72,4a15.18,15.18,0,0,0-.24,2.28,2,2,0,0,0,.22,1.08,1.51,1.51,0,0,0,.6.51l-.05.43h-8.69a5.77,5.77,0,0,1-.19-2.45,41.57,41.57,0,0,1,.77-4.51,34.48,34.48,0,0,0,.55-3.62,6.78,6.78,0,0,0-.09-2.21,1.59,1.59,0,0,0-.8-1.08,3.31,3.31,0,0,0-1.53-.29H298L295,210.25H287L294.06,176Zm-6,14.44a5,5,0,0,0,2.09-.4,5.06,5.06,0,0,0,1.51-1.06,5,5,0,0,0,1-1.44,6.56,6.56,0,0,0,.5-1.56,4.58,4.58,0,0,0-.26-3.12c-.43-.8-1.45-1.2-3.05-1.2h-2.45l-1.82,8.78Z" transform="translate(-189.03 -175.3)" style="fill:#fff"/><path d="M315.42,176h8.92l1.2,12.72h.1L332.22,176h8.64l-13,20.78-2.79,13.49H317l2.79-13.49Z" transform="translate(-189.03 -175.3)" style="fill:#fff"/><path d="M351.35,178.28l-1.77,8.48a6.87,6.87,0,0,1-.5,1.57,4.18,4.18,0,0,1-.88,1.23,4,4,0,0,1-1.32.81,5.24,5.24,0,0,1-1.82.28,3.16,3.16,0,0,1-2.6-.87,3,3,0,0,1-.33-2.47l.16-.75h2.65l-.12.52c-.05.21-.08.41-.11.61a1.57,1.57,0,0,0,0,.53.73.73,0,0,0,.2.39.78.78,0,0,0,.5.14.86.86,0,0,0,.52-.15,1.25,1.25,0,0,0,.36-.42,2.67,2.67,0,0,0,.25-.63c.06-.24.13-.51.18-.79l1.77-8.48Z" transform="translate(-189.03 -175.3)" style="fill:#fff"/><path d="M358.77,188.08a4.05,4.05,0,0,1-.88,1.34,3.89,3.89,0,0,1-1.41.9,5.8,5.8,0,0,1-2.09.33,4.73,4.73,0,0,1-2-.32,2.09,2.09,0,0,1-1-.9,2.7,2.7,0,0,1-.32-1.35,9.68,9.68,0,0,1,.2-1.68l1.68-8.12h2.86l-1.87,9a1.8,1.8,0,0,0,.06,1.11.77.77,0,0,0,.77.4,1.19,1.19,0,0,0,.94-.4,2.21,2.21,0,0,0,.51-1.11l1.87-9H361l-1.68,8.12A10,10,0,0,1,358.77,188.08Z" transform="translate(-189.03 -175.3)" style="fill:#fff"/><path d="M365.85,178.28l.69,7.89h0l1.65-7.89h2.65l-2.52,12.14h-3.23l-.76-8.37h0l-1.74,8.37h-2.55l2.52-12.14Z" transform="translate(-189.03 -175.3)" style="fill:#fff"/><path d="M375.56,178.28,373,190.42h-2.86l2.52-12.14Z" transform="translate(-189.03 -175.3)" style="fill:#fff"/><path d="M383.79,186.75a6.82,6.82,0,0,1-.93,2,4.37,4.37,0,0,1-1.58,1.37,5.28,5.28,0,0,1-2.48.51,4.25,4.25,0,0,1-2.16-.44,2.2,2.2,0,0,1-1-1.26,4.8,4.8,0,0,1-.18-2,20.87,20.87,0,0,1,.4-2.61c.21-1,.44-1.83.69-2.61a7,7,0,0,1,1-2,4.13,4.13,0,0,1,1.54-1.27,5.6,5.6,0,0,1,2.35-.44,4.88,4.88,0,0,1,1.67.24,2.61,2.61,0,0,1,1,.65,2.41,2.41,0,0,1,.54,1,5.17,5.17,0,0,1,.15,1.28,8.82,8.82,0,0,1-.14,1.5c-.09.53-.19,1.07-.3,1.63C384.21,185.19,384,186,383.79,186.75Zm-5.38-.3a6.58,6.58,0,0,0-.11,1.35,1.15,1.15,0,0,0,.24.73.83.83,0,0,0,.64.22,1.24,1.24,0,0,0,.74-.22,2,2,0,0,0,.56-.73,7.48,7.48,0,0,0,.46-1.35q.22-.84.48-2.1c.17-.83.3-1.53.38-2.09a6.58,6.58,0,0,0,.1-1.36,1.07,1.07,0,0,0-.24-.73A.88.88,0,0,0,381,180a1.16,1.16,0,0,0-.72.22,1.82,1.82,0,0,0-.54.73,7.27,7.27,0,0,0-.47,1.36c-.15.56-.31,1.26-.48,2.09S378.5,185.89,378.41,186.45Z" transform="translate(-189.03 -175.3)" style="fill:#fff"/><path d="M391.93,178.28a3.64,3.64,0,0,1,1.48.26,2,2,0,0,1,.86.7,2.09,2.09,0,0,1,.34,1,3.82,3.82,0,0,1-.08,1.2,4.09,4.09,0,0,1-.93,2,3.26,3.26,0,0,1-1.72.94v0a2.19,2.19,0,0,1,1,.36,1.21,1.21,0,0,1,.44.65,2.59,2.59,0,0,1,.06.9,11,11,0,0,1-.17,1.12c-.11.61-.2,1.09-.25,1.43a5.16,5.16,0,0,0-.09.81.69.69,0,0,0,.08.38.46.46,0,0,0,.21.18l0,.16h-3.07a1.91,1.91,0,0,1-.07-.87,13.17,13.17,0,0,1,.27-1.6c.1-.52.17-.95.2-1.28a2.56,2.56,0,0,0,0-.78.56.56,0,0,0-.28-.39,1.37,1.37,0,0,0-.54-.1h-1.09l-1,5h-2.85l2.51-12.14Zm-2.13,5.12a1.77,1.77,0,0,0,1.28-.52,2.2,2.2,0,0,0,.52-1.06,1.66,1.66,0,0,0-.09-1.11q-.22-.42-1.08-.42h-.87l-.64,3.11Z" transform="translate(-189.03 -175.3)" style="fill:#fff"/><path d="M343.06,205.47a2.8,2.8,0,0,0-.09.65,1,1,0,0,0,.22.7.93.93,0,0,0,.77.26,1.64,1.64,0,0,0,.65-.12,1.57,1.57,0,0,0,.46-.34,1.65,1.65,0,0,0,.32-.46,2.86,2.86,0,0,0,.17-.52,1.26,1.26,0,0,0-.05-.81,1.37,1.37,0,0,0-.48-.54,3,3,0,0,0-.76-.4c-.28-.11-.58-.24-.87-.38a7.1,7.1,0,0,1-.86-.46,2.48,2.48,0,0,1-.7-.67,2.9,2.9,0,0,1-.39-1,4,4,0,0,1,.06-1.44,5.12,5.12,0,0,1,.5-1.37,3.66,3.66,0,0,1,.91-1.13,4.5,4.5,0,0,1,1.4-.78,5.8,5.8,0,0,1,1.92-.28,5.17,5.17,0,0,1,1.76.25,2.42,2.42,0,0,1,1.05.7,2.13,2.13,0,0,1,.44,1.06,3.89,3.89,0,0,1-.07,1.3l-.05.29h-2.76a2.27,2.27,0,0,0,0-1.28c-.1-.28-.36-.42-.77-.42-.76,0-1.23.43-1.41,1.31a1.11,1.11,0,0,0,.17,1,2.39,2.39,0,0,0,.84.62c.35.17.73.34,1.15.5a4.11,4.11,0,0,1,1.12.65,2.53,2.53,0,0,1,.75,1.05,3.18,3.18,0,0,1,0,1.73,4.69,4.69,0,0,1-1.71,3,5.56,5.56,0,0,1-3.24.89,7.61,7.61,0,0,1-1.46-.14,2.81,2.81,0,0,1-1.18-.49,1.93,1.93,0,0,1-.7-1,2.9,2.9,0,0,1,0-1.56l.17-.79h2.75Z" transform="translate(-189.03 -175.3)" style="fill:#fff"/><path d="M356.06,198.89a.71.71,0,0,0-.81-.61,1.13,1.13,0,0,0-.73.22,1.81,1.81,0,0,0-.52.72,7.87,7.87,0,0,0-.43,1.32c-.14.54-.29,1.21-.46,2s-.34,1.66-.44,2.24a7,7,0,0,0-.11,1.39,1,1,0,0,0,.26.71.92.92,0,0,0,.66.2,1,1,0,0,0,.67-.22,1.75,1.75,0,0,0,.49-.62,5.87,5.87,0,0,0,.36-1c.11-.38.21-.8.32-1.28h2.75l-.09.43a8.9,8.9,0,0,1-.55,1.81,4.48,4.48,0,0,1-.94,1.45,4.12,4.12,0,0,1-1.5,1,6.23,6.23,0,0,1-2.22.35,3.55,3.55,0,0,1-2.07-.49,2.22,2.22,0,0,1-.9-1.34,5.75,5.75,0,0,1-.08-2c.09-.78.24-1.63.43-2.54s.34-1.55.56-2.29a6.85,6.85,0,0,1,.92-2,4.48,4.48,0,0,1,1.55-1.41,5,5,0,0,1,2.48-.53,5.59,5.59,0,0,1,1.62.21,2.16,2.16,0,0,1,1.08.69,2.37,2.37,0,0,1,.49,1.22,5.4,5.4,0,0,1-.12,1.82l-.12.51h-2.75A6.16,6.16,0,0,0,356.06,198.89Z" transform="translate(-189.03 -175.3)" style="fill:#fff"/><path d="M363.65,196.61l-1,4.54H365l.95-4.54h2.86l-2.52,12.14h-2.85l1.07-5.18H362.2l-1.07,5.18h-2.86l2.52-12.14Z" transform="translate(-189.03 -175.3)" style="fill:#fff"/><path d="M377,205.09a6.88,6.88,0,0,1-.93,2,4.36,4.36,0,0,1-1.57,1.38A5.34,5.34,0,0,1,372,209a4.36,4.36,0,0,1-2.16-.44,2.31,2.31,0,0,1-1-1.27,4.78,4.78,0,0,1-.18-2,21,21,0,0,1,.41-2.61,23.33,23.33,0,0,1,.69-2.61,6.86,6.86,0,0,1,1-2,4,4,0,0,1,1.55-1.26,5.37,5.37,0,0,1,2.34-.44,5,5,0,0,1,1.68.23,2.55,2.55,0,0,1,1,.66,2.21,2.21,0,0,1,.54,1,5.17,5.17,0,0,1,.15,1.28,9,9,0,0,1-.13,1.51c-.09.52-.19,1.07-.31,1.62C377.38,203.52,377.19,204.32,377,205.09Zm-5.38-.31a7.37,7.37,0,0,0-.11,1.35,1.13,1.13,0,0,0,.24.73.84.84,0,0,0,.64.22,1.24,1.24,0,0,0,.74-.22,1.76,1.76,0,0,0,.56-.73,8.25,8.25,0,0,0,.47-1.35c.14-.56.3-1.26.47-2.1s.3-1.52.39-2.09a8.37,8.37,0,0,0,.1-1.36,1.09,1.09,0,0,0-.25-.73.86.86,0,0,0-.64-.22,1.17,1.17,0,0,0-.73.22,1.9,1.9,0,0,0-.54.73,7.27,7.27,0,0,0-.47,1.36c-.15.57-.3,1.26-.47,2.09S371.68,204.22,371.58,204.78Z" transform="translate(-189.03 -175.3)" style="fill:#fff"/><path d="M386.72,205.09a6.88,6.88,0,0,1-.93,2,4.36,4.36,0,0,1-1.57,1.38,5.35,5.35,0,0,1-2.49.51,4.29,4.29,0,0,1-2.15-.44,2.27,2.27,0,0,1-1-1.27,4.78,4.78,0,0,1-.18-2,21,21,0,0,1,.41-2.61,25.83,25.83,0,0,1,.68-2.61,7.13,7.13,0,0,1,1-2,4,4,0,0,1,1.55-1.26,5.37,5.37,0,0,1,2.34-.44,5,5,0,0,1,1.68.23,2.55,2.55,0,0,1,1,.66,2.21,2.21,0,0,1,.54,1,5.17,5.17,0,0,1,.15,1.28,9,9,0,0,1-.13,1.51c-.1.52-.2,1.07-.31,1.62C387.14,203.52,386.94,204.32,386.72,205.09Zm-5.38-.31a6.58,6.58,0,0,0-.11,1.35,1.13,1.13,0,0,0,.24.73.83.83,0,0,0,.64.22,1.24,1.24,0,0,0,.74-.22,1.85,1.85,0,0,0,.56-.73,8.25,8.25,0,0,0,.47-1.35c.14-.56.3-1.26.47-2.1s.3-1.52.38-2.09a7.53,7.53,0,0,0,.11-1.36,1.09,1.09,0,0,0-.25-.73.87.87,0,0,0-.65-.22,1.16,1.16,0,0,0-.72.22,1.9,1.9,0,0,0-.54.73,7.27,7.27,0,0,0-.47,1.36c-.15.57-.31,1.26-.48,2.09S381.43,204.22,381.34,204.78Z" transform="translate(-189.03 -175.3)" style="fill:#fff"/><path d="M392.92,196.61l-2,9.83H395l-.48,2.31h-7l2.51-12.14Z" transform="translate(-189.03 -175.3)" style="fill:#fff"/></svg>